{"glyphs":{"0":{"ha":772,"x_min":0,"x_max":0,"o":"m 60 476 b 382 -32 60 144 171 -32 b 704 468 590 -32 704 144 b 382 985 704 754 626 985 b 60 476 244 985 60 908 z m 382 876 b 579 479 514 876 579 743 b 379 69 579 200 515 69 b 185 475 250 69 185 206 b 382 876 185 744 250 876 z "},"1":{"ha":772,"x_min":0,"x_max":0,"o":"m 360 701 l 360 0 l 482 0 l 482 985 l 401 985 b 142 789 358 833 331 813 l 142 701 z "},"2":{"ha":772,"x_min":0,"x_max":0,"o":"m 69 643 l 192 643 b 390 878 197 735 221 878 b 585 693 501 878 585 799 b 451 499 585 615 539 549 l 324 426 b 47 0 118 310 58 217 l 703 0 l 703 121 l 185 121 b 363 324 197 201 239 257 l 501 399 b 710 696 639 474 710 575 b 394 985 710 867 581 985 b 69 643 260 985 78 940 z "},"3":{"ha":772,"x_min":0,"x_max":0,"o":"m 375 878 b 549 710 483 878 549 814 b 307 556 549 582 469 558 l 307 451 l 322 451 l 374 453 b 578 274 508 453 578 392 b 374 76 578 150 501 76 b 167 286 240 76 175 143 l 44 286 b 369 -32 60 72 164 -32 b 703 275 572 -32 703 89 b 536 510 703 400 654 469 b 674 714 628 546 674 615 b 374 985 674 883 561 985 b 65 667 175 985 69 876 l 188 667 b 375 878 190 774 219 878 z "},"4":{"ha":772,"x_min":0,"x_max":0,"o":"m 454 236 l 454 0 l 576 0 l 576 236 l 722 236 l 722 346 l 576 346 l 576 985 l 486 985 l 39 365 l 39 236 z m 454 346 l 146 346 l 454 776 z "},"5":{"ha":772,"x_min":0,"x_max":0,"o":"m 661 985 l 153 985 l 79 449 l 192 449 b 372 540 249 517 296 540 b 588 304 504 540 588 450 b 372 76 588 163 506 76 b 171 242 265 76 200 131 l 49 242 b 375 -32 61 178 97 -32 b 713 321 574 -32 713 113 b 394 649 713 515 583 649 b 213 589 325 649 269 631 l 251 864 l 661 864 z "},"6":{"ha":772,"x_min":0,"x_max":0,"o":"m 60 449 b 390 -32 60 171 144 -32 b 713 300 578 -32 713 107 b 411 613 713 483 588 613 b 185 503 314 613 238 575 b 404 876 186 743 264 876 b 569 728 490 876 550 822 l 692 728 b 413 985 668 889 563 985 b 60 449 268 985 60 904 z m 396 504 b 588 290 514 504 588 422 b 392 76 588 167 504 76 b 192 297 278 76 192 171 b 396 504 192 419 275 504 z "},"7":{"ha":772,"x_min":0,"x_max":0,"o":"m 722 985 l 64 985 l 64 864 l 596 864 b 192 0 361 529 265 324 l 322 0 b 722 882 376 315 500 586 z "},"8":{"ha":772,"x_min":0,"x_max":0,"o":"m 543 518 b 678 722 644 579 678 629 b 382 985 678 876 557 985 b 86 722 208 985 86 876 b 219 518 86 631 119 581 b 51 274 107 464 51 382 b 382 -32 51 93 188 -32 b 713 272 576 -32 713 93 b 543 518 713 382 657 464 z m 382 876 b 553 719 486 876 553 815 b 382 567 553 628 485 567 b 211 721 279 567 211 628 b 382 876 211 815 279 876 z m 382 464 b 588 271 504 464 588 386 b 379 76 588 154 504 76 b 176 271 260 76 176 156 b 382 464 176 386 260 464 z "},"9":{"ha":772,"x_min":0,"x_max":0,"o":"m 707 504 b 375 985 707 785 619 985 b 53 653 188 985 53 846 b 356 340 53 469 178 340 b 581 450 449 340 517 374 b 361 76 579 210 501 76 b 196 225 275 76 215 131 l 74 225 b 353 -32 97 64 203 -32 b 707 504 497 -32 707 49 z m 374 878 b 574 656 488 878 574 783 b 369 449 574 535 489 449 b 178 663 251 449 178 531 b 374 878 178 788 261 878 z "}," ":{"ha":386,"x_min":0,"x_max":0,"o":""},"!":{"ha":386,"x_min":0,"x_max":0,"o":"m 289 1013 l 174 1013 l 174 543 l 204 233 l 258 233 l 289 543 z m 289 144 l 172 144 l 172 0 l 289 0 z "},"\"":{"ha":493,"x_min":0,"x_max":0,"o":"m 72 985 l 72 831 l 110 644 l 164 644 l 201 831 l 201 985 z m 294 985 l 294 831 l 332 644 l 386 644 l 424 831 l 424 985 z "},"#":{"ha":772,"x_min":0,"x_max":0,"o":"m 674 968 l 567 968 l 518 696 l 344 696 l 394 968 l 289 968 l 239 696 l 71 696 l 71 601 l 221 601 l 178 360 l 19 360 l 19 265 l 160 265 l 107 -28 l 213 -28 l 267 265 l 439 265 l 386 -28 l 492 -28 l 546 265 l 708 265 l 708 360 l 563 360 l 606 601 l 753 601 l 753 696 l 624 696 z m 500 601 l 457 360 l 283 360 l 328 601 z "},"$":{"ha":772,"x_min":0,"x_max":0,"o":"m 719 271 b 419 551 719 496 503 526 l 419 897 b 579 721 513 893 578 822 l 689 721 b 419 994 689 879 588 982 l 419 1069 l 338 1069 l 338 994 b 64 717 160 972 64 875 b 163 514 64 629 97 561 b 338 442 199 488 236 472 l 338 64 b 156 289 169 86 164 194 l 46 289 l 46 265 b 338 -32 46 86 150 -19 l 338 -175 l 419 -175 l 419 -32 b 719 271 615 -18 719 94 z m 338 563 b 176 731 228 592 176 646 b 338 896 176 822 235 882 z m 419 64 l 419 429 b 606 254 561 388 606 346 b 419 64 606 158 549 79 z "},"%":{"ha":1235,"x_min":0,"x_max":0,"o":"m 276 951 b 40 714 147 951 40 844 b 278 476 40 583 147 476 b 514 711 407 476 514 583 b 276 951 514 846 410 951 z m 276 854 b 418 713 356 854 418 792 b 278 574 418 636 354 574 b 136 714 200 574 136 638 b 276 854 136 792 200 854 z m 846 985 l 297 -28 l 389 -28 l 938 985 z m 956 447 b 719 211 826 447 719 340 b 957 -26 719 81 826 -26 b 1193 208 1085 -26 1193 81 b 956 447 1193 342 1089 447 z m 956 350 b 1097 208 1035 350 1097 288 b 957 71 1097 133 1033 71 b 815 211 879 71 815 133 b 956 350 815 288 879 350 z "},"&":{"ha":926,"x_min":0,"x_max":0,"o":"m 647 108 l 733 0 l 885 0 l 715 210 b 796 464 767 289 796 381 l 685 464 l 685 458 b 642 299 685 408 668 346 l 457 525 b 649 767 601 607 649 667 b 422 985 649 894 554 985 b 185 767 290 985 185 889 b 297 540 185 701 211 649 b 72 244 125 440 72 371 b 357 -32 72 78 186 -32 b 647 108 515 -32 603 65 z m 396 599 b 299 768 311 696 299 719 b 418 888 299 840 346 888 b 539 769 488 888 539 838 b 396 599 539 707 504 667 z m 581 190 b 371 76 503 108 443 76 b 189 254 271 76 189 157 b 358 468 189 332 232 388 z "},"'":{"ha":265,"x_min":0,"x_max":0,"o":"m 67 985 l 67 831 l 104 644 l 160 644 l 197 831 l 197 985 z "},"(":{"ha":463,"x_min":0,"x_max":0,"o":"m 328 1013 b 101 360 189 831 101 578 b 328 -294 101 140 189 -112 l 404 -294 b 214 360 282 -96 214 138 b 404 1013 214 581 282 815 z "},")":{"ha":463,"x_min":0,"x_max":0,"o":"m 129 -294 b 356 358 268 -112 356 140 b 129 1013 356 578 268 831 l 53 1013 b 243 358 175 814 243 581 b 53 -294 243 138 175 -97 z "},"*":{"ha":540,"x_min":0,"x_max":0,"o":"m 222 1013 l 229 857 l 82 910 l 56 828 l 206 786 l 110 663 l 179 613 l 267 742 l 353 613 l 424 663 l 326 786 l 476 828 l 450 910 l 303 857 l 310 1013 z "},"+":{"ha":811,"x_min":0,"x_max":0,"o":"m 742 371 l 454 371 l 454 658 l 357 658 l 357 371 l 69 371 l 69 274 l 357 274 l 357 -14 l 454 -14 l 454 274 l 742 274 z "},",":{"ha":386,"x_min":0,"x_max":0,"o":"m 121 144 l 121 0 l 204 0 l 204 -25 b 121 -151 204 -121 186 -149 l 121 -204 b 267 -22 218 -204 267 -142 l 267 144 z "},"-":{"ha":463,"x_min":0,"x_max":0,"o":"m 394 433 l 64 433 l 64 333 l 394 333 z "},".":{"ha":386,"x_min":0,"x_max":0,"o":"m 265 144 l 121 144 l 121 0 l 265 0 z "},"/":{"ha":386,"x_min":0,"x_max":0,"o":"m 318 1013 l -11 -28 l 65 -28 l 394 1013 z "},":":{"ha":386,"x_min":0,"x_max":0,"o":"m 297 144 l 153 144 l 153 0 l 297 0 z m 297 728 l 153 728 l 153 583 l 297 583 z "},";":{"ha":386,"x_min":0,"x_max":0,"o":"m 299 728 l 154 728 l 154 583 l 299 583 z m 153 144 l 153 0 l 236 0 l 236 -25 b 153 -151 236 -121 218 -149 l 153 -204 b 299 -22 250 -204 299 -142 l 299 144 z "},"<":{"ha":811,"x_min":0,"x_max":0,"o":"m 63 275 l 742 -12 l 742 97 l 194 325 l 742 549 l 742 658 l 63 371 z "},"=":{"ha":811,"x_min":0,"x_max":0,"o":"m 742 490 l 69 490 l 69 393 l 742 393 z m 742 251 l 69 251 l 69 154 l 742 154 z "},">":{"ha":811,"x_min":0,"x_max":0,"o":"m 749 371 l 69 658 l 69 549 l 617 321 l 69 97 l 69 -12 l 749 275 z "},"?":{"ha":772,"x_min":0,"x_max":0,"o":"m 707 763 b 411 1029 707 925 592 1029 b 107 704 211 1029 107 918 l 225 704 b 404 921 225 828 260 921 b 582 763 511 921 582 857 b 333 353 582 588 333 542 l 333 276 l 458 276 l 458 342 b 707 763 458 507 707 533 z m 458 144 l 333 144 l 333 0 l 458 0 z "},"@":{"ha":1410,"x_min":0,"x_max":0,"o":"m 924 696 l 893 604 b 724 725 858 683 800 725 b 367 340 538 725 367 542 b 593 86 367 196 464 86 b 790 186 667 86 726 117 b 943 79 803 115 856 79 b 1201 203 1046 79 1131 119 b 1321 513 1278 292 1321 404 b 729 1029 1321 794 1053 1029 b 267 850 564 1029 389 961 b 47 358 131 726 47 540 b 679 -197 47 50 328 -197 b 993 -139 782 -197 893 -176 l 954 -46 b 686 -90 840 -78 761 -90 b 165 379 392 -90 165 114 b 711 922 165 671 418 922 b 1200 496 976 922 1200 728 b 967 176 1200 333 1085 176 b 897 238 929 176 897 204 b 914 307 897 250 903 275 l 1039 696 z m 629 175 b 492 339 553 175 492 247 b 715 636 492 494 599 636 b 846 511 790 636 846 582 b 629 175 846 390 761 175 z "},"A":{"ha":926,"x_min":0,"x_max":0,"o":"m 658 304 l 763 0 l 907 0 l 551 1013 l 385 1013 l 24 0 l 161 0 l 268 304 z m 622 413 l 300 413 l 467 874 z "},"B":{"ha":926,"x_min":0,"x_max":0,"o":"m 865 289 b 681 535 865 411 810 485 b 821 756 772 578 821 653 b 521 1013 821 858 761 1013 l 110 1013 l 110 0 l 567 0 b 865 289 746 0 865 115 z m 692 738 b 489 576 692 617 611 576 l 239 576 l 239 899 l 489 899 b 692 738 597 899 692 868 z m 554 114 l 239 114 l 239 463 l 554 463 b 736 288 674 463 736 390 b 554 114 736 217 700 114 z "},"C":{"ha":1003,"x_min":0,"x_max":0,"o":"m 67 494 b 524 -32 67 288 158 -32 b 940 369 771 -32 910 101 l 807 369 b 525 82 776 178 694 82 b 196 496 324 82 196 243 b 514 915 196 756 318 915 b 788 699 678 915 758 840 l 919 699 b 529 1029 879 921 751 1029 b 67 494 160 1029 67 706 z "},"D":{"ha":1003,"x_min":0,"x_max":0,"o":"m 124 0 l 514 0 b 926 507 769 0 926 192 b 514 1013 926 821 771 1013 l 124 1013 z m 253 114 l 253 899 l 492 899 b 797 506 692 899 797 764 b 492 114 797 250 692 114 z "},"E":{"ha":926,"x_min":0,"x_max":0,"o":"m 254 461 l 806 461 l 806 575 l 254 575 l 254 899 l 826 899 l 826 1013 l 125 1013 l 125 0 l 851 0 l 851 114 l 254 114 z "},"F":{"ha":849,"x_min":0,"x_max":0,"o":"m 254 461 l 738 461 l 738 575 l 254 575 l 254 899 l 804 899 l 804 1013 l 125 1013 l 125 0 l 254 0 z "},"G":{"ha":1081,"x_min":0,"x_max":0,"o":"m 190 503 b 546 915 190 751 332 915 b 839 706 700 915 811 836 l 971 706 b 547 1029 935 911 779 1029 b 61 496 158 1029 61 699 b 525 -32 61 185 251 -32 b 871 129 663 -32 772 19 l 903 -6 l 985 -6 l 985 535 l 563 535 l 563 421 l 871 421 l 871 393 b 553 82 871 213 738 82 b 190 503 263 82 190 340 z "},"H":{"ha":1003,"x_min":0,"x_max":0,"o":"m 765 461 l 765 0 l 894 0 l 894 1013 l 765 1013 l 765 575 l 244 575 l 244 1013 l 115 1013 l 115 0 l 244 0 l 244 461 z "},"I":{"ha":386,"x_min":0,"x_max":0,"o":"m 269 1013 l 139 1013 l 139 0 l 269 0 z "},"J":{"ha":694,"x_min":0,"x_max":0,"o":"m 307 76 b 156 260 210 76 156 142 l 156 325 l 24 325 l 24 236 b 306 -32 24 72 132 -32 b 592 253 482 -32 592 78 l 592 1013 l 463 1013 l 463 300 b 307 76 463 172 433 76 z "},"K":{"ha":926,"x_min":0,"x_max":0,"o":"m 239 354 l 404 519 l 761 0 l 914 0 l 497 600 l 910 1013 l 743 1013 l 239 500 l 239 1013 l 110 1013 l 110 0 l 239 0 z "},"L":{"ha":772,"x_min":0,"x_max":0,"o":"m 240 1013 l 111 1013 l 111 0 l 740 0 l 740 114 l 240 114 z "},"M":{"ha":1157,"x_min":0,"x_max":0,"o":"m 650 0 l 935 849 l 935 0 l 1057 0 l 1057 1013 l 878 1013 l 583 131 l 283 1013 l 104 1013 l 104 0 l 226 0 l 226 849 l 514 0 z "},"N":{"ha":1003,"x_min":0,"x_max":0,"o":"m 897 1013 l 775 1013 l 775 185 l 246 1013 l 106 1013 l 106 0 l 228 0 l 228 821 l 751 0 l 897 0 z "},"O":{"ha":1081,"x_min":0,"x_max":0,"o":"m 1031 490 b 540 1029 1031 817 838 1029 b 53 499 250 1029 53 815 b 542 -32 53 182 250 -32 b 1031 490 844 -32 1031 199 z m 540 915 b 901 493 760 915 901 749 b 542 82 901 249 756 82 b 182 499 326 82 182 249 b 540 915 182 749 326 915 z "},"P":{"ha":926,"x_min":0,"x_max":0,"o":"m 857 715 b 544 1013 857 906 744 1013 l 126 1013 l 126 0 l 256 0 l 256 429 l 574 429 b 857 715 740 429 857 542 z m 256 543 l 256 899 l 525 899 b 722 721 649 899 722 832 b 525 543 722 610 649 543 z "},"Q":{"ha":1081,"x_min":0,"x_max":0,"o":"m 1018 -1 l 888 106 b 1031 501 983 211 1031 342 b 542 1029 1031 815 833 1029 b 53 499 250 1029 53 815 b 542 -32 53 182 250 -32 b 807 39 642 -32 725 -10 l 953 -82 z m 668 285 l 604 207 l 707 121 b 540 82 647 93 601 82 b 182 499 325 82 182 249 b 542 915 182 749 326 915 b 901 500 757 915 901 749 b 792 183 901 369 867 268 z "},"R":{"ha":1003,"x_min":0,"x_max":0,"o":"m 744 500 b 904 742 858 556 904 626 b 596 1013 904 917 794 1013 l 129 1013 l 129 0 l 258 0 l 258 436 l 592 436 b 758 256 707 436 758 381 l 758 165 b 786 0 758 103 768 42 l 943 0 l 943 32 b 882 191 890 69 882 127 b 883 263 882 215 883 239 b 744 500 883 354 870 446 z m 769 724 b 571 550 769 604 708 550 l 258 550 l 258 899 l 571 899 b 769 724 679 899 769 868 z "},"S":{"ha":926,"x_min":0,"x_max":0,"o":"m 475 82 b 189 315 246 82 189 213 l 189 322 l 67 322 b 467 -32 71 35 292 -32 b 863 278 783 -32 863 154 b 647 532 863 403 785 494 l 393 600 b 226 750 271 633 226 672 b 453 921 226 853 317 921 b 706 715 614 921 704 847 l 828 715 b 457 1029 826 914 690 1029 b 97 732 235 1029 97 915 b 296 496 97 608 163 531 l 547 429 b 733 265 675 396 733 344 b 475 82 733 193 694 82 z "},"T":{"ha":849,"x_min":0,"x_max":0,"o":"m 492 899 l 824 899 l 824 1013 l 29 1013 l 29 899 l 363 899 l 363 0 l 492 0 z "},"U":{"ha":1003,"x_min":0,"x_max":0,"o":"m 767 1013 l 767 301 b 506 82 767 165 668 82 b 247 301 357 82 247 149 l 247 1013 l 118 1013 l 118 301 b 506 -32 118 96 265 -32 b 896 301 743 -32 896 99 l 896 1013 z "},"V":{"ha":926,"x_min":0,"x_max":0,"o":"m 544 0 l 896 1013 l 758 1013 l 478 156 l 181 1013 l 42 1013 l 406 0 z "},"W":{"ha":1311,"x_min":0,"x_max":0,"o":"m 1033 0 l 1290 1013 l 1146 1013 l 960 190 l 729 1013 l 590 1013 l 365 190 l 175 1013 l 31 1013 l 290 0 l 432 0 l 658 832 l 892 0 z "},"X":{"ha":926,"x_min":0,"x_max":0,"o":"m 543 519 l 885 1013 l 731 1013 l 469 615 l 210 1013 l 53 1013 l 389 519 l 31 0 l 188 0 l 465 422 l 742 0 l 901 0 z "},"Y":{"ha":926,"x_min":0,"x_max":0,"o":"m 538 397 l 918 1013 l 764 1013 l 475 519 l 178 1013 l 18 1013 l 408 397 l 408 0 l 538 0 z "},"Z":{"ha":849,"x_min":0,"x_max":0,"o":"m 807 1013 l 78 1013 l 78 899 l 647 899 l 39 114 l 39 0 l 810 0 l 810 114 l 201 114 l 807 896 z "},"[":{"ha":386,"x_min":0,"x_max":0,"o":"m 347 1013 l 89 1013 l 89 -294 l 347 -294 l 347 -194 l 204 -194 l 204 913 l 347 913 z "},"\\":{"ha":386,"x_min":0,"x_max":0,"o":"m 65 1013 l -11 1013 l 318 -28 l 394 -28 z "},"]":{"ha":385,"x_min":0,"x_max":0,"o":"m 31 -294 l 289 -294 l 289 1013 l 31 1013 l 31 913 l 174 913 l 174 -194 l 31 -194 z "},"^":{"ha":651,"x_min":0,"x_max":0,"o":"m 274 985 l 61 457 l 157 457 l 325 874 l 494 457 l 590 457 l 375 985 z "},"_":{"ha":772,"x_min":0,"x_max":0,"o":"m 803 -175 l -31 -175 l -31 -244 l 803 -244 z "},"`":{"ha":463,"x_min":0,"x_max":0,"o":"m 188 1028 l 31 1028 l 238 822 l 321 822 z "},"a":{"ha":772,"x_min":0,"x_max":0,"o":"m 90 513 l 207 513 b 378 642 217 601 269 642 b 540 533 482 642 540 603 l 540 503 b 419 422 540 454 511 433 b 58 183 207 394 58 378 b 297 -32 58 51 150 -32 b 544 75 389 -32 463 0 b 664 -32 553 1 589 -32 b 743 -19 688 -32 706 -29 l 743 68 b 718 65 731 65 725 65 b 656 122 678 65 656 86 l 656 550 b 382 749 656 679 561 749 b 90 513 251 749 97 710 z m 322 69 b 179 186 232 69 179 113 b 540 360 179 346 422 306 l 540 229 b 322 69 540 160 460 69 z "},"b":{"ha":772,"x_min":0,"x_max":0,"o":"m 75 1013 l 75 0 l 179 0 l 179 93 b 410 -32 235 8 308 -32 b 726 367 601 -32 726 125 b 415 749 726 603 607 749 b 190 629 315 749 244 711 l 190 1013 z m 393 640 b 606 354 522 640 606 528 b 393 76 606 189 519 76 b 190 358 271 76 190 188 b 393 640 190 529 271 640 z "},"c":{"ha":694,"x_min":0,"x_max":0,"o":"m 654 483 b 367 749 640 657 533 749 b 43 351 171 749 43 593 b 365 -32 43 117 168 -32 b 663 250 539 -32 649 72 l 546 250 b 368 75 526 133 467 75 b 164 351 240 75 164 179 b 365 642 164 533 239 642 b 538 483 463 642 524 585 z "},"d":{"ha":772,"x_min":0,"x_max":0,"o":"m 688 1013 l 572 1013 l 572 636 b 349 749 524 710 446 749 b 36 365 160 749 36 597 b 353 -32 36 119 157 -32 b 585 96 453 -32 522 6 l 585 0 l 688 0 z m 368 640 b 572 356 493 640 572 529 b 369 76 572 188 492 76 b 157 358 242 76 157 189 b 368 640 157 528 242 640 z "},"e":{"ha":772,"x_min":0,"x_max":0,"o":"m 713 325 b 683 557 713 436 704 503 b 389 749 636 676 525 749 b 56 354 186 749 56 593 b 386 -32 56 115 182 -32 b 697 221 553 -32 668 63 l 581 221 b 390 75 549 125 483 75 b 215 169 317 75 254 108 b 176 325 188 211 178 253 z m 179 419 b 388 642 189 554 271 642 b 589 428 501 642 589 547 b 588 419 589 425 589 422 z "},"f":{"ha":386,"x_min":0,"x_max":0,"o":"m 358 728 l 238 728 l 238 842 b 318 915 238 890 265 915 b 358 914 328 915 332 915 l 358 1010 b 293 1017 332 1015 317 1017 b 122 851 186 1017 122 956 l 122 728 l 25 728 l 25 633 l 122 633 l 122 0 l 238 0 l 238 633 l 358 633 z "},"g":{"ha":772,"x_min":0,"x_max":0,"o":"m 340 -32 b 561 99 432 -32 496 7 l 561 61 b 358 -206 561 -106 522 -206 b 182 -83 322 -206 201 -201 l 64 -83 b 354 -303 76 -221 183 -303 b 679 119 631 -303 679 -133 l 679 728 l 572 728 l 572 622 b 350 749 514 708 443 749 b 40 351 165 749 40 588 b 340 -32 40 114 175 -32 z m 363 642 b 561 354 488 642 561 536 b 364 75 561 181 486 75 b 161 358 238 75 161 182 b 363 642 161 533 239 642 z "},"h":{"ha":772,"x_min":0,"x_max":0,"o":"m 560 504 l 560 0 l 675 0 l 675 550 b 446 749 675 672 588 749 b 213 628 343 749 281 717 l 213 1013 l 97 1013 l 97 0 l 213 0 l 213 401 b 410 647 213 550 290 647 b 560 504 469 647 560 618 z "},"i":{"ha":308,"x_min":0,"x_max":0,"o":"m 208 728 l 93 728 l 93 0 l 208 0 z m 208 1013 l 92 1013 l 92 867 l 208 867 z "},"j":{"ha":308,"x_min":0,"x_max":0,"o":"m 97 728 l 97 -106 b 7 -203 97 -178 75 -203 b -25 -200 -3 -203 -15 -202 l -25 -299 b 14 -303 -11 -301 -4 -303 b 213 -151 144 -303 213 -250 l 213 728 z m 213 1013 l 97 1013 l 97 867 l 213 867 z "},"k":{"ha":694,"x_min":0,"x_max":0,"o":"m 196 1013 l 81 1013 l 81 0 l 196 0 l 196 283 l 308 394 l 554 0 l 697 0 l 400 476 l 653 728 l 504 728 l 196 419 z "},"l":{"ha":308,"x_min":0,"x_max":0,"o":"m 211 1013 l 94 1013 l 94 0 l 211 0 z "},"m":{"ha":1157,"x_min":0,"x_max":0,"o":"m 97 728 l 97 0 l 214 0 l 214 457 b 385 647 214 563 290 647 b 519 501 471 647 519 594 l 519 0 l 636 0 l 636 457 b 807 647 636 563 713 647 b 942 501 892 647 942 593 l 942 0 l 1058 0 l 1058 546 b 847 749 1058 676 983 749 b 624 638 750 749 692 719 b 428 749 581 715 522 749 b 204 625 331 749 267 713 l 204 728 z "},"n":{"ha":772,"x_min":0,"x_max":0,"o":"m 97 728 l 97 0 l 214 0 l 214 401 b 411 647 214 550 292 647 b 561 504 503 647 561 592 l 561 0 l 676 0 l 676 550 b 446 749 676 671 586 749 b 204 606 338 749 268 707 l 204 728 z "},"o":{"ha":772,"x_min":0,"x_max":0,"o":"m 378 749 b 50 358 174 749 50 603 b 379 -32 50 114 172 -32 b 708 353 583 -32 708 114 b 378 749 708 604 588 749 z m 379 642 b 588 354 510 642 588 535 b 379 75 588 183 507 75 b 171 358 250 75 171 182 b 379 642 171 533 250 642 z "},"p":{"ha":772,"x_min":0,"x_max":0,"o":"m 75 -303 l 192 -303 l 192 76 b 415 -32 253 1 321 -32 b 726 351 603 -32 726 119 b 414 749 726 596 607 749 b 182 618 315 749 236 704 l 182 728 l 75 728 z m 394 640 b 606 354 522 640 606 528 b 394 76 606 189 521 76 b 192 358 272 76 192 188 b 394 640 192 529 272 640 z "},"q":{"ha":772,"x_min":0,"x_max":0,"o":"m 688 -303 l 688 728 l 585 728 l 585 631 b 353 749 531 707 449 749 b 36 350 161 749 36 592 b 347 -32 36 114 156 -32 b 572 83 449 -32 518 4 l 572 -303 z m 369 640 b 572 354 493 640 572 529 b 369 76 572 188 492 76 b 157 358 242 76 157 189 b 369 640 157 526 242 640 z "},"r":{"ha":463,"x_min":0,"x_max":0,"o":"m 446 626 l 446 744 b 401 749 426 747 417 749 b 203 596 326 749 269 704 l 203 728 l 96 728 l 96 0 l 213 0 l 213 378 b 446 626 213 582 306 624 z "},"s":{"ha":694,"x_min":0,"x_max":0,"o":"m 169 217 l 47 217 b 338 -32 53 49 147 -32 b 638 199 521 -32 638 58 b 432 401 638 307 576 367 l 321 428 b 186 532 226 450 186 481 b 340 642 186 599 246 642 b 486 525 433 642 483 601 l 608 525 b 344 749 607 668 513 749 b 65 526 175 749 65 661 b 296 317 65 413 124 358 l 404 290 b 517 189 485 271 517 242 b 347 75 517 121 449 75 b 169 217 206 75 179 146 z "},"t":{"ha":386,"x_min":0,"x_max":0,"o":"m 353 728 l 233 728 l 233 928 l 118 928 l 118 728 l 19 728 l 19 633 l 118 633 l 118 83 b 258 -32 118 10 168 -32 b 353 -22 286 -32 314 -29 l 353 75 b 297 69 338 71 319 69 b 233 135 247 69 233 83 l 233 633 l 353 633 z "},"u":{"ha":772,"x_min":0,"x_max":0,"o":"m 669 0 l 669 728 l 554 728 l 554 315 b 356 69 554 167 476 69 b 206 213 264 69 206 125 l 206 728 l 90 728 l 90 167 b 322 -32 90 46 181 -32 b 565 101 429 -32 497 6 l 565 0 z "},"v":{"ha":694,"x_min":0,"x_max":0,"o":"m 396 0 l 675 728 l 544 728 l 339 138 l 144 728 l 14 728 l 269 0 z "},"w":{"ha":1003,"x_min":0,"x_max":0,"o":"m 769 0 l 983 728 l 853 728 l 708 161 l 565 728 l 424 728 l 285 161 l 136 728 l 8 728 l 219 0 l 350 0 l 490 571 l 638 0 z "},"x":{"ha":694,"x_min":0,"x_max":0,"o":"m 406 376 l 650 728 l 519 728 l 344 464 l 169 728 l 38 728 l 281 371 l 24 0 l 156 0 l 340 279 l 522 0 l 657 0 z "},"y":{"ha":694,"x_min":0,"x_max":0,"o":"m 539 728 l 338 161 l 151 728 l 28 728 l 274 -3 l 229 -118 b 136 -189 210 -169 185 -189 b 75 -181 119 -189 100 -186 l 75 -285 b 153 -303 99 -297 122 -303 b 340 -153 232 -303 300 -260 l 664 728 z "},"z":{"ha":694,"x_min":0,"x_max":0,"o":"m 615 728 l 72 728 l 72 626 l 478 626 l 43 104 l 43 0 l 635 0 l 635 101 l 183 101 l 615 625 z "},"{":{"ha":464,"x_min":0,"x_max":0,"o":"m 383 1013 l 319 1013 b 168 831 224 1013 168 946 l 168 599 b 60 407 168 469 142 424 l 60 311 b 168 119 142 294 168 247 l 168 -112 b 319 -294 168 -228 224 -294 l 383 -294 l 383 -204 l 363 -204 b 275 -111 294 -204 275 -183 l 275 140 b 161 360 275 256 239 324 b 275 578 246 393 275 450 l 275 829 b 363 922 275 901 294 922 l 383 922 z "},"|":{"ha":361,"x_min":0,"x_max":0,"o":"m 139 1013 l 139 -294 l 222 -294 l 222 1013 z "},"}":{"ha":464,"x_min":0,"x_max":0,"o":"m 40 -294 l 106 -294 b 258 -112 203 -294 258 -228 l 258 119 b 364 311 258 247 285 294 l 364 407 b 258 599 285 424 258 471 l 258 831 b 106 1013 258 946 203 1013 l 40 1013 l 40 922 l 63 922 b 151 829 132 922 151 901 l 151 578 b 265 358 151 464 188 394 b 151 140 188 324 151 256 l 151 -111 b 63 -204 151 -183 132 -204 l 40 -204 z "},"~":{"ha":811,"x_min":0,"x_max":0,"o":"m 251 515 b 311 496 265 515 297 504 l 447 408 b 560 372 483 386 525 372 b 706 571 647 372 706 427 l 632 571 b 561 467 632 507 621 467 b 492 490 542 467 519 474 l 329 586 b 254 608 306 600 279 608 b 104 407 164 608 111 538 l 178 407 b 251 515 181 444 192 515 z "}," ":{"ha":386,"x_min":0,"x_max":0,"o":""},"¡":{"ha":386,"x_min":0,"x_max":0,"o":"m 169 -285 l 285 -285 l 285 185 l 254 494 l 200 494 l 169 185 z m 169 583 l 286 583 l 286 728 l 169 728 z "},"¢":{"ha":772,"x_min":0,"x_max":0,"o":"m 433 642 b 583 483 518 635 574 576 l 700 483 b 433 749 692 642 596 738 l 433 872 l 375 872 l 375 747 b 72 351 188 728 72 578 b 375 -31 72 131 188 -14 l 375 -167 l 433 -167 l 433 -32 b 708 250 594 -24 699 83 l 592 250 b 433 74 575 140 522 83 z m 375 76 b 193 351 260 94 193 194 b 375 640 193 519 256 618 z "},"£":{"ha":772,"x_min":0,"x_max":0,"o":"m 204 726 b 400 904 204 833 282 904 b 589 690 521 904 585 833 l 711 690 b 406 1013 707 968 524 1013 b 75 715 219 1013 75 883 b 149 522 75 654 85 628 l 36 522 l 36 446 l 189 446 b 222 338 210 411 222 372 b 49 72 222 253 176 182 l 115 -19 b 267 32 168 15 218 32 b 561 -32 368 32 444 -32 b 743 46 633 -32 688 -8 l 685 138 b 569 96 644 110 606 96 b 346 139 497 96 435 139 b 176 85 286 139 231 121 b 340 347 301 211 340 275 b 319 446 340 374 333 406 l 508 446 l 508 522 l 286 522 b 204 726 250 596 204 640 z "},"¤":{"ha":772,"x_min":0,"x_max":0,"o":"m 674 264 l 599 339 b 639 474 625 382 639 426 b 603 603 639 518 625 568 l 679 679 l 600 760 l 518 686 b 382 725 482 711 433 725 b 247 689 332 725 288 713 l 171 765 l 93 692 l 168 615 b 124 474 140 576 124 524 b 168 332 124 424 140 369 l 101 264 l 179 185 l 250 256 b 381 221 286 233 335 221 b 519 263 435 221 482 235 l 593 189 z m 381 618 b 529 471 464 618 529 553 b 382 328 529 393 461 328 b 233 472 300 328 233 393 b 381 618 233 553 300 618 z "},"¥":{"ha":772,"x_min":0,"x_max":0,"o":"m 688 492 l 478 492 l 757 985 l 639 985 l 390 538 l 133 985 l 15 985 l 300 492 l 90 492 l 90 421 l 329 421 l 329 314 l 90 314 l 90 243 l 329 243 l 329 0 l 451 0 l 451 243 l 688 243 l 688 314 l 451 314 l 451 421 l 688 421 z "},"¦":{"ha":361,"x_min":0,"x_max":0,"o":"m 139 1013 l 139 456 l 222 456 l 222 1013 z m 139 263 l 139 -294 l 222 -294 l 222 263 z "},"§":{"ha":772,"x_min":0,"x_max":0,"o":"m 225 -19 l 107 -19 b 365 -296 107 -254 265 -296 b 625 -62 514 -296 625 -196 b 551 101 625 -3 607 39 b 703 318 651 139 703 213 b 551 550 703 418 664 478 l 349 681 b 269 788 290 719 269 747 b 393 906 269 856 322 906 b 528 764 475 906 528 850 l 528 728 l 644 728 l 644 767 b 401 1013 644 914 546 1013 b 144 783 257 1013 144 911 b 206 642 144 731 163 692 b 60 433 103 588 60 525 b 188 215 60 343 97 278 l 424 53 b 500 -69 478 15 500 -21 b 367 -189 500 -140 446 -189 b 225 -19 310 -189 225 -164 z m 261 318 b 169 456 188 372 169 400 b 268 596 169 511 196 549 l 492 444 b 593 289 560 397 593 346 b 492 147 593 233 557 182 z "},"¨":{"ha":463,"x_min":0,"x_max":0,"o":"m 428 994 l 283 994 l 283 850 l 428 850 z m 179 994 l 35 994 l 35 850 l 179 850 z "},"©":{"ha":1024,"x_min":0,"x_max":0,"o":"m 767 433 l 668 433 b 521 261 650 321 599 261 b 347 497 414 261 347 368 b 521 736 347 643 415 736 b 657 607 594 736 633 699 l 756 607 b 525 822 722 754 649 822 b 251 496 361 822 251 690 b 521 175 251 307 361 175 b 767 433 718 175 751 360 z m 513 1031 b -18 500 219 1031 -18 793 b 506 -31 -18 211 221 -31 b 1043 501 806 -31 1043 204 b 513 1031 1043 793 806 1031 z m 513 944 b 949 501 753 944 949 744 b 507 56 949 253 754 56 b 76 500 272 56 76 258 b 513 944 76 744 272 944 z "},"ª":{"ha":514,"x_min":0,"x_max":0,"o":"m 444 492 l 60 492 l 60 421 l 444 421 z m 463 624 b 449 619 457 621 453 619 b 417 651 428 619 417 631 l 417 900 b 247 1031 417 988 360 1031 b 68 881 133 1031 71 979 l 150 881 b 244 958 160 940 182 958 b 338 897 304 958 338 936 l 338 879 b 269 833 338 849 322 838 b 51 688 99 821 51 775 b 196 554 51 606 107 554 b 342 614 250 554 296 574 b 418 554 350 571 372 554 b 463 563 435 554 444 556 z m 338 789 l 338 718 b 211 626 338 669 279 626 b 132 692 161 626 132 650 b 338 789 132 783 260 756 z "},"«":{"ha":622,"x_min":0,"x_max":0,"o":"m 63 315 l 274 147 l 274 263 l 126 378 l 274 493 l 274 608 l 63 439 z m 347 315 l 558 147 l 558 263 l 411 378 l 558 493 l 558 608 l 347 439 z "},"¬":{"ha":811,"x_min":0,"x_max":0,"o":"m 56 521 l 56 424 l 658 424 l 658 119 l 756 119 l 756 521 z "},"­":{"ha":463,"x_min":0,"x_max":0,"o":"m 394 433 l 64 433 l 64 333 l 394 333 z "},"®":{"ha":1024,"x_min":0,"x_max":0,"o":"m 688 500 b 763 638 744 542 763 574 b 567 813 763 756 699 813 l 281 813 l 281 194 l 378 194 l 378 451 l 564 451 b 653 357 626 451 653 424 l 651 301 b 651 294 651 299 651 296 b 672 194 651 258 661 222 l 782 194 l 782 229 b 750 315 754 249 750 280 b 751 366 750 331 751 348 b 688 500 751 414 743 464 z m 378 539 l 378 725 l 557 725 b 661 632 631 725 661 697 b 557 539 661 568 629 539 z m 513 1031 b -18 500 219 1031 -18 793 b 506 -31 -18 211 221 -31 b 1043 501 806 -31 1043 204 b 513 1031 1043 793 806 1031 z m 513 944 b 949 501 753 944 949 744 b 507 56 949 253 754 56 b 76 500 272 56 76 258 b 513 944 76 744 272 944 z "},"¯":{"ha":463,"x_min":0,"x_max":0,"o":"m 419 974 l 39 974 l 39 876 l 419 876 z "},"°":{"ha":842,"x_min":0,"x_max":0,"o":"m 421 953 b 210 743 304 953 210 858 b 418 532 210 628 304 532 b 631 743 536 532 631 625 b 421 953 631 858 536 953 z m 421 874 b 551 743 493 874 551 815 b 418 611 551 669 493 611 b 289 743 349 611 289 671 b 421 874 289 814 349 874 z "},"±":{"ha":811,"x_min":0,"x_max":0,"o":"m 742 578 l 454 578 l 454 865 l 357 865 l 357 578 l 69 578 l 69 481 l 357 481 l 357 193 l 454 193 l 454 481 l 742 481 z m 742 82 l 69 82 l 69 -15 l 742 -15 z "},"²":{"ha":486,"x_min":0,"x_max":0,"o":"m 247 911 b 365 807 314 911 365 867 b 283 697 365 764 338 726 l 203 654 b 26 394 69 583 33 529 l 449 394 l 449 475 l 131 475 b 232 586 147 528 172 554 l 319 631 b 453 810 407 674 453 736 b 250 985 453 913 369 985 b 40 774 113 985 44 917 l 126 774 b 247 911 131 833 144 911 z "},"³":{"ha":486,"x_min":0,"x_max":0,"o":"m 235 911 b 340 817 300 911 340 875 b 188 732 340 751 307 732 l 188 661 b 279 658 236 661 258 661 b 360 561 328 650 360 611 b 235 449 360 490 313 449 b 108 572 151 449 113 486 l 22 572 b 232 375 22 447 99 375 b 447 561 363 375 447 449 b 349 700 447 632 415 678 b 428 818 400 724 428 764 b 235 985 428 921 354 985 b 35 788 106 985 38 918 l 122 788 b 235 911 122 861 143 911 z "},"´":{"ha":463,"x_min":0,"x_max":0,"o":"m 261 1028 l 128 822 l 211 822 l 418 1028 z "},"µ":{"ha":772,"x_min":0,"x_max":0,"o":"m 756 68 b 731 65 742 65 736 65 b 668 122 690 65 668 85 l 668 728 l 553 728 l 553 315 b 354 69 553 167 475 69 b 206 213 264 69 206 125 l 206 728 l 90 728 l 90 -306 l 206 -306 l 206 4 b 331 -32 240 -21 281 -32 b 557 83 425 -32 503 7 b 676 -32 560 4 597 -32 b 756 -19 701 -32 719 -29 z "},"¶":{"ha":746,"x_min":0,"x_max":0,"o":"m 354 360 l 354 -246 l 443 -246 l 443 924 l 557 924 l 557 -246 l 646 -246 l 646 924 l 725 924 l 725 1013 l 378 1013 b 67 679 203 1013 67 867 b 354 360 67 514 167 369 z "},"·":{"ha":386,"x_min":0,"x_max":0,"o":"m 265 460 l 121 460 l 121 315 l 265 315 z "},"¸":{"ha":463,"x_min":0,"x_max":0,"o":"m 83 -194 l 54 -250 b 228 -297 140 -287 174 -297 b 399 -168 333 -297 399 -247 b 289 -75 399 -108 358 -75 b 250 -78 278 -75 268 -75 l 282 0 l 229 0 l 171 -128 l 188 -137 b 231 -126 204 -129 214 -126 b 294 -178 271 -126 294 -146 b 219 -240 294 -214 263 -240 b 83 -194 168 -240 138 -218 z "},"¹":{"ha":486,"x_min":0,"x_max":0,"o":"m 233 806 l 233 394 l 319 394 l 319 985 l 260 985 b 117 871 236 896 217 881 l 96 869 l 96 806 z "},"º":{"ha":507,"x_min":0,"x_max":0,"o":"m 436 492 l 71 492 l 71 421 l 436 421 z m 253 1031 b 56 793 128 1031 56 943 b 253 554 56 642 128 554 b 450 789 376 554 450 642 b 253 1031 450 944 379 1031 z m 253 958 b 369 790 326 958 369 896 b 253 626 369 689 325 626 b 136 793 181 626 136 689 b 253 958 136 896 181 958 z "},"»":{"ha":622,"x_min":0,"x_max":0,"o":"m 560 440 l 349 608 l 349 493 l 496 378 l 349 263 l 349 147 l 560 317 z m 275 440 l 64 608 l 64 493 l 211 378 l 64 263 l 64 147 l 275 317 z "},"¼":{"ha":1207,"x_min":0,"x_max":0,"o":"m 222 806 l 222 394 l 308 394 l 308 985 l 249 985 b 106 871 225 896 206 881 l 85 869 l 85 806 z m 893 985 l 265 -28 l 346 -28 l 974 985 z m 1000 139 l 1000 0 l 1086 0 l 1086 139 l 1179 139 l 1179 213 l 1086 213 l 1086 590 l 1022 590 l 739 221 l 739 139 z m 1000 213 l 821 213 l 1000 449 z "},"½":{"ha":1207,"x_min":0,"x_max":0,"o":"m 222 806 l 222 394 l 308 394 l 308 985 l 249 985 b 106 871 225 896 206 881 l 85 869 l 85 806 z m 860 985 l 232 -28 l 313 -28 l 940 985 z m 967 517 b 1085 413 1033 517 1085 472 b 1003 303 1085 369 1057 332 l 922 260 b 746 0 789 189 753 135 l 1168 0 l 1168 81 l 850 81 b 951 192 867 133 892 160 l 1039 236 b 1172 415 1126 279 1172 342 b 969 590 1172 518 1089 590 b 760 379 832 590 764 522 l 846 379 b 967 517 850 439 864 517 z "},"¾":{"ha":1221,"x_min":0,"x_max":0,"o":"m 249 911 b 354 817 314 911 354 875 b 201 732 354 751 321 732 l 201 661 b 293 658 250 661 272 661 b 374 561 342 650 374 611 b 249 449 374 490 326 449 b 122 572 165 449 126 486 l 36 572 b 246 375 36 447 113 375 b 461 561 376 375 461 449 b 363 700 461 632 429 678 b 442 818 414 724 442 764 b 249 985 442 921 368 985 b 49 788 119 985 51 918 l 136 788 b 249 911 136 861 157 911 z m 889 985 l 261 -28 l 342 -28 l 969 985 z m 982 139 l 982 0 l 1068 0 l 1068 139 l 1161 139 l 1161 213 l 1068 213 l 1068 590 l 1004 590 l 721 221 l 721 139 z m 982 213 l 803 213 l 982 449 z "},"¿":{"ha":772,"x_min":0,"x_max":0,"o":"m 133 -35 b 429 -301 133 -197 249 -301 b 733 24 629 -301 733 -190 l 615 24 b 436 -193 615 -100 581 -193 b 258 -35 329 -193 258 -129 b 507 375 258 140 507 186 l 507 451 l 382 451 l 382 386 b 133 -35 382 221 133 194 z m 382 583 l 507 583 l 507 728 l 382 728 z "},"À":{"ha":926,"x_min":0,"x_max":0,"o":"m 421 1283 l 264 1283 l 471 1078 l 554 1078 z m 658 304 l 763 0 l 907 0 l 551 1013 l 385 1013 l 24 0 l 161 0 l 268 304 z m 622 413 l 300 413 l 467 874 z "},"Á":{"ha":926,"x_min":0,"x_max":0,"o":"m 514 1283 l 381 1078 l 464 1078 l 671 1283 z m 658 304 l 763 0 l 907 0 l 551 1013 l 385 1013 l 24 0 l 161 0 l 268 304 z m 622 413 l 300 413 l 467 874 z "},"Â":{"ha":926,"x_min":0,"x_max":0,"o":"m 400 1288 l 267 1079 l 356 1079 l 465 1213 l 578 1079 l 665 1079 l 532 1288 z m 658 304 l 763 0 l 907 0 l 551 1013 l 385 1013 l 24 0 l 161 0 l 268 304 z m 622 413 l 300 413 l 467 874 z "},"Ã":{"ha":926,"x_min":0,"x_max":0,"o":"m 369 1232 b 250 1089 308 1232 265 1181 l 331 1089 b 376 1140 339 1121 356 1140 b 563 1088 417 1140 511 1088 b 686 1232 631 1088 672 1136 l 606 1232 b 554 1181 594 1197 579 1181 b 369 1232 497 1181 438 1232 z m 658 304 l 763 0 l 907 0 l 551 1013 l 385 1013 l 24 0 l 161 0 l 268 304 z m 622 413 l 300 413 l 467 874 z "},"Ä":{"ha":926,"x_min":0,"x_max":0,"o":"m 669 1224 l 525 1224 l 525 1079 l 669 1079 z m 421 1224 l 276 1224 l 276 1079 l 421 1079 z m 658 306 l 763 1 l 907 1 l 551 1014 l 385 1014 l 24 1 l 161 1 l 268 306 z m 622 414 l 300 414 l 467 875 z "},"Å":{"ha":926,"x_min":0,"x_max":0,"o":"m 465 1341 b 319 1196 385 1341 319 1274 b 465 1049 319 1116 385 1049 b 612 1194 545 1049 612 1114 b 465 1341 612 1276 547 1341 z m 465 1256 b 526 1194 500 1256 526 1229 b 465 1135 526 1163 499 1135 b 404 1196 432 1135 404 1163 b 465 1256 404 1228 432 1256 z m 658 304 l 763 0 l 907 0 l 551 1013 l 385 1013 l 24 0 l 161 0 l 268 304 z m 622 413 l 300 413 l 467 874 z "},"Æ":{"ha":1389,"x_min":0,"x_max":0,"o":"m 650 297 l 650 0 l 1319 0 l 1319 114 l 779 114 l 779 461 l 1268 461 l 1268 575 l 779 575 l 779 899 l 1294 899 l 1294 1013 l 431 1013 l 15 0 l 158 0 l 276 297 z m 650 411 l 319 411 l 511 899 l 650 899 z "},"Ç":{"ha":1003,"x_min":0,"x_max":0,"o":"m 525 81 b 196 496 324 81 196 242 b 515 915 196 756 318 915 b 788 699 683 915 760 836 l 919 699 b 529 1029 879 921 751 1029 b 67 494 160 1029 67 706 b 267 40 67 297 140 131 b 474 -32 326 -1 368 -17 l 431 -128 l 446 -137 b 489 -126 463 -129 472 -126 b 553 -178 529 -126 553 -146 b 478 -240 553 -214 521 -240 b 342 -194 424 -240 386 -214 l 313 -250 b 486 -297 397 -287 433 -297 b 657 -168 592 -297 657 -247 b 547 -75 657 -108 617 -75 b 508 -78 536 -75 526 -75 l 526 -32 b 940 369 771 -32 910 104 l 807 369 b 525 81 775 174 694 81 z "},"È":{"ha":926,"x_min":0,"x_max":0,"o":"m 444 1279 l 288 1279 l 494 1074 l 578 1074 z m 254 461 l 806 461 l 806 575 l 254 575 l 254 899 l 826 899 l 826 1013 l 125 1013 l 125 0 l 851 0 l 851 114 l 254 114 z "},"É":{"ha":926,"x_min":0,"x_max":0,"o":"m 508 1285 l 375 1079 l 458 1079 l 665 1285 z m 254 461 l 806 461 l 806 575 l 254 575 l 254 899 l 826 899 l 826 1013 l 125 1013 l 125 0 l 851 0 l 851 114 l 254 114 z "},"Ê":{"ha":926,"x_min":0,"x_max":0,"o":"m 413 1286 l 279 1078 l 368 1078 l 478 1211 l 590 1078 l 678 1078 l 544 1286 z m 254 461 l 806 461 l 806 575 l 254 575 l 254 899 l 826 899 l 826 1013 l 125 1013 l 125 0 l 851 0 l 851 114 l 254 114 z "},"Ë":{"ha":926,"x_min":0,"x_max":0,"o":"m 678 1228 l 533 1228 l 533 1083 l 678 1083 z m 429 1228 l 285 1228 l 285 1083 l 429 1083 z m 254 461 l 806 461 l 806 575 l 254 575 l 254 899 l 826 899 l 826 1013 l 125 1013 l 125 0 l 851 0 l 851 114 l 254 114 z "},"Ì":{"ha":386,"x_min":0,"x_max":0,"o":"m 157 1285 l 0 1285 l 207 1079 l 290 1079 z m 269 1013 l 139 1013 l 139 0 l 269 0 z "},"Í":{"ha":386,"x_min":0,"x_max":0,"o":"m 232 1285 l 99 1079 l 182 1079 l 389 1285 z m 269 1013 l 139 1013 l 139 0 l 269 0 z "},"Î":{"ha":386,"x_min":0,"x_max":0,"o":"m 132 1285 l -1 1076 l 88 1076 l 197 1210 l 310 1076 l 397 1076 l 264 1285 z m 269 1013 l 139 1013 l 139 0 l 269 0 z "},"Ï":{"ha":386,"x_min":0,"x_max":0,"o":"m 406 1225 l 261 1225 l 261 1081 l 406 1081 z m 157 1225 l 13 1225 l 13 1081 l 157 1081 z m 269 1013 l 139 1013 l 139 0 l 269 0 z "},"Ð":{"ha":1003,"x_min":0,"x_max":0,"o":"m 124 471 l 124 0 l 515 0 b 926 507 771 0 926 192 b 515 1013 926 821 771 1013 l 124 1013 l 124 564 l 28 564 l 28 471 z m 253 471 l 490 471 l 490 564 l 253 564 l 253 899 l 493 899 b 797 507 692 899 797 764 b 493 114 797 249 692 114 l 253 114 z "},"Ñ":{"ha":1003,"x_min":0,"x_max":0,"o":"m 403 1208 b 283 1065 342 1208 299 1157 l 364 1065 b 410 1117 372 1097 389 1117 b 596 1064 450 1117 544 1064 b 719 1208 664 1064 706 1113 l 639 1208 b 588 1157 628 1174 613 1157 b 403 1208 531 1157 471 1208 z m 897 1013 l 775 1013 l 775 185 l 246 1013 l 106 1013 l 106 0 l 228 0 l 228 821 l 751 0 l 897 0 z "},"Ò":{"ha":1081,"x_min":0,"x_max":0,"o":"m 499 1281 l 342 1281 l 549 1075 l 632 1075 z m 1031 490 b 540 1029 1031 817 838 1029 b 53 499 250 1029 53 815 b 542 -32 53 182 250 -32 b 1031 490 844 -32 1031 199 z m 540 915 b 901 493 760 915 901 749 b 542 82 901 249 756 82 b 182 499 326 82 182 249 b 540 915 182 749 326 915 z "},"Ó":{"ha":1081,"x_min":0,"x_max":0,"o":"m 579 1282 l 446 1076 l 529 1076 l 736 1282 z m 1031 490 b 540 1029 1031 817 838 1029 b 53 499 250 1029 53 815 b 542 -32 53 182 250 -32 b 1031 490 844 -32 1031 199 z m 540 915 b 901 493 760 915 901 749 b 542 82 901 249 756 82 b 182 499 326 82 182 249 b 540 915 182 749 326 915 z "},"Ô":{"ha":1081,"x_min":0,"x_max":0,"o":"m 476 1289 l 343 1081 l 432 1081 l 542 1214 l 654 1081 l 742 1081 l 608 1289 z m 1031 490 b 540 1029 1031 817 838 1029 b 53 499 250 1029 53 815 b 542 -32 53 182 250 -32 b 1031 490 844 -32 1031 199 z m 540 915 b 901 493 760 915 901 749 b 542 82 901 249 756 82 b 182 499 326 82 182 249 b 540 915 182 749 326 915 z "},"Õ":{"ha":1081,"x_min":0,"x_max":0,"o":"m 442 1225 b 322 1082 381 1225 338 1174 l 403 1082 b 449 1133 411 1114 428 1133 b 635 1081 489 1133 583 1081 b 758 1225 703 1081 744 1129 l 678 1225 b 626 1174 667 1190 651 1174 b 442 1225 569 1174 510 1225 z m 1031 490 b 540 1029 1031 817 838 1029 b 53 499 250 1029 53 815 b 542 -32 53 182 250 -32 b 1031 490 844 -32 1031 199 z m 540 915 b 901 493 760 915 901 749 b 542 82 901 249 756 82 b 182 499 326 82 182 249 b 540 915 182 749 326 915 z "},"Ö":{"ha":1081,"x_min":0,"x_max":0,"o":"m 742 1228 l 597 1228 l 597 1083 l 742 1083 z m 493 1228 l 349 1228 l 349 1083 l 493 1083 z m 1031 490 b 540 1029 1031 817 838 1029 b 53 499 250 1029 53 815 b 542 -32 53 182 250 -32 b 1031 490 844 -32 1031 199 z m 540 915 b 901 493 760 915 901 749 b 542 82 901 249 756 82 b 182 499 326 82 182 249 b 540 915 182 749 326 915 z "},"×":{"ha":811,"x_min":0,"x_max":0,"o":"m 608 593 l 404 390 l 201 592 l 133 524 l 336 321 l 132 117 l 201 49 l 404 251 l 608 47 l 678 117 l 474 321 l 676 524 z "},"Ø":{"ha":1081,"x_min":0,"x_max":0,"o":"m 42 26 l 96 -24 l 203 93 b 538 -32 294 8 403 -32 b 1026 497 829 -32 1026 182 b 910 864 1026 639 985 769 l 1033 999 l 978 1049 l 857 917 b 538 1029 771 992 664 1029 b 49 500 246 1029 49 815 b 154 150 49 365 85 247 z m 242 244 b 178 500 200 317 178 404 b 538 915 178 749 322 915 b 775 826 628 915 708 885 z m 824 769 b 897 497 872 694 897 601 b 538 82 897 249 753 82 b 286 185 439 82 354 117 z "},"Ù":{"ha":1003,"x_min":0,"x_max":0,"o":"m 464 1283 l 307 1283 l 514 1078 l 597 1078 z m 767 1013 l 767 301 b 506 82 767 165 668 82 b 247 301 357 82 247 149 l 247 1013 l 118 1013 l 118 301 b 506 -32 118 96 265 -32 b 896 301 743 -32 896 99 l 896 1013 z "},"Ú":{"ha":1003,"x_min":0,"x_max":0,"o":"m 538 1283 l 404 1078 l 488 1078 l 694 1283 z m 767 1013 l 767 301 b 506 82 767 165 668 82 b 247 301 357 82 247 149 l 247 1013 l 118 1013 l 118 301 b 506 -32 118 96 265 -32 b 896 301 743 -32 896 99 l 896 1013 z "},"Û":{"ha":1003,"x_min":0,"x_max":0,"o":"m 442 1285 l 308 1076 l 397 1076 l 507 1210 l 619 1076 l 707 1076 l 574 1285 z m 767 1013 l 767 301 b 506 82 767 165 668 82 b 247 301 357 82 247 149 l 247 1013 l 118 1013 l 118 301 b 506 -32 118 96 265 -32 b 896 301 743 -32 896 99 l 896 1013 z "},"Ü":{"ha":1003,"x_min":0,"x_max":0,"o":"m 767 1013 l 767 301 b 506 82 767 165 668 82 b 247 301 357 82 247 149 l 247 1013 l 118 1013 l 118 301 b 506 -32 118 96 265 -32 b 896 301 743 -32 896 99 l 896 1013 z m 708 1224 l 564 1224 l 564 1079 l 708 1079 z m 460 1224 l 315 1224 l 315 1079 l 460 1079 z "},"Ý":{"ha":926,"x_min":0,"x_max":0,"o":"m 507 1282 l 374 1076 l 457 1076 l 664 1282 z m 538 397 l 918 1013 l 764 1013 l 475 519 l 178 1013 l 18 1013 l 408 397 l 408 0 l 538 0 z "},"Þ":{"ha":925,"x_min":0,"x_max":0,"o":"m 256 263 l 574 263 b 856 551 739 263 856 382 b 544 846 856 735 738 846 l 256 846 l 256 1013 l 126 1013 l 126 0 l 256 0 z m 256 376 l 256 732 l 525 732 b 717 554 646 732 717 665 b 525 376 717 443 646 376 z "},"ß":{"ha":849,"x_min":0,"x_max":0,"o":"m 408 593 l 408 492 l 431 492 b 667 297 572 492 667 443 b 431 89 667 157 582 89 b 369 93 411 89 390 90 l 369 -11 b 443 -21 389 -15 403 -21 b 793 325 642 -21 793 79 b 632 556 793 408 735 528 b 746 761 664 576 746 626 b 414 1011 746 913 619 1011 b 93 739 206 1011 93 899 l 93 0 l 215 0 l 215 708 b 413 906 215 826 256 906 b 624 750 553 906 624 840 b 408 593 624 668 575 593 z "},"à":{"ha":772,"x_min":0,"x_max":0,"o":"m 347 1011 l 190 1011 l 397 806 l 481 806 z m 90 513 l 207 513 b 378 642 217 601 269 642 b 540 533 482 642 540 603 l 540 503 b 419 422 540 454 511 433 b 58 183 207 394 58 378 b 297 -32 58 51 150 -32 b 544 75 389 -32 463 0 b 664 -32 553 1 589 -32 b 743 -19 688 -32 706 -29 l 743 68 b 718 65 731 65 725 65 b 656 122 678 65 656 86 l 656 550 b 382 749 656 679 561 749 b 90 513 251 749 97 710 z m 322 69 b 179 186 232 69 179 113 b 540 360 179 346 422 306 l 540 229 b 322 69 540 160 460 69 z "},"á":{"ha":772,"x_min":0,"x_max":0,"o":"m 421 1011 l 288 806 l 371 806 l 578 1011 z m 90 513 l 207 513 b 378 642 217 601 269 642 b 540 533 482 642 540 603 l 540 503 b 419 422 540 454 511 433 b 58 183 207 394 58 378 b 297 -32 58 51 150 -32 b 544 75 389 -32 463 0 b 664 -32 553 1 589 -32 b 743 -19 688 -32 706 -29 l 743 68 b 718 65 731 65 725 65 b 656 122 678 65 656 86 l 656 550 b 382 749 656 679 561 749 b 90 513 251 749 97 710 z m 322 69 b 179 186 232 69 179 113 b 540 360 179 346 422 306 l 540 229 b 322 69 540 160 460 69 z "},"â":{"ha":772,"x_min":0,"x_max":0,"o":"m 317 1010 l 183 801 l 272 801 l 382 935 l 494 801 l 582 801 l 449 1010 z m 90 513 l 207 513 b 378 642 217 601 269 642 b 540 533 482 642 540 603 l 540 503 b 419 422 540 454 511 433 b 58 183 207 394 58 378 b 297 -32 58 51 150 -32 b 544 75 389 -32 463 0 b 664 -32 553 1 589 -32 b 743 -19 688 -32 706 -29 l 743 68 b 718 65 731 65 725 65 b 656 122 678 65 656 86 l 656 550 b 382 749 656 679 561 749 b 90 513 251 749 97 710 z m 322 69 b 179 186 232 69 179 113 b 540 360 179 346 422 306 l 540 229 b 322 69 540 160 460 69 z "},"ã":{"ha":772,"x_min":0,"x_max":0,"o":"m 283 985 b 164 842 222 985 179 933 l 244 842 b 290 893 253 874 269 893 b 476 840 331 893 425 840 b 600 985 544 840 586 889 l 519 985 b 468 933 508 950 493 933 b 283 985 411 933 351 985 z m 90 513 l 207 513 b 378 642 217 601 269 642 b 540 533 482 642 540 603 l 540 503 b 419 422 540 454 511 433 b 58 183 207 394 58 378 b 297 -32 58 51 150 -32 b 544 75 389 -32 463 0 b 664 -32 553 1 589 -32 b 743 -19 688 -32 706 -29 l 743 68 b 718 65 731 65 725 65 b 656 122 678 65 656 86 l 656 550 b 382 749 656 679 561 749 b 90 513 251 749 97 710 z m 322 69 b 179 186 232 69 179 113 b 540 360 179 346 422 306 l 540 229 b 322 69 540 160 460 69 z "},"ä":{"ha":772,"x_min":0,"x_max":0,"o":"m 583 1010 l 439 1010 l 439 865 l 583 865 z m 335 1010 l 190 1010 l 190 865 l 335 865 z m 90 513 l 207 513 b 378 642 217 601 269 642 b 540 533 482 642 540 603 l 540 503 b 419 422 540 454 511 433 b 58 183 207 394 58 378 b 297 -32 58 51 150 -32 b 544 75 389 -32 463 0 b 664 -32 553 1 589 -32 b 743 -19 688 -32 706 -29 l 743 68 b 718 65 731 65 725 65 b 656 122 678 65 656 86 l 656 550 b 382 749 656 679 561 749 b 90 513 251 749 97 710 z m 322 69 b 179 186 232 69 179 113 b 540 360 179 346 422 306 l 540 229 b 322 69 540 160 460 69 z "},"å":{"ha":772,"x_min":0,"x_max":0,"o":"m 382 1072 b 235 927 302 1072 235 1005 b 382 780 235 847 302 780 b 529 925 462 780 529 845 b 382 1072 529 1007 464 1072 z m 382 986 b 443 925 417 986 443 960 b 382 865 443 893 415 865 b 321 926 349 865 321 893 b 382 986 321 958 349 986 z m 90 513 l 207 513 b 378 642 217 601 269 642 b 540 533 482 642 540 603 l 540 503 b 419 422 540 454 511 433 b 58 183 207 394 58 378 b 297 -32 58 51 150 -32 b 544 75 389 -32 463 0 b 664 -32 553 1 589 -32 b 743 -19 688 -32 706 -29 l 743 68 b 718 65 731 65 725 65 b 656 122 678 65 656 86 l 656 550 b 382 749 656 679 561 749 b 90 513 251 749 97 710 z m 322 69 b 179 186 232 69 179 113 b 540 360 179 346 422 306 l 540 229 b 322 69 540 160 460 69 z "},"æ":{"ha":1244,"x_min":0,"x_max":0,"o":"m 649 325 l 1185 325 b 1156 557 1185 436 1176 503 b 863 749 1108 675 997 749 b 622 635 763 749 672 706 b 379 749 579 710 497 749 b 90 513 253 749 97 710 l 207 513 b 376 642 217 601 269 642 b 540 533 483 642 540 604 l 540 503 b 419 421 540 449 514 429 b 58 183 207 403 58 365 b 292 -32 58 53 150 -32 b 592 121 400 -32 488 13 b 861 -32 600 107 660 -32 b 1171 221 1025 -32 1142 63 l 1054 221 b 863 75 1021 125 956 75 b 649 325 776 75 653 122 z m 318 69 b 179 186 232 69 179 114 b 540 358 179 346 403 299 l 540 218 b 318 69 540 188 467 69 z m 651 419 b 860 642 661 554 743 642 b 1060 419 978 642 1060 551 z "},"ç":{"ha":694,"x_min":0,"x_max":0,"o":"m 313 -29 l 269 -128 l 286 -137 b 329 -126 303 -129 313 -126 b 393 -178 369 -126 393 -146 b 318 -240 393 -214 361 -240 b 182 -194 263 -240 226 -214 l 153 -251 b 326 -297 242 -289 272 -297 b 497 -168 432 -297 497 -247 b 388 -75 497 -110 457 -75 b 349 -78 376 -75 368 -75 l 367 -32 b 663 250 538 -32 653 76 l 546 250 b 368 74 526 133 467 74 b 164 350 240 74 164 178 b 365 642 164 533 239 642 b 538 483 463 642 524 585 l 654 483 b 367 749 640 657 533 749 b 43 351 171 749 43 593 b 313 -29 43 283 51 19 z "},"è":{"ha":772,"x_min":0,"x_max":0,"o":"m 351 1014 l 194 1014 l 401 808 l 485 808 z m 713 325 b 683 557 713 436 704 503 b 389 749 636 676 525 749 b 56 354 186 749 56 593 b 386 -32 56 115 182 -32 b 697 221 553 -32 668 63 l 581 221 b 390 75 549 125 483 75 b 215 169 317 75 254 108 b 176 325 188 211 178 253 z m 179 419 b 388 642 189 554 271 642 b 589 428 501 642 589 547 b 588 419 589 425 589 422 z "},"é":{"ha":772,"x_min":0,"x_max":0,"o":"m 428 1014 l 294 808 l 378 808 l 585 1014 z m 713 325 b 683 557 713 436 704 503 b 389 749 636 676 525 749 b 56 354 186 749 56 593 b 386 -32 56 115 182 -32 b 697 221 553 -32 668 63 l 581 221 b 390 75 549 125 483 75 b 215 169 317 75 254 108 b 176 325 188 211 178 253 z m 179 419 b 388 642 189 554 271 642 b 589 428 501 642 589 547 b 588 419 589 425 589 422 z "},"ê":{"ha":772,"x_min":0,"x_max":0,"o":"m 332 1010 l 199 801 l 288 801 l 397 935 l 510 801 l 597 801 l 464 1010 z m 713 325 b 683 557 713 436 704 503 b 389 749 636 676 525 749 b 56 354 186 749 56 593 b 386 -32 56 115 182 -32 b 697 221 553 -32 668 63 l 581 221 b 390 75 549 125 483 75 b 215 169 317 75 254 108 b 176 325 188 211 178 253 z m 179 419 b 388 642 189 554 271 642 b 589 428 501 642 589 547 b 588 419 589 425 589 422 z "},"ë":{"ha":772,"x_min":0,"x_max":0,"o":"m 590 1010 l 446 1010 l 446 865 l 590 865 z m 342 1010 l 197 1010 l 197 865 l 342 865 z m 713 325 b 683 557 713 436 704 503 b 389 749 636 676 525 749 b 56 354 186 749 56 593 b 386 -32 56 115 182 -32 b 697 221 553 -32 668 63 l 581 221 b 390 75 549 125 483 75 b 215 169 317 75 254 108 b 176 325 188 211 178 253 z m 179 419 b 388 642 189 554 271 642 b 589 428 501 642 589 547 b 588 419 589 425 589 422 z "},"ì":{"ha":349,"x_min":0,"x_max":0,"o":"m 157 1014 l 0 1014 l 207 808 l 290 808 z m 232 728 l 117 728 l 117 0 l 232 0 z "},"í":{"ha":349,"x_min":0,"x_max":0,"o":"m 190 1014 l 57 808 l 140 808 l 347 1014 z m 232 728 l 117 728 l 117 0 l 232 0 z "},"î":{"ha":349,"x_min":0,"x_max":0,"o":"m 124 1013 l -10 804 l 79 804 l 189 938 l 301 804 l 389 804 l 256 1013 z m 232 728 l 117 728 l 117 0 l 232 0 z "},"ï":{"ha":349,"x_min":0,"x_max":0,"o":"m 371 1011 l 226 1011 l 226 867 l 371 867 z m 122 1011 l -22 1011 l -22 867 l 122 867 z m 232 728 l 117 728 l 117 0 l 232 0 z "},"ð":{"ha":772,"x_min":0,"x_max":0,"o":"m 50 358 b 379 -32 50 110 169 -32 b 708 360 589 -32 708 110 b 404 899 708 663 503 824 l 529 956 l 474 1007 l 339 944 b 185 1032 246 1004 228 1014 l 124 971 b 238 899 183 938 201 926 l 119 843 l 169 789 l 304 851 b 440 728 376 790 392 776 b 353 746 399 742 379 746 b 50 358 232 746 50 668 z m 379 642 b 588 354 510 642 588 535 b 379 75 588 183 507 75 b 171 358 250 75 171 183 b 379 642 171 533 250 642 z "},"ñ":{"ha":772,"x_min":0,"x_max":0,"o":"m 288 981 b 168 838 226 981 183 929 l 249 838 b 294 889 257 869 274 889 b 481 836 335 889 429 836 b 604 981 549 836 590 885 l 524 981 b 472 929 513 946 497 929 b 288 981 415 929 356 981 z m 97 728 l 97 0 l 214 0 l 214 401 b 411 647 214 550 292 647 b 561 504 503 647 561 592 l 561 0 l 676 0 l 676 550 b 446 749 676 671 586 749 b 204 606 338 749 268 707 l 204 728 z "},"ò":{"ha":772,"x_min":0,"x_max":0,"o":"m 339 1013 l 182 1013 l 389 807 l 472 807 z m 378 749 b 50 358 174 749 50 603 b 379 -32 50 114 172 -32 b 708 353 583 -32 708 114 b 378 749 708 604 588 749 z m 379 642 b 588 354 510 642 588 535 b 379 75 588 183 507 75 b 171 358 250 75 171 182 b 379 642 171 533 250 642 z "},"ó":{"ha":772,"x_min":0,"x_max":0,"o":"m 414 1014 l 281 808 l 364 808 l 571 1014 z m 378 749 b 50 358 174 749 50 603 b 379 -32 50 114 172 -32 b 708 353 583 -32 708 114 b 378 749 708 604 588 749 z m 379 642 b 588 354 510 642 588 535 b 379 75 588 183 507 75 b 171 358 250 75 171 182 b 379 642 171 533 250 642 z "},"ô":{"ha":772,"x_min":0,"x_max":0,"o":"m 314 1014 l 181 806 l 269 806 l 379 939 l 492 806 l 579 806 l 446 1014 z m 378 749 b 50 358 174 749 50 603 b 379 -32 50 114 172 -32 b 708 353 583 -32 708 114 b 378 749 708 604 588 749 z m 379 642 b 588 354 510 642 588 535 b 379 75 588 183 507 75 b 171 358 250 75 171 182 b 379 642 171 533 250 642 z "},"õ":{"ha":772,"x_min":0,"x_max":0,"o":"m 279 983 b 160 840 218 983 175 932 l 240 840 b 286 892 249 872 265 892 b 472 839 326 892 421 839 b 596 983 540 839 582 888 l 515 983 b 464 932 504 949 489 932 b 279 983 407 932 347 983 z m 378 749 b 50 358 174 749 50 603 b 379 -32 50 114 172 -32 b 708 353 583 -32 708 114 b 378 749 708 604 588 749 z m 379 642 b 588 354 510 642 588 535 b 379 75 588 183 507 75 b 171 358 250 75 171 182 b 379 642 171 533 250 642 z "},"ö":{"ha":772,"x_min":0,"x_max":0,"o":"m 579 1013 l 435 1013 l 435 868 l 579 868 z m 331 1013 l 186 1013 l 186 868 l 331 868 z m 378 749 b 50 358 174 749 50 603 b 379 -32 50 114 172 -32 b 708 353 583 -32 708 114 b 378 749 708 604 588 749 z m 379 642 b 588 354 510 642 588 535 b 379 75 588 183 507 75 b 171 358 250 75 171 182 b 379 642 171 533 250 642 z "},"÷":{"ha":811,"x_min":0,"x_max":0,"o":"m 742 376 l 69 376 l 69 279 l 742 279 z m 478 144 l 333 144 l 333 0 l 478 0 z m 478 656 l 333 656 l 333 511 l 478 511 z "},"ø":{"ha":849,"x_min":0,"x_max":0,"o":"m 735 710 l 690 749 l 610 658 b 379 749 547 721 475 749 b 50 358 174 749 50 603 b 117 100 50 250 71 168 l 25 -3 l 69 -42 l 154 54 b 381 -32 210 -3 288 -32 b 708 358 586 -32 708 114 b 647 611 708 464 689 542 z m 563 515 b 588 358 579 472 588 419 b 379 75 588 183 508 75 b 232 142 321 75 272 97 z m 200 196 b 171 358 181 242 171 293 b 379 642 171 533 250 642 b 532 569 440 642 496 615 z "},"ù":{"ha":772,"x_min":0,"x_max":0,"o":"m 338 1013 l 181 1013 l 388 807 l 471 807 z m 669 0 l 669 728 l 554 728 l 554 315 b 356 69 554 167 476 69 b 206 213 264 69 206 125 l 206 728 l 90 728 l 90 167 b 322 -32 90 46 181 -32 b 565 101 429 -32 497 6 l 565 0 z "},"ú":{"ha":772,"x_min":0,"x_max":0,"o":"m 411 1013 l 278 807 l 361 807 l 568 1013 z m 669 0 l 669 728 l 554 728 l 554 315 b 356 69 554 167 476 69 b 206 213 264 69 206 125 l 206 728 l 90 728 l 90 167 b 322 -32 90 46 181 -32 b 565 101 429 -32 497 6 l 565 0 z "},"û":{"ha":772,"x_min":0,"x_max":0,"o":"m 315 1013 l 182 804 l 271 804 l 381 938 l 493 804 l 581 804 l 447 1013 z m 669 0 l 669 728 l 554 728 l 554 315 b 356 69 554 167 476 69 b 206 213 264 69 206 125 l 206 728 l 90 728 l 90 167 b 322 -32 90 46 181 -32 b 565 101 429 -32 497 6 l 565 0 z "},"ü":{"ha":772,"x_min":0,"x_max":0,"o":"m 572 1013 l 428 1013 l 428 868 l 572 868 z m 324 1013 l 179 1013 l 179 868 l 324 868 z m 669 0 l 669 728 l 554 728 l 554 315 b 356 69 554 167 476 69 b 206 213 264 69 206 125 l 206 728 l 90 728 l 90 167 b 322 -32 90 46 181 -32 b 565 101 429 -32 497 6 l 565 0 z "},"ý":{"ha":694,"x_min":0,"x_max":0,"o":"m 374 1013 l 240 807 l 324 807 l 531 1013 z m 539 728 l 338 161 l 151 728 l 28 728 l 274 -3 l 229 -118 b 136 -189 210 -169 185 -189 b 75 -181 119 -189 100 -186 l 75 -285 b 153 -303 99 -297 122 -303 b 340 -153 232 -303 300 -260 l 664 728 z "},"þ":{"ha":771,"x_min":0,"x_max":0,"o":"m 75 -303 l 190 -303 l 190 76 b 414 -32 251 1 319 -32 b 725 351 601 -32 725 119 b 414 749 725 593 603 749 b 190 638 321 749 240 708 l 190 992 l 75 992 z m 393 640 b 604 354 521 640 604 528 b 393 76 604 189 519 76 b 190 358 271 76 190 188 b 393 640 190 529 271 640 z "},"ÿ":{"ha":694,"x_min":0,"x_max":0,"o":"m 547 1013 l 403 1013 l 403 868 l 547 868 z m 299 1013 l 154 1013 l 154 868 l 299 868 z m 539 728 l 338 161 l 151 728 l 28 728 l 274 -3 l 229 -118 b 136 -189 210 -169 185 -189 b 75 -181 119 -189 100 -186 l 75 -285 b 153 -303 99 -297 122 -303 b 340 -153 232 -303 300 -260 l 664 728 z "},"Ā":{"ha":926,"x_min":0,"x_max":0,"o":"m 658 1208 l 278 1208 l 278 1111 l 658 1111 z m 658 304 l 763 0 l 907 0 l 551 1013 l 385 1013 l 24 0 l 161 0 l 268 304 z m 622 413 l 300 413 l 467 874 z "},"ā":{"ha":772,"x_min":0,"x_max":0,"o":"m 572 929 l 192 929 l 192 832 l 572 832 z m 90 513 l 207 513 b 378 642 217 601 269 642 b 540 533 482 642 540 603 l 540 503 b 419 422 540 454 511 433 b 58 183 207 394 58 378 b 297 -32 58 51 150 -32 b 544 75 389 -32 463 0 b 664 -32 553 1 589 -32 b 743 -19 688 -32 706 -29 l 743 68 b 718 65 731 65 725 65 b 656 122 678 65 656 86 l 656 550 b 382 749 656 679 561 749 b 90 513 251 749 97 710 z m 322 69 b 179 186 232 69 179 113 b 540 360 179 346 422 306 l 540 229 b 322 69 540 160 460 69 z "},"Ă":{"ha":926,"x_min":0,"x_max":0,"o":"m 260 1263 b 467 1075 264 1108 382 1075 b 678 1263 596 1075 668 1139 l 596 1263 b 469 1171 590 1204 544 1171 b 342 1263 390 1171 349 1201 z m 658 304 l 763 0 l 907 0 l 551 1013 l 385 1013 l 24 0 l 161 0 l 268 304 z m 622 413 l 300 413 l 467 874 z "},"ă":{"ha":772,"x_min":0,"x_max":0,"o":"m 174 1010 b 381 822 178 856 296 822 b 592 1010 510 822 582 886 l 510 1010 b 383 918 504 951 458 918 b 256 1010 304 918 263 949 z m 90 513 l 207 513 b 378 642 217 601 269 642 b 540 533 482 642 540 603 l 540 503 b 419 422 540 454 511 433 b 58 183 207 394 58 378 b 297 -32 58 51 150 -32 b 544 75 389 -32 463 0 b 664 -32 553 1 589 -32 b 743 -19 688 -32 706 -29 l 743 68 b 718 65 731 65 725 65 b 656 122 678 65 656 86 l 656 550 b 382 749 656 679 561 749 b 90 513 251 749 97 710 z m 322 69 b 179 186 232 69 179 113 b 540 360 179 346 422 306 l 540 229 b 322 69 540 160 460 69 z "},"Ą":{"ha":926,"x_min":0,"x_max":0,"o":"m 856 -285 b 961 -271 882 -285 928 -278 l 961 -208 b 874 -222 936 -218 907 -222 b 774 -147 808 -222 774 -196 b 904 0 774 -89 803 -57 l 907 0 l 551 1013 l 385 1013 l 24 0 l 161 0 l 268 304 l 658 304 l 763 0 l 807 0 b 672 -154 722 -31 672 -87 b 856 -285 672 -235 754 -285 z m 622 413 l 300 413 l 467 874 z "},"ą":{"ha":772,"x_min":0,"x_max":0,"o":"m 93 513 l 210 513 b 379 642 218 601 271 642 b 542 533 485 642 542 604 l 542 503 b 422 422 542 453 513 433 b 60 183 226 397 60 381 b 299 -32 60 51 151 -32 b 546 75 390 -32 468 1 b 633 -32 551 14 581 -22 b 539 -156 564 -69 539 -103 b 729 -285 539 -254 657 -285 b 828 -271 751 -285 793 -279 l 828 -208 b 739 -222 803 -218 774 -222 b 639 -146 674 -222 639 -196 b 744 -19 639 -92 678 -46 l 744 68 b 719 65 732 65 726 65 b 657 122 679 65 657 86 l 657 550 b 383 749 657 679 563 749 b 93 513 253 749 100 710 z m 322 69 b 179 186 232 69 179 113 b 540 360 179 346 422 306 l 540 229 b 322 69 540 160 460 69 z "},"Ć":{"ha":1003,"x_min":0,"x_max":0,"o":"m 563 1285 l 429 1079 l 513 1079 l 719 1285 z m 67 494 b 524 -32 67 288 158 -32 b 940 369 771 -32 910 101 l 807 369 b 525 82 776 178 694 82 b 196 496 324 82 196 243 b 514 915 196 756 318 915 b 788 699 678 915 758 840 l 919 699 b 529 1029 879 921 751 1029 b 67 494 160 1029 67 706 z "},"ć":{"ha":694,"x_min":0,"x_max":0,"o":"m 414 1014 l 281 808 l 364 808 l 571 1014 z m 654 483 b 367 749 640 657 533 749 b 43 351 171 749 43 593 b 365 -32 43 117 168 -32 b 663 250 539 -32 649 72 l 546 250 b 368 75 526 133 467 75 b 164 351 240 75 164 179 b 365 642 164 533 239 642 b 538 483 463 642 524 585 z "},"Ĉ":{"ha":1003,"x_min":0,"x_max":0,"o":"m 449 1283 l 315 1075 l 404 1075 l 514 1208 l 626 1075 l 714 1075 l 581 1283 z m 67 494 b 524 -32 67 288 158 -32 b 940 369 771 -32 910 101 l 807 369 b 525 82 776 178 694 82 b 196 496 324 82 196 243 b 514 915 196 756 318 915 b 788 699 678 915 758 840 l 919 699 b 529 1029 879 921 751 1029 b 67 494 160 1029 67 706 z "},"ĉ":{"ha":694,"x_min":0,"x_max":0,"o":"m 299 983 l 165 775 l 254 775 l 364 908 l 476 775 l 564 775 l 431 983 z m 654 483 b 367 749 640 657 533 749 b 43 351 171 749 43 593 b 365 -32 43 117 168 -32 b 663 250 539 -32 649 72 l 546 250 b 368 75 526 133 467 75 b 164 351 240 75 164 179 b 365 642 164 533 239 642 b 538 483 463 642 524 585 z "},"Ċ":{"ha":1003,"x_min":0,"x_max":0,"o":"m 607 1250 l 463 1250 l 463 1106 l 607 1106 z m 67 494 b 524 -32 67 288 158 -32 b 940 369 771 -32 910 101 l 807 369 b 525 82 776 178 694 82 b 196 496 324 82 196 243 b 514 915 196 756 318 915 b 788 699 678 915 758 840 l 919 699 b 529 1029 879 921 751 1029 b 67 494 160 1029 67 706 z "},"ċ":{"ha":694,"x_min":0,"x_max":0,"o":"m 432 1013 l 288 1013 l 288 868 l 432 868 z m 654 483 b 367 749 640 657 533 749 b 43 351 171 749 43 593 b 365 -32 43 117 168 -32 b 663 250 539 -32 649 72 l 546 250 b 368 75 526 133 467 75 b 164 351 240 75 164 179 b 365 642 164 533 239 642 b 538 483 463 642 524 585 z "},"Č":{"ha":1003,"x_min":0,"x_max":0,"o":"m 594 1078 l 728 1286 l 639 1286 l 529 1153 l 417 1286 l 329 1286 l 463 1078 z m 67 494 b 524 -32 67 288 158 -32 b 940 369 771 -32 910 101 l 807 369 b 525 82 776 178 694 82 b 196 496 324 82 196 243 b 514 915 196 756 318 915 b 788 699 678 915 758 840 l 919 699 b 529 1029 879 921 751 1029 b 67 494 160 1029 67 706 z "},"č":{"ha":694,"x_min":0,"x_max":0,"o":"m 435 808 l 568 1017 l 479 1017 l 369 883 l 257 1017 l 169 1017 l 303 808 z m 654 483 b 367 749 640 657 533 749 b 43 351 171 749 43 593 b 365 -32 43 117 168 -32 b 663 250 539 -32 649 72 l 546 250 b 368 75 526 133 467 75 b 164 351 240 75 164 179 b 365 642 164 533 239 642 b 538 483 463 642 524 585 z "},"Ď":{"ha":1003,"x_min":0,"x_max":0,"o":"m 536 1078 l 669 1286 l 581 1286 l 471 1153 l 358 1286 l 271 1286 l 404 1078 z m 124 0 l 514 0 b 926 507 769 0 926 192 b 514 1013 926 821 771 1013 l 124 1013 z m 253 114 l 253 899 l 492 899 b 797 506 692 899 797 764 b 492 114 797 250 692 114 z "},"ď":{"ha":1003,"x_min":0,"x_max":0,"o":"m 813 1013 l 813 868 l 896 868 l 896 843 b 813 717 896 747 878 719 l 813 664 b 958 846 910 664 958 726 l 958 1013 z m 688 1013 l 572 1013 l 572 636 b 349 749 524 710 446 749 b 36 365 160 749 36 597 b 353 -32 36 119 157 -32 b 585 96 453 -32 522 6 l 585 0 l 688 0 z m 368 640 b 572 356 493 640 572 529 b 369 76 572 188 492 76 b 157 358 242 76 157 189 b 368 640 157 528 242 640 z "},"Đ":{"ha":1003,"x_min":0,"x_max":0,"o":"m 124 471 l 124 0 l 515 0 b 926 507 771 0 926 192 b 515 1013 926 821 771 1013 l 124 1013 l 124 564 l 28 564 l 28 471 z m 253 471 l 490 471 l 490 564 l 253 564 l 253 899 l 493 899 b 797 507 692 899 797 764 b 493 114 797 249 692 114 l 253 114 z "},"đ":{"ha":772,"x_min":0,"x_max":0,"o":"m 686 907 l 686 1013 l 571 1013 l 571 907 l 363 907 l 363 833 l 571 833 l 571 640 b 347 749 510 715 442 749 b 36 367 160 749 36 597 b 350 -32 36 126 161 -32 b 583 82 443 -32 517 4 l 583 0 l 686 0 l 686 833 l 774 833 l 774 907 z m 368 635 b 571 356 492 635 571 526 b 368 82 571 190 490 82 b 157 358 242 82 157 193 b 368 635 157 524 242 635 z "},"Ē":{"ha":926,"x_min":0,"x_max":0,"o":"m 667 1208 l 286 1208 l 286 1111 l 667 1111 z m 254 461 l 806 461 l 806 575 l 254 575 l 254 899 l 826 899 l 826 1013 l 125 1013 l 125 0 l 851 0 l 851 114 l 254 114 z "},"ē":{"ha":772,"x_min":0,"x_max":0,"o":"m 579 943 l 199 943 l 199 846 l 579 846 z m 713 325 b 683 557 713 436 704 503 b 389 749 636 676 525 749 b 56 354 186 749 56 593 b 386 -32 56 115 182 -32 b 697 221 553 -32 668 63 l 581 221 b 390 75 549 125 483 75 b 215 169 317 75 254 108 b 176 325 188 211 178 253 z m 179 419 b 388 642 189 554 271 642 b 589 428 501 642 589 547 b 588 419 589 425 589 422 z "},"Ĕ":{"ha":926,"x_min":0,"x_max":0,"o":"m 267 1257 b 474 1069 271 1103 389 1069 b 685 1257 603 1069 675 1133 l 603 1257 b 476 1165 597 1199 551 1165 b 349 1257 397 1165 356 1196 z m 254 461 l 806 461 l 806 575 l 254 575 l 254 899 l 826 899 l 826 1013 l 125 1013 l 125 0 l 851 0 l 851 114 l 254 114 z "},"ĕ":{"ha":772,"x_min":0,"x_max":0,"o":"m 179 1013 b 386 825 183 858 301 825 b 597 1013 515 825 588 889 l 515 1013 b 389 921 510 954 464 921 b 261 1013 310 921 268 951 z m 713 325 b 683 557 713 436 704 503 b 389 749 636 676 525 749 b 56 354 186 749 56 593 b 386 -32 56 115 182 -32 b 697 221 553 -32 668 63 l 581 221 b 390 75 549 125 483 75 b 215 169 317 75 254 108 b 176 325 188 211 178 253 z m 179 419 b 388 642 189 554 271 642 b 589 428 501 642 589 547 b 588 419 589 425 589 422 z "},"Ė":{"ha":926,"x_min":0,"x_max":0,"o":"m 549 1249 l 404 1249 l 404 1104 l 549 1104 z m 254 461 l 806 461 l 806 575 l 254 575 l 254 899 l 826 899 l 826 1013 l 125 1013 l 125 0 l 851 0 l 851 114 l 254 114 z "},"ė":{"ha":772,"x_min":0,"x_max":0,"o":"m 461 1013 l 317 1013 l 317 868 l 461 868 z m 713 325 b 683 557 713 436 704 503 b 389 749 636 676 525 749 b 56 354 186 749 56 593 b 386 -32 56 115 182 -32 b 697 221 553 -32 668 63 l 581 221 b 390 75 549 125 483 75 b 215 169 317 75 254 108 b 176 325 188 211 178 253 z m 179 419 b 388 642 189 554 271 642 b 589 428 501 642 589 547 b 588 419 589 425 589 422 z "},"Ę":{"ha":926,"x_min":0,"x_max":0,"o":"m 800 -285 b 906 -271 826 -285 872 -278 l 906 -208 b 818 -222 881 -218 851 -222 b 718 -147 753 -222 718 -196 b 849 0 718 -89 747 -57 l 851 0 l 851 114 l 254 114 l 254 461 l 806 461 l 806 575 l 254 575 l 254 899 l 826 899 l 826 1013 l 125 1013 l 125 0 l 751 0 b 617 -154 667 -31 617 -87 b 800 -285 617 -235 699 -285 z "},"ę":{"ha":772,"x_min":0,"x_max":0,"o":"m 699 221 l 582 221 b 390 75 549 125 483 75 b 176 325 307 75 181 122 l 713 325 l 713 346 b 683 557 713 444 703 507 b 389 749 638 676 525 749 b 56 353 186 749 56 593 b 388 -32 56 113 181 -32 b 482 -21 419 -32 440 -29 b 388 -161 458 -39 388 -82 b 581 -283 388 -235 464 -283 b 676 -271 611 -283 639 -279 l 676 -208 b 588 -222 651 -218 622 -222 b 488 -151 525 -222 488 -196 b 699 221 488 -7 661 15 z m 589 419 l 181 419 b 388 642 189 554 271 642 b 589 428 501 642 589 547 z "},"Ě":{"ha":926,"x_min":0,"x_max":0,"o":"m 544 1078 l 678 1286 l 589 1286 l 479 1153 l 367 1286 l 279 1286 l 413 1078 z m 254 461 l 806 461 l 806 575 l 254 575 l 254 899 l 826 899 l 826 1013 l 125 1013 l 125 0 l 851 0 l 851 114 l 254 114 z "},"ě":{"ha":772,"x_min":0,"x_max":0,"o":"m 464 806 l 597 1014 l 508 1014 l 399 881 l 286 1014 l 199 1014 l 332 806 z m 713 325 b 683 557 713 436 704 503 b 389 749 636 676 525 749 b 56 354 186 749 56 593 b 386 -32 56 115 182 -32 b 697 221 553 -32 668 63 l 581 221 b 390 75 549 125 483 75 b 215 169 317 75 254 108 b 176 325 188 211 178 253 z m 179 419 b 388 642 189 554 271 642 b 589 428 501 642 589 547 b 588 419 589 425 589 422 z "},"Ĝ":{"ha":1081,"x_min":0,"x_max":0,"o":"m 494 1253 l 361 1074 l 450 1074 l 560 1189 l 672 1074 l 760 1074 l 626 1253 z m 190 503 b 546 915 190 751 332 915 b 839 706 700 915 811 836 l 971 706 b 547 1029 935 911 779 1029 b 61 496 158 1029 61 699 b 525 -32 61 185 251 -32 b 871 129 663 -32 772 19 l 903 -6 l 985 -6 l 985 535 l 563 535 l 563 421 l 871 421 l 871 393 b 553 82 871 213 738 82 b 190 503 263 82 190 340 z "},"ĝ":{"ha":772,"x_min":0,"x_max":0,"o":"m 324 999 l 190 790 l 279 790 l 389 924 l 501 790 l 589 790 l 456 999 z m 340 -32 b 561 99 432 -32 496 7 l 561 61 b 358 -206 561 -106 522 -206 b 182 -83 322 -206 201 -201 l 64 -83 b 354 -303 76 -221 183 -303 b 679 119 631 -303 679 -133 l 679 728 l 572 728 l 572 622 b 350 749 514 708 443 749 b 40 351 165 749 40 588 b 340 -32 40 114 175 -32 z m 363 642 b 561 354 488 642 561 536 b 364 75 561 181 486 75 b 161 358 238 75 161 182 b 363 642 161 533 239 642 z "},"Ğ":{"ha":1081,"x_min":0,"x_max":0,"o":"m 343 1264 b 550 1076 347 1110 465 1076 b 761 1264 679 1076 751 1140 l 679 1264 b 553 1172 674 1206 628 1172 b 425 1264 474 1172 432 1203 z m 190 503 b 546 915 190 751 332 915 b 839 706 700 915 811 836 l 971 706 b 547 1029 935 911 779 1029 b 61 496 158 1029 61 699 b 525 -32 61 185 251 -32 b 871 129 663 -32 772 19 l 903 -6 l 985 -6 l 985 535 l 563 535 l 563 421 l 871 421 l 871 393 b 553 82 871 213 738 82 b 190 503 263 82 190 340 z "},"ğ":{"ha":772,"x_min":0,"x_max":0,"o":"m 156 1014 b 363 826 160 860 278 826 b 574 1014 492 826 564 890 l 492 1014 b 365 922 486 956 440 922 b 238 1014 286 922 244 953 z m 340 -32 b 561 99 432 -32 496 7 l 561 61 b 358 -206 561 -106 522 -206 b 182 -83 322 -206 201 -201 l 64 -83 b 354 -303 76 -221 183 -303 b 679 119 631 -303 679 -133 l 679 728 l 572 728 l 572 622 b 350 749 514 708 443 749 b 40 351 165 749 40 588 b 340 -32 40 114 175 -32 z m 363 642 b 561 354 488 642 561 536 b 364 75 561 181 486 75 b 161 358 238 75 161 182 b 363 642 161 533 239 642 z "},"Ġ":{"ha":1081,"x_min":0,"x_max":0,"o":"m 622 1250 l 478 1250 l 478 1106 l 622 1106 z m 190 503 b 546 915 190 751 332 915 b 839 706 700 915 811 836 l 971 706 b 547 1029 935 911 779 1029 b 61 496 158 1029 61 699 b 525 -32 61 185 251 -32 b 871 129 663 -32 772 19 l 903 -6 l 985 -6 l 985 535 l 563 535 l 563 421 l 871 421 l 871 393 b 553 82 871 213 738 82 b 190 503 263 82 190 340 z "},"ġ":{"ha":772,"x_min":0,"x_max":0,"o":"m 426 1013 l 282 1013 l 282 868 l 426 868 z m 340 -32 b 561 99 432 -32 496 7 l 561 61 b 358 -206 561 -106 522 -206 b 182 -83 322 -206 201 -201 l 64 -83 b 354 -303 76 -221 183 -303 b 679 119 631 -303 679 -133 l 679 728 l 572 728 l 572 622 b 350 749 514 708 443 749 b 40 351 165 749 40 588 b 340 -32 40 114 175 -32 z m 363 642 b 561 354 488 642 561 536 b 364 75 561 181 486 75 b 161 358 238 75 161 182 b 363 642 161 533 239 642 z "},"Ģ":{"ha":1081,"x_min":0,"x_max":0,"o":"m 451 -106 l 451 -244 l 528 -244 l 528 -256 b 451 -364 528 -325 501 -364 l 451 -417 l 454 -417 b 590 -249 539 -417 590 -351 l 590 -106 z m 190 503 b 546 915 190 751 332 915 b 839 706 700 915 811 836 l 971 706 b 547 1029 935 911 779 1029 b 61 496 158 1029 61 699 b 525 -32 61 185 251 -32 b 871 129 663 -32 772 19 l 903 -6 l 985 -6 l 985 535 l 563 535 l 563 421 l 871 421 l 871 393 b 553 82 871 213 738 82 b 190 503 263 82 190 340 z "},"ģ":{"ha":772,"x_min":0,"x_max":0,"o":"m 408 810 l 408 913 l 346 913 b 408 978 346 961 361 978 l 408 1036 b 286 911 332 1036 286 990 l 286 810 z m 340 -32 b 561 99 432 -32 496 7 l 561 61 b 358 -206 561 -106 522 -206 b 182 -83 322 -206 201 -201 l 64 -83 b 354 -303 76 -221 183 -303 b 679 119 631 -303 679 -133 l 679 728 l 572 728 l 572 622 b 350 749 514 708 443 749 b 40 351 165 749 40 588 b 340 -32 40 114 175 -32 z m 363 642 b 561 354 488 642 561 536 b 364 75 561 181 486 75 b 161 358 238 75 161 182 b 363 642 161 533 239 642 z "},"Ĥ":{"ha":1003,"x_min":0,"x_max":0,"o":"m 439 1279 l 306 1071 l 394 1071 l 504 1204 l 617 1071 l 704 1071 l 571 1279 z m 765 461 l 765 0 l 894 0 l 894 1013 l 765 1013 l 765 575 l 244 575 l 244 1013 l 115 1013 l 115 0 l 244 0 l 244 461 z "},"ĥ":{"ha":772,"x_min":0,"x_max":0,"o":"m 231 1276 l 97 1068 l 186 1068 l 296 1201 l 408 1068 l 496 1068 l 363 1276 z m 560 504 l 560 0 l 675 0 l 675 550 b 446 749 675 672 588 749 b 213 628 343 749 281 717 l 213 1013 l 97 1013 l 97 0 l 213 0 l 213 401 b 410 647 213 550 290 647 b 560 504 469 647 560 618 z "},"Ħ":{"ha":1003,"x_min":0,"x_max":0,"o":"m 244 700 l 765 700 l 765 575 l 244 575 z m 115 800 l 54 800 l 54 703 l 115 703 l 115 0 l 246 0 l 246 461 l 765 461 l 765 0 l 894 0 l 894 703 l 956 703 l 956 800 l 894 800 l 894 1013 l 765 1013 l 765 800 l 244 800 l 244 1013 l 115 1013 z "},"ħ":{"ha":772,"x_min":0,"x_max":0,"o":"m 560 504 l 560 0 l 675 0 l 675 550 b 446 749 675 672 588 749 b 213 628 343 749 281 717 l 213 833 l 421 833 l 421 907 l 213 907 l 213 1013 l 97 1013 l 97 907 l 10 907 l 10 833 l 97 833 l 97 0 l 213 0 l 213 401 b 410 647 213 550 290 647 b 560 504 469 647 560 618 z "},"Ĩ":{"ha":386,"x_min":0,"x_max":0,"o":"m 106 1213 b -14 1069 44 1213 1 1161 l 67 1069 b 113 1121 75 1101 92 1121 b 299 1068 153 1121 247 1068 b 422 1213 367 1068 408 1117 l 342 1213 b 290 1161 331 1178 315 1161 b 106 1213 233 1161 174 1213 z m 269 1013 l 139 1013 l 139 0 l 269 0 z "},"ĩ":{"ha":349,"x_min":0,"x_max":0,"o":"m 76 969 b -43 826 15 969 -28 918 l 38 826 b 83 878 46 858 63 878 b 269 825 124 878 218 825 b 393 969 338 825 379 874 l 313 969 b 261 918 301 935 286 918 b 76 969 204 918 144 969 z m 232 728 l 117 728 l 117 0 l 232 0 z "},"Ī":{"ha":386,"x_min":0,"x_max":0,"o":"m 383 1208 l 3 1208 l 3 1111 l 383 1111 z m 269 1013 l 139 1013 l 139 0 l 269 0 z "},"ī":{"ha":349,"x_min":0,"x_max":0,"o":"m 365 943 l -15 943 l -15 846 l 365 846 z m 232 728 l 117 728 l 117 0 l 232 0 z "},"Ĭ":{"ha":386,"x_min":0,"x_max":0,"o":"m -4 1256 b 203 1068 0 1101 118 1068 b 414 1256 332 1068 404 1132 l 332 1256 b 206 1164 326 1197 281 1164 b 78 1256 126 1164 85 1194 z m 269 1013 l 139 1013 l 139 0 l 269 0 z "},"ĭ":{"ha":349,"x_min":0,"x_max":0,"o":"m -35 1013 b 172 825 -31 858 88 825 b 383 1013 301 825 374 889 l 301 1013 b 175 921 296 954 250 921 b 47 1013 96 921 54 951 z m 232 728 l 117 728 l 117 0 l 232 0 z "},"Į":{"ha":386,"x_min":0,"x_max":0,"o":"m 219 -285 b 325 -271 246 -285 292 -278 l 325 -208 b 238 -222 300 -218 271 -222 b 138 -147 172 -222 138 -196 b 269 0 138 -89 168 -57 l 269 1013 l 139 1013 l 139 0 l 171 0 b 36 -154 86 -31 36 -87 b 219 -285 36 -235 118 -285 z "},"į":{"ha":308,"x_min":0,"x_max":0,"o":"m 158 -285 b 264 -271 185 -285 231 -278 l 264 -208 b 176 -222 239 -218 210 -222 b 76 -147 111 -222 76 -196 b 192 -8 76 -92 103 -60 l 208 -8 l 208 719 l 93 719 l 93 -7 b -25 -154 18 -38 -25 -92 b 158 -285 -25 -235 57 -285 z m 208 1012 l 92 1012 l 92 867 l 208 867 z "},"İ":{"ha":386,"x_min":0,"x_max":0,"o":"m 276 1226 l 132 1226 l 132 1082 l 276 1082 z m 269 1013 l 139 1013 l 139 0 l 269 0 z "},"ı":{"ha":349,"x_min":0,"x_max":0,"o":"m 232 728 l 117 728 l 117 0 l 232 0 z "},"Ĳ":{"ha":1028,"x_min":0,"x_max":0,"o":"m 640 76 b 489 260 543 76 489 142 l 489 325 l 357 325 l 357 236 b 639 -32 357 72 465 -32 b 925 253 815 -32 925 78 l 925 1013 l 796 1013 l 796 300 b 640 76 796 172 767 76 z m 269 1013 l 139 1013 l 139 0 l 269 0 z "},"ĳ":{"ha":533,"x_min":0,"x_max":0,"o":"m 322 728 l 322 -106 b 232 -203 322 -178 300 -203 b 200 -200 222 -203 210 -202 l 200 -299 b 239 -303 214 -301 221 -303 b 438 -151 369 -303 438 -250 l 438 728 z m 438 1013 l 322 1013 l 322 867 l 438 867 z m 208 728 l 93 728 l 93 0 l 208 0 z m 208 1013 l 92 1013 l 92 867 l 208 867 z "},"Ĵ":{"ha":694,"x_min":0,"x_max":0,"o":"m 461 1282 l 328 1074 l 417 1074 l 526 1207 l 639 1074 l 726 1074 l 593 1282 z m 307 76 b 156 260 210 76 156 142 l 156 325 l 24 325 l 24 236 b 306 -32 24 72 132 -32 b 592 253 482 -32 592 78 l 592 1013 l 463 1013 l 463 300 b 307 76 463 172 433 76 z "},"ĵ":{"ha":308,"x_min":0,"x_max":0,"o":"m 97 728 l 97 -106 b 3 -201 97 -178 74 -201 b -25 -200 -1 -201 -1 -201 l -25 -299 b 14 -303 -11 -301 -4 -303 b 213 -151 144 -303 213 -250 l 213 728 z m 89 999 l -44 790 l 44 790 l 154 924 l 267 790 l 354 790 l 221 999 z "},"Ķ":{"ha":926,"x_min":0,"x_max":0,"o":"m 410 -106 l 410 -244 l 486 -244 l 486 -256 b 410 -364 486 -325 460 -364 l 410 -417 l 413 -417 b 549 -249 497 -417 549 -351 l 549 -106 z m 239 354 l 404 519 l 761 0 l 914 0 l 497 600 l 910 1013 l 743 1013 l 239 500 l 239 1013 l 110 1013 l 110 0 l 239 0 z "},"ķ":{"ha":694,"x_min":0,"x_max":0,"o":"m 315 -106 l 315 -244 l 392 -244 l 392 -256 b 315 -364 392 -325 365 -364 l 315 -417 l 318 -417 b 454 -249 403 -417 454 -351 l 454 -106 z m 196 1013 l 81 1013 l 81 0 l 196 0 l 196 283 l 308 394 l 554 0 l 697 0 l 400 476 l 653 728 l 504 728 l 196 419 z "},"ĸ":{"ha":694,"x_min":0,"x_max":0,"o":"m 196 728 l 81 728 l 81 0 l 196 0 l 196 300 l 554 0 l 697 0 l 275 367 l 653 728 l 504 728 l 196 419 z "},"Ĺ":{"ha":772,"x_min":0,"x_max":0,"o":"m 231 1304 l 97 1099 l 181 1099 l 388 1304 z m 240 1013 l 111 1013 l 111 0 l 740 0 l 740 114 l 240 114 z "},"ĺ":{"ha":308,"x_min":0,"x_max":0,"o":"m 222 1304 l 89 1099 l 172 1099 l 379 1304 z m 211 1013 l 94 1013 l 94 0 l 211 0 z "},"Ļ":{"ha":772,"x_min":0,"x_max":0,"o":"m 354 -106 l 354 -244 l 431 -244 l 431 -256 b 354 -364 431 -325 404 -364 l 354 -417 l 357 -417 b 493 -249 442 -417 493 -351 l 493 -106 z m 240 1013 l 111 1013 l 111 0 l 740 0 l 740 114 l 240 114 z "},"ļ":{"ha":308,"x_min":0,"x_max":0,"o":"m 92 -106 l 92 -244 l 168 -244 l 168 -256 b 92 -364 168 -325 142 -364 l 92 -417 l 94 -417 b 231 -249 179 -417 231 -351 l 231 -106 z m 211 1013 l 94 1013 l 94 0 l 211 0 z "},"Ľ":{"ha":772,"x_min":0,"x_max":0,"o":"m 372 1014 l 372 869 l 456 869 l 456 844 b 372 718 456 749 438 721 l 372 665 b 518 847 469 665 518 728 l 518 1014 z m 240 1013 l 111 1013 l 111 0 l 740 0 l 740 114 l 240 114 z "},"ľ":{"ha":510,"x_min":0,"x_max":0,"o":"m 321 989 l 321 844 l 404 844 l 404 819 b 321 693 404 724 386 696 l 321 640 b 467 822 418 640 467 703 l 467 989 z m 211 1013 l 94 1013 l 94 0 l 211 0 z "},"Ŀ":{"ha":772,"x_min":0,"x_max":0,"o":"m 621 460 l 476 460 l 476 315 l 621 315 z m 240 1013 l 111 1013 l 111 0 l 740 0 l 740 114 l 240 114 z "},"ŀ":{"ha":694,"x_min":0,"x_max":0,"o":"m 574 460 l 429 460 l 429 315 l 574 315 z m 211 1013 l 94 1013 l 94 0 l 211 0 z "},"Ł":{"ha":772,"x_min":0,"x_max":0,"o":"m 240 564 l 240 1013 l 111 1013 l 111 494 l 0 417 l 0 310 l 111 389 l 111 0 l 767 0 l 767 114 l 240 114 l 240 457 l 478 626 l 478 732 z "},"ł":{"ha":308,"x_min":0,"x_max":0,"o":"m 203 585 l 203 1013 l 88 1013 l 88 524 l 0 454 l 0 365 l 88 435 l 88 0 l 203 0 l 203 496 l 294 567 l 294 656 z "},"Ń":{"ha":1003,"x_min":0,"x_max":0,"o":"m 540 1285 l 407 1079 l 490 1079 l 697 1285 z m 897 1013 l 775 1013 l 775 185 l 246 1013 l 106 1013 l 106 0 l 228 0 l 228 821 l 751 0 l 897 0 z "},"ń":{"ha":772,"x_min":0,"x_max":0,"o":"m 431 1018 l 297 813 l 381 813 l 588 1018 z m 97 728 l 97 0 l 214 0 l 214 401 b 411 647 214 550 292 647 b 561 504 503 647 561 592 l 561 0 l 676 0 l 676 550 b 446 749 676 671 586 749 b 204 606 338 749 268 707 l 204 728 z "},"Ņ":{"ha":1003,"x_min":0,"x_max":0,"o":"m 424 -106 l 424 -244 l 500 -244 l 500 -256 b 424 -364 500 -325 474 -364 l 424 -417 l 426 -417 b 563 -249 511 -417 563 -351 l 563 -106 z m 897 1013 l 775 1013 l 775 185 l 246 1013 l 106 1013 l 106 0 l 228 0 l 228 821 l 751 0 l 897 0 z "},"ņ":{"ha":772,"x_min":0,"x_max":0,"o":"m 315 -106 l 315 -244 l 392 -244 l 392 -256 b 315 -364 392 -325 365 -364 l 315 -417 l 318 -417 b 454 -249 403 -417 454 -351 l 454 -106 z m 97 728 l 97 0 l 214 0 l 214 401 b 411 647 214 550 292 647 b 561 504 503 647 561 592 l 561 0 l 676 0 l 676 550 b 446 749 676 671 586 749 b 204 606 338 749 268 707 l 204 728 z "},"Ň":{"ha":1003,"x_min":0,"x_max":0,"o":"m 568 1078 l 701 1286 l 613 1286 l 503 1153 l 390 1286 l 303 1286 l 436 1078 z m 897 1013 l 775 1013 l 775 185 l 246 1013 l 106 1013 l 106 0 l 228 0 l 228 821 l 751 0 l 897 0 z "},"ň":{"ha":772,"x_min":0,"x_max":0,"o":"m 453 807 l 586 1015 l 497 1015 l 388 882 l 275 1015 l 188 1015 l 321 807 z m 97 728 l 97 0 l 214 0 l 214 401 b 411 647 214 550 292 647 b 561 504 503 647 561 592 l 561 0 l 676 0 l 676 550 b 446 749 676 671 586 749 b 204 606 338 749 268 707 l 204 728 z "},"ŉ":{"ha":975,"x_min":0,"x_max":0,"o":"m 64 1011 l 64 867 l 147 867 l 147 842 b 64 715 147 746 129 718 l 64 663 b 210 844 161 663 210 725 l 210 1011 z m 264 728 l 264 0 l 381 0 l 381 401 b 578 647 381 550 458 647 b 728 504 669 647 728 592 l 728 0 l 843 0 l 843 550 b 613 749 843 671 753 749 b 371 606 504 749 435 707 l 371 728 z "},"Ŋ":{"ha":986,"x_min":0,"x_max":0,"o":"m 569 -22 b 924 589 736 -22 924 139 b 560 1033 924 908 700 1033 b 279 906 451 1033 343 1007 l 279 1013 l 150 1013 l 150 0 l 279 0 l 279 686 b 525 932 279 835 406 932 b 796 543 617 932 796 850 b 558 79 796 258 667 79 b 425 99 494 79 449 97 l 425 0 b 569 -22 439 -3 483 -22 z "},"ŋ":{"ha":772,"x_min":0,"x_max":0,"o":"m 676 550 b 446 749 676 671 586 749 b 204 606 338 749 268 707 l 204 728 l 97 728 l 97 0 l 214 0 l 214 401 b 411 647 214 550 292 647 b 561 504 503 647 561 592 l 561 -106 b 467 -201 561 -178 538 -201 b 439 -200 463 -201 463 -201 l 439 -299 b 478 -303 453 -301 460 -303 b 676 -151 608 -303 676 -250 z "},"Ō":{"ha":1081,"x_min":0,"x_max":0,"o":"m 731 1208 l 350 1208 l 350 1111 l 731 1111 z m 1031 490 b 540 1029 1031 817 838 1029 b 53 499 250 1029 53 815 b 542 -32 53 182 250 -32 b 1031 490 844 -32 1031 199 z m 540 915 b 901 493 760 915 901 749 b 542 82 901 249 756 82 b 182 499 326 82 182 249 b 540 915 182 749 326 915 z "},"ō":{"ha":772,"x_min":0,"x_max":0,"o":"m 568 943 l 188 943 l 188 846 l 568 846 z m 378 749 b 50 358 174 749 50 603 b 379 -32 50 114 172 -32 b 708 353 583 -32 708 114 b 378 749 708 604 588 749 z m 379 642 b 588 354 510 642 588 535 b 379 75 588 183 507 75 b 171 358 250 75 171 182 b 379 642 171 533 250 642 z "},"Ŏ":{"ha":1081,"x_min":0,"x_max":0,"o":"m 332 1256 b 539 1068 336 1101 454 1068 b 750 1256 668 1068 740 1132 l 668 1256 b 542 1164 663 1197 617 1164 b 414 1256 463 1164 421 1194 z m 1031 490 b 540 1029 1031 817 838 1029 b 53 499 250 1029 53 815 b 542 -32 53 182 250 -32 b 1031 490 844 -32 1031 199 z m 540 915 b 901 493 760 915 901 749 b 542 82 901 249 756 82 b 182 499 326 82 182 249 b 540 915 182 749 326 915 z "},"ŏ":{"ha":772,"x_min":0,"x_max":0,"o":"m 171 1013 b 378 825 175 858 293 825 b 589 1013 507 825 579 889 l 507 1013 b 381 921 501 954 456 921 b 253 1013 301 921 260 951 z m 378 749 b 50 358 174 749 50 603 b 379 -32 50 114 172 -32 b 708 353 583 -32 708 114 b 378 749 708 604 588 749 z m 379 642 b 588 354 510 642 588 535 b 379 75 588 183 507 75 b 171 358 250 75 171 182 b 379 642 171 533 250 642 z "},"Ő":{"ha":1081,"x_min":0,"x_max":0,"o":"m 506 1285 l 372 1076 l 456 1076 l 663 1285 z m 747 1285 l 614 1076 l 697 1076 l 904 1285 z m 1031 490 b 540 1029 1031 817 838 1029 b 53 499 250 1029 53 815 b 542 -32 53 182 250 -32 b 1031 490 844 -32 1031 199 z m 540 915 b 901 493 760 915 901 749 b 542 82 901 249 756 82 b 182 499 326 82 182 249 b 540 915 182 749 326 915 z "},"ő":{"ha":772,"x_min":0,"x_max":0,"o":"m 332 1028 l 199 819 l 282 819 l 489 1028 z m 574 1028 l 440 819 l 524 819 l 731 1028 z m 378 749 b 50 358 174 749 50 603 b 379 -32 50 114 172 -32 b 708 353 583 -32 708 114 b 378 749 708 604 588 749 z m 379 642 b 588 354 510 642 588 535 b 379 75 588 183 507 75 b 171 358 250 75 171 182 b 379 642 171 533 250 642 z "},"Œ":{"ha":1389,"x_min":0,"x_max":0,"o":"m 60 494 b 474 -28 60 76 303 -28 b 729 103 586 -28 665 13 l 729 0 l 1332 0 l 1332 114 l 858 114 l 858 454 l 1314 454 l 1314 568 l 858 568 l 858 899 l 1325 899 l 1325 1013 l 729 1013 l 729 907 b 475 1029 671 990 589 1029 b 60 494 307 1029 60 922 z m 189 500 b 475 915 189 847 346 915 b 729 749 592 915 674 861 l 729 253 b 474 86 674 140 590 86 b 189 500 351 86 189 149 z "},"œ":{"ha":1303,"x_min":0,"x_max":0,"o":"m 707 325 l 1243 325 b 1214 557 1243 436 1235 503 b 919 749 1167 676 1056 749 b 651 601 807 749 708 694 b 379 749 596 699 503 749 b 50 360 169 749 50 608 b 379 -32 50 110 169 -32 b 649 111 501 -32 590 15 b 918 -32 704 19 800 -32 b 1228 221 1083 -32 1199 63 l 1111 221 b 921 75 1079 125 1014 75 b 707 325 835 75 711 122 z m 379 642 b 588 356 510 642 588 535 b 379 75 588 182 507 75 b 171 360 250 75 171 182 b 379 642 171 535 250 642 z m 710 419 b 918 642 719 554 801 642 b 1118 419 1036 642 1118 551 z "},"Ŕ":{"ha":1003,"x_min":0,"x_max":0,"o":"m 532 1283 l 399 1078 l 482 1078 l 689 1283 z m 744 500 b 904 742 858 556 904 626 b 596 1013 904 917 794 1013 l 129 1013 l 129 0 l 258 0 l 258 436 l 592 436 b 758 256 707 436 758 381 l 758 165 b 786 0 758 103 768 42 l 943 0 l 943 32 b 882 191 890 69 882 127 b 883 263 882 215 883 239 b 744 500 883 354 870 446 z m 769 724 b 571 550 769 604 708 550 l 258 550 l 258 899 l 571 899 b 769 724 679 899 769 868 z "},"ŕ":{"ha":463,"x_min":0,"x_max":0,"o":"m 303 1026 l 169 821 l 253 821 l 460 1026 z m 446 626 l 446 744 b 401 749 426 747 417 749 b 203 596 326 749 269 704 l 203 728 l 96 728 l 96 0 l 213 0 l 213 378 b 446 626 213 582 306 624 z "},"Ŗ":{"ha":1003,"x_min":0,"x_max":0,"o":"m 438 -106 l 438 -244 l 514 -244 l 514 -256 b 438 -364 514 -325 488 -364 l 438 -417 l 440 -417 b 576 -249 525 -417 576 -351 l 576 -106 z m 744 500 b 904 742 858 556 904 626 b 596 1013 904 917 794 1013 l 129 1013 l 129 0 l 258 0 l 258 436 l 592 436 b 758 256 707 436 758 381 l 758 165 b 786 0 758 103 768 42 l 943 0 l 943 32 b 882 191 890 69 882 127 b 883 263 882 215 883 239 b 744 500 883 354 870 446 z m 769 724 b 571 550 769 604 708 550 l 258 550 l 258 899 l 571 899 b 769 724 679 899 769 868 z "},"ŗ":{"ha":463,"x_min":0,"x_max":0,"o":"m 97 -106 l 97 -244 l 174 -244 l 174 -256 b 97 -364 174 -325 147 -364 l 97 -417 l 100 -417 b 236 -249 185 -417 236 -351 l 236 -106 z m 446 626 l 446 744 b 401 749 426 747 417 749 b 203 596 326 749 269 704 l 203 728 l 96 728 l 96 0 l 213 0 l 213 378 b 446 626 213 582 306 624 z "},"Ř":{"ha":1003,"x_min":0,"x_max":0,"o":"m 561 1078 l 694 1286 l 606 1286 l 496 1153 l 383 1286 l 296 1286 l 429 1078 z m 744 500 b 904 742 858 556 904 626 b 596 1013 904 917 794 1013 l 129 1013 l 129 0 l 258 0 l 258 436 l 592 436 b 758 256 707 436 758 381 l 758 165 b 786 0 758 103 768 42 l 943 0 l 943 32 b 882 191 890 69 882 127 b 883 263 882 215 883 239 b 744 500 883 354 870 446 z m 769 724 b 571 550 769 604 708 550 l 258 550 l 258 899 l 571 899 b 769 724 679 899 769 868 z "},"ř":{"ha":463,"x_min":0,"x_max":0,"o":"m 333 821 l 467 1029 l 378 1029 l 268 896 l 156 1029 l 68 1029 l 201 821 z m 446 626 l 446 744 b 401 749 426 747 417 749 b 203 596 326 749 269 704 l 203 728 l 96 728 l 96 0 l 213 0 l 213 378 b 446 626 213 582 306 624 z "},"Ś":{"ha":926,"x_min":0,"x_max":0,"o":"m 503 1281 l 369 1075 l 453 1075 l 660 1281 z m 475 82 b 189 315 246 82 189 213 l 189 322 l 67 322 b 467 -32 71 35 292 -32 b 863 278 783 -32 863 154 b 647 532 863 403 785 494 l 393 600 b 226 750 271 633 226 672 b 453 921 226 853 317 921 b 706 715 614 921 704 847 l 828 715 b 457 1029 826 914 690 1029 b 97 732 235 1029 97 915 b 296 496 97 608 163 531 l 547 429 b 733 265 675 396 733 344 b 475 82 733 193 694 82 z "},"ś":{"ha":694,"x_min":0,"x_max":0,"o":"m 382 1028 l 249 822 l 332 822 l 539 1028 z m 169 217 l 47 217 b 338 -32 53 49 147 -32 b 638 199 521 -32 638 58 b 432 401 638 307 576 367 l 321 428 b 186 532 226 450 186 481 b 340 642 186 599 246 642 b 486 525 433 642 483 601 l 608 525 b 344 749 607 668 513 749 b 65 526 175 749 65 661 b 296 317 65 413 124 358 l 404 290 b 517 189 485 271 517 242 b 347 75 517 121 449 75 b 169 217 206 75 179 146 z "},"Ŝ":{"ha":926,"x_min":0,"x_max":0,"o":"m 400 1283 l 267 1075 l 356 1075 l 465 1208 l 578 1075 l 665 1075 l 532 1283 z m 475 82 b 189 315 246 82 189 213 l 189 322 l 67 322 b 467 -32 71 35 292 -32 b 863 278 783 -32 863 154 b 647 532 863 403 785 494 l 393 600 b 226 750 271 633 226 672 b 453 921 226 853 317 921 b 706 715 614 921 704 847 l 828 715 b 457 1029 826 914 690 1029 b 97 732 235 1029 97 915 b 296 496 97 608 163 531 l 547 429 b 733 265 675 396 733 344 b 475 82 733 193 694 82 z "},"ŝ":{"ha":694,"x_min":0,"x_max":0,"o":"m 281 1000 l 147 792 l 236 792 l 346 925 l 458 792 l 546 792 l 413 1000 z m 169 217 l 47 217 b 338 -32 53 49 147 -32 b 638 199 521 -32 638 58 b 432 401 638 307 576 367 l 321 428 b 186 532 226 450 186 481 b 340 642 186 599 246 642 b 486 525 433 642 483 601 l 608 525 b 344 749 607 668 513 749 b 65 526 175 749 65 661 b 296 317 65 413 124 358 l 404 290 b 517 189 485 271 517 242 b 347 75 517 121 449 75 b 169 217 206 75 179 146 z "},"Ş":{"ha":926,"x_min":0,"x_max":0,"o":"m 475 82 b 189 315 246 82 189 213 l 189 322 l 67 322 l 67 313 b 333 -18 67 144 168 17 l 394 -28 b 410 -32 396 -28 401 -29 l 367 -128 l 382 -136 b 425 -126 399 -129 410 -126 b 489 -178 465 -126 489 -146 b 414 -240 489 -214 457 -240 b 278 -194 360 -240 322 -214 l 249 -250 b 422 -297 335 -287 369 -297 b 593 -168 528 -297 593 -247 b 483 -75 593 -108 553 -75 b 444 -78 472 -75 464 -75 l 465 -33 b 863 278 793 -19 863 146 b 647 532 863 403 785 494 l 393 600 b 226 750 271 633 226 672 b 453 921 226 853 317 921 b 706 715 614 921 704 847 l 828 715 b 457 1029 826 914 690 1029 b 97 732 235 1029 97 915 b 296 496 97 608 163 531 l 547 429 b 733 265 675 396 733 344 b 475 82 733 193 694 82 z "},"ş":{"ha":694,"x_min":0,"x_max":0,"o":"m 169 217 l 47 217 b 285 -29 50 67 129 -14 l 242 -128 l 257 -136 b 300 -126 274 -129 283 -126 b 364 -178 340 -126 364 -146 b 289 -240 364 -214 332 -240 b 153 -194 235 -240 197 -214 l 124 -250 b 297 -297 210 -287 244 -297 b 468 -168 403 -297 468 -247 b 358 -75 468 -108 428 -75 b 319 -78 347 -75 339 -75 l 339 -33 b 501 -3 422 -28 464 -19 b 638 199 586 35 638 113 b 432 401 638 307 576 367 l 321 428 b 186 532 226 450 186 481 b 340 642 186 599 246 642 b 486 525 433 642 483 601 l 608 525 b 344 749 607 668 513 749 b 65 526 175 749 65 661 b 296 317 65 413 124 358 l 404 290 b 517 189 485 271 517 242 b 347 75 517 121 449 75 b 169 217 206 75 179 146 z "},"Š":{"ha":926,"x_min":0,"x_max":0,"o":"m 528 1076 l 661 1285 l 572 1285 l 463 1151 l 350 1285 l 263 1285 l 396 1076 z m 475 82 b 189 315 246 82 189 213 l 189 322 l 67 322 b 467 -32 71 35 292 -32 b 863 278 783 -32 863 154 b 647 532 863 403 785 494 l 393 600 b 226 750 271 633 226 672 b 453 921 226 853 317 921 b 706 715 614 921 704 847 l 828 715 b 457 1029 826 914 690 1029 b 97 732 235 1029 97 915 b 296 496 97 608 163 531 l 547 429 b 733 265 675 396 733 344 b 475 82 733 193 694 82 z "},"š":{"ha":694,"x_min":0,"x_max":0,"o":"m 408 810 l 542 1018 l 453 1018 l 343 885 l 231 1018 l 143 1018 l 276 810 z m 169 217 l 47 217 b 338 -32 53 49 147 -32 b 638 199 521 -32 638 58 b 432 401 638 307 576 367 l 321 428 b 186 532 226 450 186 481 b 340 642 186 599 246 642 b 486 525 433 642 483 601 l 608 525 b 344 749 607 668 513 749 b 65 526 175 749 65 661 b 296 317 65 413 124 358 l 404 290 b 517 189 485 271 517 242 b 347 75 517 121 449 75 b 169 217 206 75 179 146 z "},"Ţ":{"ha":849,"x_min":0,"x_max":0,"o":"m 261 -193 l 232 -249 b 406 -296 318 -286 351 -296 b 576 -167 511 -296 576 -246 b 467 -74 576 -107 536 -74 b 428 -76 456 -74 446 -74 l 459 0 l 492 0 l 492 899 l 824 899 l 824 1013 l 29 1013 l 29 899 l 363 899 l 363 0 l 406 0 l 349 -126 l 365 -136 b 408 -125 382 -128 392 -125 b 472 -176 449 -125 472 -144 b 397 -239 472 -212 440 -239 b 261 -193 346 -239 315 -217 z "},"ţ":{"ha":386,"x_min":0,"x_max":0,"o":"m 92 -212 l 63 -268 b 236 -315 149 -306 182 -315 b 407 -186 342 -315 407 -265 b 297 -93 407 -126 367 -93 b 258 -96 286 -93 276 -93 l 285 -31 b 353 -22 305 -30 326 -27 l 353 75 b 297 69 338 71 319 69 b 233 135 247 69 233 83 l 233 633 l 353 633 l 353 728 l 233 728 l 233 928 l 118 928 l 118 728 l 19 728 l 19 633 l 118 633 l 118 83 b 232 -31 118 17 158 -23 l 179 -146 l 196 -156 b 239 -144 213 -147 222 -144 b 303 -196 279 -144 303 -164 b 228 -258 303 -232 271 -258 b 92 -212 176 -258 146 -236 z "},"Ť":{"ha":849,"x_min":0,"x_max":0,"o":"m 493 1078 l 626 1286 l 538 1286 l 428 1153 l 315 1286 l 228 1286 l 361 1078 z m 492 899 l 824 899 l 824 1013 l 29 1013 l 29 899 l 363 899 l 363 0 l 492 0 z "},"ť":{"ha":615,"x_min":0,"x_max":0,"o":"m 424 986 l 424 842 l 507 842 l 507 817 b 424 690 507 721 489 693 l 424 638 b 569 819 521 638 569 700 l 569 986 z m 353 728 l 233 728 l 233 928 l 118 928 l 118 728 l 19 728 l 19 633 l 118 633 l 118 83 b 258 -32 118 10 168 -32 b 353 -22 286 -32 314 -29 l 353 75 b 297 69 338 71 319 69 b 233 135 247 69 233 83 l 233 633 l 353 633 z "},"Ŧ":{"ha":849,"x_min":0,"x_max":0,"o":"m 167 496 l 363 496 l 363 0 l 492 0 l 492 496 l 688 496 l 688 596 l 492 596 l 492 899 l 824 899 l 824 1013 l 29 1013 l 29 899 l 363 899 l 363 596 l 167 596 z "},"ŧ":{"ha":386,"x_min":0,"x_max":0,"o":"m 353 728 l 233 728 l 233 928 l 118 928 l 118 728 l 19 728 l 19 633 l 118 633 l 118 433 l 13 433 l 13 333 l 118 333 l 118 83 b 258 -32 118 10 168 -32 b 353 -22 286 -32 314 -29 l 353 75 b 297 69 338 71 319 69 b 233 135 247 69 233 83 l 233 333 l 343 333 l 343 433 l 233 433 l 233 633 l 353 633 z "},"Ũ":{"ha":1003,"x_min":0,"x_max":0,"o":"m 408 1213 b 289 1069 347 1213 304 1161 l 369 1069 b 415 1121 378 1101 394 1121 b 601 1068 456 1121 550 1068 b 725 1213 669 1068 711 1117 l 644 1213 b 593 1161 633 1178 618 1161 b 408 1213 536 1161 476 1213 z m 767 1013 l 767 301 b 506 82 767 165 668 82 b 247 301 357 82 247 149 l 247 1013 l 118 1013 l 118 301 b 506 -32 118 96 265 -32 b 896 301 743 -32 896 99 l 896 1013 z "},"ũ":{"ha":772,"x_min":0,"x_max":0,"o":"m 282 976 b 163 833 221 976 178 925 l 243 833 b 289 885 251 865 268 885 b 475 832 329 885 424 832 b 599 976 543 832 585 881 l 518 976 b 467 925 507 942 492 925 b 282 976 410 925 350 976 z m 669 0 l 669 728 l 554 728 l 554 315 b 356 69 554 167 476 69 b 206 213 264 69 206 125 l 206 728 l 90 728 l 90 167 b 322 -32 90 46 181 -32 b 565 101 429 -32 497 6 l 565 0 z "},"Ū":{"ha":1003,"x_min":0,"x_max":0,"o":"m 697 1208 l 317 1208 l 317 1111 l 697 1111 z m 767 1013 l 767 301 b 506 82 767 165 668 82 b 247 301 357 82 247 149 l 247 1013 l 118 1013 l 118 301 b 506 -32 118 96 265 -32 b 896 301 743 -32 896 99 l 896 1013 z "},"ū":{"ha":772,"x_min":0,"x_max":0,"o":"m 569 929 l 189 929 l 189 832 l 569 832 z m 669 0 l 669 728 l 554 728 l 554 315 b 356 69 554 167 476 69 b 206 213 264 69 206 125 l 206 728 l 90 728 l 90 167 b 322 -32 90 46 181 -32 b 565 101 429 -32 497 6 l 565 0 z "},"Ŭ":{"ha":1003,"x_min":0,"x_max":0,"o":"m 299 1256 b 506 1068 303 1101 421 1068 b 717 1256 635 1068 707 1132 l 635 1256 b 508 1164 629 1197 583 1164 b 381 1256 429 1164 388 1194 z m 767 1013 l 767 301 b 506 82 767 165 668 82 b 247 301 357 82 247 149 l 247 1013 l 118 1013 l 118 301 b 506 -32 118 96 265 -32 b 896 301 743 -32 896 99 l 896 1013 z "},"ŭ":{"ha":772,"x_min":0,"x_max":0,"o":"m 171 1010 b 378 822 175 856 293 822 b 589 1010 507 822 579 886 l 507 1010 b 381 918 501 951 456 918 b 253 1010 301 918 260 949 z m 669 0 l 669 728 l 554 728 l 554 315 b 356 69 554 167 476 69 b 206 213 264 69 206 125 l 206 728 l 90 728 l 90 167 b 322 -32 90 46 181 -32 b 565 101 429 -32 497 6 l 565 0 z "},"Ů":{"ha":1003,"x_min":0,"x_max":0,"o":"m 507 1340 b 360 1195 427 1340 360 1273 b 507 1048 360 1115 427 1048 b 654 1193 587 1048 654 1113 b 507 1340 654 1275 589 1340 z m 507 1254 b 568 1193 542 1254 568 1228 b 507 1133 568 1161 540 1133 b 446 1194 474 1133 446 1161 b 507 1254 446 1226 474 1254 z m 767 1013 l 767 301 b 506 82 767 165 668 82 b 247 301 357 82 247 149 l 247 1013 l 118 1013 l 118 301 b 506 -32 118 96 265 -32 b 896 301 743 -32 896 99 l 896 1013 z "},"ů":{"ha":772,"x_min":0,"x_max":0,"o":"m 379 1072 b 233 927 299 1072 233 1005 b 379 780 233 847 299 780 b 526 925 459 780 526 845 b 379 1072 526 1007 461 1072 z m 379 986 b 440 925 414 986 440 960 b 379 865 440 893 413 865 b 318 926 346 865 318 893 b 379 986 318 958 346 986 z m 669 0 l 669 728 l 554 728 l 554 315 b 356 69 554 167 476 69 b 206 213 264 69 206 125 l 206 728 l 90 728 l 90 167 b 322 -32 90 46 181 -32 b 565 101 429 -32 497 6 l 565 0 z "},"Ű":{"ha":1003,"x_min":0,"x_max":0,"o":"m 457 1283 l 324 1075 l 407 1075 l 614 1283 z m 699 1283 l 565 1075 l 649 1075 l 856 1283 z m 767 1013 l 767 301 b 506 82 767 165 668 82 b 247 301 357 82 247 149 l 247 1013 l 118 1013 l 118 301 b 506 -32 118 96 265 -32 b 896 301 743 -32 896 99 l 896 1013 z "},"ű":{"ha":772,"x_min":0,"x_max":0,"o":"m 338 1015 l 204 807 l 288 807 l 494 1015 z m 579 1015 l 446 807 l 529 807 l 736 1015 z m 669 0 l 669 728 l 554 728 l 554 315 b 356 69 554 167 476 69 b 206 213 264 69 206 125 l 206 728 l 90 728 l 90 167 b 322 -32 90 46 181 -32 b 565 101 429 -32 497 6 l 565 0 z "},"Ų":{"ha":1003,"x_min":0,"x_max":0,"o":"m 732 -285 b 836 -271 757 -285 803 -278 l 836 -208 b 749 -222 811 -218 782 -222 b 649 -147 683 -222 649 -196 b 896 301 649 -10 896 40 l 896 1013 l 767 1013 l 767 301 b 506 82 767 165 668 82 b 247 301 357 82 247 149 l 247 1013 l 118 1013 l 118 301 b 508 -32 118 94 267 -32 b 649 -14 558 -32 588 -28 b 547 -156 576 -58 547 -99 b 732 -285 547 -233 629 -285 z "},"ų":{"ha":772,"x_min":0,"x_max":0,"o":"m 669 728 l 554 728 l 554 315 b 356 69 554 167 476 69 b 206 213 264 69 206 125 l 206 728 l 90 728 l 90 167 b 322 -32 90 46 181 -32 b 565 101 429 -32 497 6 l 565 0 l 596 0 b 463 -154 504 -47 463 -94 b 651 -283 463 -233 536 -283 b 724 -271 671 -283 697 -275 l 724 -208 b 656 -222 694 -219 678 -222 b 563 -150 599 -222 563 -194 b 669 0 563 -96 606 -36 z "},"Ŵ":{"ha":1311,"x_min":0,"x_max":0,"o":"m 594 1282 l 461 1074 l 550 1074 l 660 1207 l 772 1074 l 860 1074 l 726 1282 z m 1033 0 l 1290 1013 l 1146 1013 l 960 190 l 729 1013 l 590 1013 l 365 190 l 175 1013 l 31 1013 l 290 0 l 432 0 l 658 832 l 892 0 z "},"ŵ":{"ha":1003,"x_min":0,"x_max":0,"o":"m 431 1001 l 297 793 l 386 793 l 496 926 l 608 793 l 696 793 l 563 1001 z m 769 0 l 983 728 l 853 728 l 708 161 l 565 728 l 424 728 l 285 161 l 136 728 l 8 728 l 219 0 l 350 0 l 490 571 l 638 0 z "},"Ŷ":{"ha":926,"x_min":0,"x_max":0,"o":"m 403 1278 l 269 1069 l 358 1069 l 468 1203 l 581 1069 l 668 1069 l 535 1278 z m 538 397 l 918 1013 l 764 1013 l 475 519 l 178 1013 l 18 1013 l 408 397 l 408 0 l 538 0 z "},"ŷ":{"ha":694,"x_min":0,"x_max":0,"o":"m 281 999 l 147 790 l 236 790 l 346 924 l 458 790 l 546 790 l 413 999 z m 539 728 l 338 161 l 151 728 l 28 728 l 274 -3 l 229 -118 b 136 -189 210 -169 185 -189 b 75 -181 119 -189 100 -186 l 75 -285 b 153 -303 99 -297 122 -303 b 340 -153 232 -303 300 -260 l 664 728 z "},"Ÿ":{"ha":926,"x_min":0,"x_max":0,"o":"m 669 1224 l 525 1224 l 525 1079 l 669 1079 z m 421 1224 l 276 1224 l 276 1079 l 421 1079 z m 538 397 l 918 1013 l 764 1013 l 475 519 l 178 1013 l 18 1013 l 408 397 l 408 0 l 538 0 z "},"Ź":{"ha":849,"x_min":0,"x_max":0,"o":"m 483 1285 l 350 1079 l 433 1079 l 640 1285 z m 807 1013 l 78 1013 l 78 899 l 647 899 l 39 114 l 39 0 l 810 0 l 810 114 l 201 114 l 807 896 z "},"ź":{"ha":694,"x_min":0,"x_max":0,"o":"m 386 1015 l 253 810 l 336 810 l 543 1015 z m 615 728 l 72 728 l 72 626 l 478 626 l 43 104 l 43 0 l 635 0 l 635 101 l 183 101 l 615 625 z "},"Ż":{"ha":849,"x_min":0,"x_max":0,"o":"m 515 1224 l 371 1224 l 371 1079 l 515 1079 z m 807 1013 l 78 1013 l 78 899 l 647 899 l 39 114 l 39 0 l 810 0 l 810 114 l 201 114 l 807 896 z "},"ż":{"ha":694,"x_min":0,"x_max":0,"o":"m 415 1013 l 271 1013 l 271 868 l 415 868 z m 615 728 l 72 728 l 72 626 l 478 626 l 43 104 l 43 0 l 635 0 l 635 101 l 183 101 l 615 625 z "},"Ž":{"ha":849,"x_min":0,"x_max":0,"o":"m 508 1078 l 642 1286 l 553 1286 l 443 1153 l 331 1286 l 243 1286 l 376 1078 z m 807 1013 l 78 1013 l 78 899 l 647 899 l 39 114 l 39 0 l 810 0 l 810 114 l 201 114 l 807 896 z "},"ž":{"ha":694,"x_min":0,"x_max":0,"o":"m 414 810 l 547 1018 l 458 1018 l 349 885 l 236 1018 l 149 1018 l 282 810 z m 615 728 l 72 728 l 72 626 l 478 626 l 43 104 l 43 0 l 635 0 l 635 101 l 183 101 l 615 625 z "},"ſ":{"ha":386,"x_min":0,"x_max":0,"o":"m 238 0 l 238 842 b 318 915 238 890 265 915 b 358 914 328 915 332 915 l 358 1010 b 293 1017 332 1015 317 1017 b 122 851 186 1017 122 956 l 122 728 l 25 728 l 25 633 l 122 633 l 122 0 z "},"ƀ":{"ha":772,"x_min":0,"x_max":0,"o":"m 124 907 l 36 907 l 36 833 l 124 833 l 124 0 l 226 0 l 226 82 b 460 -32 293 4 367 -32 b 774 367 649 -32 774 126 b 463 749 774 597 650 749 b 239 640 368 749 300 715 l 239 833 l 447 833 l 447 907 l 239 907 l 239 1013 l 124 1013 z m 442 635 b 653 358 568 635 653 524 b 442 82 653 193 568 82 b 239 356 319 82 239 190 b 442 635 239 526 318 635 z "},"Ɓ":{"ha":1186,"x_min":0,"x_max":0,"o":"m 814 114 l 499 114 l 499 463 l 814 463 b 996 288 933 463 996 390 b 814 114 996 217 960 114 z m 951 738 b 749 576 951 617 871 576 l 499 576 l 499 899 l 749 899 b 951 738 857 899 951 868 z m 238 622 b 303 629 261 622 276 624 l 303 739 b 263 738 276 739 272 738 b 188 811 210 738 188 771 b 256 892 188 853 200 892 l 369 892 l 369 0 l 826 0 b 1125 289 1006 0 1125 115 b 940 535 1125 411 1069 485 b 1081 756 1032 578 1081 653 b 781 1013 1081 858 1021 1013 l 250 1013 b 67 836 103 1013 67 908 b 238 622 67 715 107 622 z "},"Ƃ":{"ha":928,"x_min":0,"x_max":0,"o":"m 867 303 l 867 306 b 490 604 867 488 758 604 l 240 604 l 240 899 l 790 899 l 790 1013 l 111 1013 l 111 0 l 568 0 b 867 303 807 0 867 183 z m 738 301 b 556 114 738 229 710 114 l 240 114 l 240 490 l 556 490 b 738 301 710 490 738 375 z "},"ƃ":{"ha":772,"x_min":0,"x_max":0,"o":"m 393 640 b 606 354 522 640 606 528 b 393 76 606 189 519 76 b 190 358 271 76 190 188 b 393 640 190 529 271 640 z m 75 0 l 179 0 l 179 93 b 410 -32 235 8 308 -32 b 726 367 601 -32 726 125 b 415 749 726 603 607 749 b 190 629 315 749 244 711 l 190 911 l 618 911 l 618 1013 l 75 1013 z "},"Ƅ":{"ha":996,"x_min":0,"x_max":0,"o":"m 308 114 l 308 513 l 603 513 b 806 313 724 513 806 431 b 603 114 806 200 722 114 z m 179 1013 l 1 819 l 179 626 l 179 0 l 615 0 b 935 314 799 0 935 129 l 935 318 b 538 626 935 493 831 626 l 308 626 l 308 1013 z "},"ƅ":{"ha":828,"x_min":0,"x_max":0,"o":"m 449 640 b 661 354 578 640 661 528 b 449 76 661 189 575 76 b 246 358 326 76 246 188 b 449 640 246 529 326 640 z m 131 1013 l 1 819 l 131 626 l 131 0 l 235 0 l 235 93 b 465 -32 290 8 364 -32 b 782 367 657 -32 782 125 b 471 749 782 603 663 749 b 246 629 371 749 300 711 l 246 1013 z "},"Ɔ":{"ha":1003,"x_min":0,"x_max":0,"o":"m 940 503 b 483 1029 940 710 849 1029 b 67 628 236 1029 97 896 l 200 628 b 482 915 231 819 313 915 b 811 501 683 915 811 754 b 493 82 811 242 689 82 b 219 299 329 82 249 157 l 88 299 b 478 -32 128 76 256 -32 b 940 503 847 -32 940 292 z "},"Ƈ":{"ha":1065,"x_min":0,"x_max":0,"o":"m 67 494 b 524 -32 67 288 158 -32 b 940 369 771 -32 910 101 l 807 369 b 525 82 776 178 694 82 b 196 496 324 82 196 243 b 514 915 196 756 318 915 b 788 699 678 915 758 840 l 919 699 l 919 813 b 1000 886 919 868 947 886 b 1040 885 1010 886 1014 886 l 1040 994 b 975 1001 1014 1000 999 1001 b 821 919 903 1001 849 972 b 529 1029 754 993 657 1029 b 67 494 160 1029 67 706 z "},"ƈ":{"ha":799,"x_min":0,"x_max":0,"o":"m 561 686 b 367 749 511 726 443 749 b 43 351 171 749 43 593 b 365 -32 43 117 168 -32 b 663 250 539 -32 649 72 l 546 250 b 368 75 526 133 467 75 b 164 351 240 75 164 179 b 365 642 164 533 239 642 b 538 483 463 642 524 585 l 654 483 l 654 597 b 735 671 654 653 682 671 b 775 669 744 671 749 671 l 775 765 b 710 772 749 771 733 772 b 561 686 633 772 583 742 z "},"Ɖ":{"ha":1003,"x_min":0,"x_max":0,"o":"m 124 471 l 124 0 l 515 0 b 926 507 771 0 926 192 b 515 1013 926 821 771 1013 l 124 1013 l 124 564 l 28 564 l 28 471 z m 253 471 l 490 471 l 490 564 l 253 564 l 253 899 l 493 899 b 797 507 692 899 797 764 b 493 114 797 249 692 114 l 253 114 z "},"Ɗ":{"ha":1249,"x_min":0,"x_max":0,"o":"m 499 114 l 499 899 l 738 899 b 1043 506 938 899 1043 764 b 738 114 1043 250 938 114 z m 238 622 b 303 629 261 622 276 624 l 303 739 b 263 738 276 739 272 738 b 188 811 210 738 188 771 b 256 892 188 853 200 892 l 369 892 l 369 0 l 760 0 b 1172 507 1015 0 1172 192 b 760 1013 1172 821 1017 1013 l 250 1013 b 67 836 103 1013 67 908 b 238 622 67 715 107 622 z "},"Ƌ":{"ha":926,"x_min":0,"x_max":0,"o":"m 110 303 b 408 0 110 183 169 0 l 865 0 l 865 1013 l 186 1013 l 186 899 l 736 899 l 736 604 l 486 604 b 110 306 218 604 110 488 z m 239 301 b 421 490 239 375 267 490 l 736 490 l 736 114 l 421 114 b 239 301 267 114 239 229 z "},"ƌ":{"ha":772,"x_min":0,"x_max":0,"o":"m 408 640 b 611 358 531 640 611 529 b 408 76 611 188 531 76 b 196 354 282 76 196 189 b 408 640 196 528 279 640 z m 726 0 l 726 1013 l 183 1013 l 183 911 l 611 911 l 611 629 b 386 749 557 711 486 749 b 75 367 194 749 75 603 b 392 -32 75 125 200 -32 b 622 93 493 -32 567 8 l 622 0 z "},"ƍ":{"ha":783,"x_min":0,"x_max":0,"o":"m 736 403 b 406 761 736 689 542 761 b 53 392 157 761 53 643 b 264 18 53 154 194 69 l 507 -174 l 133 -174 l 133 -274 l 686 -274 l 686 -174 l 393 51 b 440 46 410 49 418 46 b 736 403 617 46 736 189 z m 397 139 b 175 389 249 139 175 243 b 271 625 175 486 211 581 b 367 647 297 644 328 647 l 406 647 b 611 392 528 647 611 565 b 397 139 607 251 531 139 z "},"Ǝ":{"ha":926,"x_min":0,"x_max":0,"o":"m 722 461 l 722 114 l 125 114 l 125 0 l 851 0 l 851 1013 l 150 1013 l 150 899 l 722 899 l 722 575 l 171 575 l 171 461 z "},"Ə":{"ha":1003,"x_min":0,"x_max":0,"o":"m 215 350 l 794 350 b 482 82 754 183 642 82 b 215 350 265 82 233 224 z m 940 494 b 478 1029 940 706 847 1029 b 88 699 256 1029 128 921 l 219 699 b 493 915 249 840 328 915 b 811 496 689 915 811 756 b 810 464 811 485 811 475 l 65 464 b 483 -32 67 32 311 -32 b 940 494 849 -32 940 288 z "},"Ɛ":{"ha":926,"x_min":0,"x_max":0,"o":"m 463 -32 b 863 322 635 -32 858 35 l 740 322 l 740 315 b 454 82 740 211 683 82 b 196 265 235 82 196 194 b 422 446 196 344 290 446 l 572 446 l 572 560 l 450 560 b 231 750 326 560 231 672 b 457 921 231 853 321 921 b 710 715 618 921 708 847 l 832 715 b 461 1029 831 914 694 1029 b 101 732 239 1029 101 915 b 247 519 101 628 153 560 b 67 278 132 476 67 392 b 463 -32 67 153 146 -32 z "},"Ƒ":{"ha":849,"x_min":0,"x_max":0,"o":"m 125 -106 b 31 -187 125 -167 88 -187 b 3 -186 26 -187 26 -187 l 3 -299 b 42 -303 17 -301 24 -303 b 254 -151 172 -303 254 -250 l 254 461 l 738 461 l 738 575 l 254 575 l 254 899 l 804 899 l 804 1013 l 125 1013 z "},"ƒ":{"ha":386,"x_min":0,"x_max":0,"o":"m 358 728 l 238 728 l 238 842 b 318 915 238 890 265 915 b 358 914 328 915 332 915 l 358 1010 b 293 1017 332 1015 317 1017 b 122 851 186 1017 122 956 l 122 728 l 25 728 l 25 633 l 122 633 l 122 -106 b 28 -201 122 -178 99 -201 b 0 -200 24 -201 24 -201 l 0 -299 b 39 -303 14 -301 21 -303 b 238 -151 169 -303 238 -250 l 238 633 l 358 633 z "},"Ɠ":{"ha":1114,"x_min":0,"x_max":0,"o":"m 190 503 b 546 915 190 751 332 915 b 839 706 700 915 811 836 l 971 706 l 971 819 b 1051 893 971 875 999 893 b 1092 892 1061 893 1065 893 l 1092 1001 b 1026 1008 1065 1007 1050 1008 b 867 915 949 1008 892 975 b 547 1029 792 989 682 1029 b 61 496 158 1029 61 699 b 525 -32 61 185 251 -32 b 871 129 663 -32 772 19 l 903 -6 l 985 -6 l 985 535 l 563 535 l 563 421 l 871 421 l 871 393 b 553 82 871 213 738 82 b 190 503 263 82 190 340 z "},"Ɣ":{"ha":926,"x_min":0,"x_max":0,"o":"m 475 93 b 432 143 456 93 432 107 b 476 269 432 169 442 206 b 515 143 501 219 515 174 b 475 93 515 110 499 93 z m 301 142 b 475 -37 301 96 342 -37 b 644 153 564 -37 644 35 b 538 397 644 239 571 353 l 918 1013 l 764 1013 l 475 519 l 178 1013 l 18 1013 l 408 397 b 301 142 304 217 301 193 z "},"ƕ":{"ha":1235,"x_min":0,"x_max":0,"o":"m 776 -32 b 1157 346 1081 -32 1157 271 b 1001 654 1157 456 1093 583 l 860 649 b 1033 353 1013 542 1033 410 b 776 69 1033 296 996 69 b 675 135 729 69 675 83 l 675 550 b 446 749 675 672 588 749 b 213 628 343 749 281 717 l 213 1013 l 97 1013 l 97 0 l 213 0 l 213 401 b 410 647 213 550 290 647 b 560 504 469 647 560 618 l 560 83 b 700 -32 560 10 610 -32 z "},"Ɩ":{"ha":386,"x_min":0,"x_max":0,"o":"m 207 1013 l 92 1013 l 92 83 b 232 -32 92 10 142 -32 b 326 -22 260 -32 288 -29 l 326 75 b 271 69 311 71 293 69 b 207 135 221 69 207 83 z "},"Ɨ":{"ha":479,"x_min":0,"x_max":0,"o":"m 174 471 l 174 0 l 304 0 l 304 471 l 471 471 l 471 564 l 304 564 l 304 1013 l 174 1013 l 174 564 l 8 564 l 8 471 z "},"Ƙ":{"ha":926,"x_min":0,"x_max":0,"o":"m 239 354 l 404 519 l 761 0 l 914 0 l 497 600 l 732 836 b 819 879 749 853 772 879 b 856 865 826 879 842 879 l 933 951 b 814 994 915 968 883 994 b 639 910 775 994 713 979 l 239 500 l 239 1013 l 110 1013 l 110 0 l 239 0 z "},"ƙ":{"ha":694,"x_min":0,"x_max":0,"o":"m 81 0 l 196 0 l 196 283 l 308 394 l 554 0 l 697 0 l 400 476 l 653 728 l 504 728 l 196 419 l 196 842 b 276 915 196 890 224 915 b 317 914 286 915 290 915 l 317 1010 b 251 1017 290 1015 275 1017 b 81 851 144 1017 81 956 z "},"ƚ":{"ha":479,"x_min":0,"x_max":0,"o":"m 181 471 l 181 0 l 297 0 l 297 471 l 471 471 l 471 564 l 297 564 l 297 1013 l 181 1013 l 181 564 l 8 564 l 8 471 z "},"ƛ":{"ha":778,"x_min":0,"x_max":0,"o":"m 183 1017 b 106 1000 163 1017 136 1011 l 92 886 b 167 897 92 886 140 897 b 275 832 206 897 242 890 b 75 696 172 760 79 696 l 75 589 l 308 750 l 317 725 l 42 3 l 175 3 l 378 586 l 547 94 b 660 -14 568 35 588 -14 b 772 19 690 -14 728 -3 l 744 117 b 697 101 739 111 706 101 b 658 128 679 101 665 111 l 399 813 l 553 919 l 553 1025 l 364 893 b 183 1017 306 996 256 1017 z "},"Ɯ":{"ha":1157,"x_min":0,"x_max":0,"o":"m 1067 0 l 1067 1013 l 935 1013 l 935 286 b 771 96 935 181 865 96 b 644 242 685 96 644 149 l 644 1013 l 513 1013 l 513 286 b 349 96 513 181 443 96 b 221 242 264 96 221 150 l 221 1013 l 89 1013 l 89 182 b 308 -21 89 51 172 -21 b 532 90 406 -21 464 8 b 728 -21 575 13 633 -21 b 951 103 825 -21 889 15 l 951 0 z "},"Ɲ":{"ha":1003,"x_min":0,"x_max":0,"o":"m 106 -106 b 11 -194 106 -167 68 -194 b -17 -193 7 -194 7 -194 l -17 -299 b 22 -303 -3 -301 4 -303 b 228 -151 153 -303 228 -250 l 228 821 l 751 0 l 897 0 l 897 1013 l 775 1013 l 775 185 l 246 1013 l 106 1013 z "},"ƞ":{"ha":772,"x_min":0,"x_max":0,"o":"m 97 728 l 97 0 l 214 0 l 214 401 b 411 647 214 550 292 647 b 561 504 503 647 561 592 l 561 -278 l 676 -278 l 676 550 b 446 749 676 671 586 749 b 204 606 338 749 268 707 l 204 728 z "},"Ɵ":{"ha":1081,"x_min":0,"x_max":0,"o":"m 1031 490 b 540 1029 1031 817 838 1029 b 53 499 250 1029 53 815 b 542 -32 53 182 250 -32 b 1031 490 844 -32 1031 199 z m 900 535 l 183 535 b 540 915 196 764 338 915 b 900 535 747 915 886 767 z m 899 438 b 542 82 878 224 739 82 b 185 438 344 82 207 222 z "},"Ơ":{"ha":1094,"x_min":0,"x_max":0,"o":"m 540 915 b 901 493 760 915 901 749 b 542 82 901 249 756 82 b 182 499 326 82 182 249 b 540 915 182 749 326 915 z m 1031 490 b 946 817 1031 619 1000 731 b 1094 968 1032 829 1094 869 b 1043 1106 1094 1024 1076 1067 l 954 1031 b 978 971 969 1013 978 994 b 885 929 978 931 943 929 b 540 1029 836 929 736 1029 b 53 499 250 1029 53 815 b 542 -32 53 182 250 -32 b 1031 490 844 -32 1031 199 z "},"ơ":{"ha":785,"x_min":0,"x_max":0,"o":"m 379 642 b 588 354 510 642 588 535 b 379 75 588 183 507 75 b 171 358 250 75 171 182 b 379 642 171 533 250 642 z m 733 876 l 644 801 b 668 742 660 783 668 765 b 588 700 668 706 640 700 b 378 749 532 700 513 749 b 50 358 174 749 50 603 b 379 -32 50 114 172 -32 b 708 353 583 -32 708 114 b 657 592 708 449 690 529 b 785 739 733 608 785 649 b 733 876 785 794 767 838 z "},"Ƣ":{"ha":1311,"x_min":0,"x_max":0,"o":"m 540 915 b 901 493 760 915 901 749 b 542 82 901 249 756 82 b 182 499 326 82 182 249 b 540 915 182 749 326 915 z m 1031 490 b 908 869 1031 646 986 776 b 1058 933 954 913 982 933 b 1153 818 1136 933 1153 858 l 1153 0 l 1283 0 l 1283 776 b 1067 1036 1283 917 1231 1036 b 817 951 968 1036 882 999 b 540 1029 740 1001 647 1029 b 53 499 250 1029 53 815 b 542 -32 53 182 250 -32 b 1031 490 844 -32 1031 199 z "},"ƣ":{"ha":1003,"x_min":0,"x_max":0,"o":"m 379 642 b 588 354 510 642 588 535 b 379 75 588 183 507 75 b 171 358 250 75 171 182 b 379 642 171 533 250 642 z m 933 513 b 747 749 933 700 869 749 b 572 692 678 749 618 721 b 378 749 521 729 456 749 b 50 358 174 749 50 603 b 379 -32 50 114 172 -32 b 708 353 583 -32 708 114 b 636 626 708 467 683 560 b 739 653 669 644 694 653 b 817 540 808 653 817 600 l 817 -278 l 933 -278 z "},"Ƥ":{"ha":1169,"x_min":0,"x_max":0,"o":"m 499 543 l 499 899 l 768 899 b 965 721 892 899 965 832 b 768 543 965 610 892 543 z m 1100 715 b 788 1013 1100 906 988 1013 l 250 1013 b 67 836 103 1013 67 908 b 238 622 67 715 107 622 b 303 629 261 622 276 624 l 303 739 b 263 738 276 739 272 738 b 188 811 210 738 188 771 b 256 892 188 853 200 892 l 369 892 l 369 0 l 499 0 l 499 429 l 817 429 b 1100 715 983 429 1100 542 z "},"ƥ":{"ha":772,"x_min":0,"x_max":0,"o":"m 394 640 b 606 354 522 640 606 528 b 394 76 606 189 521 76 b 192 358 272 76 192 188 b 394 640 192 529 272 640 z m 182 842 b 263 915 182 890 210 915 b 303 914 272 915 276 915 l 303 1010 b 240 1017 276 1015 264 1017 b 75 851 133 1017 75 956 l 75 -303 l 192 -303 l 192 76 b 415 -32 253 1 321 -32 b 726 351 603 -32 726 119 b 414 749 726 596 607 749 b 182 618 315 749 236 704 z "},"Ʀ":{"ha":925,"x_min":0,"x_max":0,"o":"m 256 376 l 256 732 l 525 732 b 717 554 646 732 717 665 b 525 376 717 443 646 376 z m 256 263 l 546 263 b 713 82 658 263 713 207 l 713 -8 b 740 -174 713 -71 722 -132 l 897 -174 l 897 -142 b 838 50 850 -112 838 -35 b 736 310 838 146 817 263 b 856 551 810 360 856 446 b 544 846 856 735 738 846 l 256 846 l 256 1013 l 126 1013 l 126 0 l 256 0 z "},"Ƨ":{"ha":926,"x_min":0,"x_max":0,"o":"m 454 82 b 196 265 235 82 196 193 b 382 429 196 344 254 396 l 633 496 b 832 732 767 531 832 608 b 472 1029 832 915 694 1029 b 101 715 239 1029 103 914 l 224 715 b 476 921 225 847 315 921 b 703 750 613 921 703 853 b 536 600 703 672 658 633 l 282 532 b 67 278 144 494 67 403 b 463 -32 67 154 146 -32 b 863 322 638 -32 858 35 l 740 322 l 740 315 b 454 82 740 213 683 82 z "},"ƨ":{"ha":694,"x_min":0,"x_max":0,"o":"m 515 217 b 338 75 506 146 479 75 b 168 189 236 75 168 121 b 281 290 168 242 200 271 l 389 317 b 619 526 561 358 619 413 b 340 749 619 661 510 749 b 76 525 172 749 78 668 l 199 525 b 344 642 201 601 251 642 b 499 532 439 642 499 599 b 364 428 499 481 458 450 l 253 401 b 47 199 108 367 47 307 b 347 -32 47 58 164 -32 b 638 217 538 -32 632 49 z "},"Ʃ":{"ha":849,"x_min":0,"x_max":0,"o":"m 343 507 l 39 114 l 39 0 l 810 0 l 810 114 l 201 114 l 506 507 l 201 899 l 771 899 l 771 1013 l 42 1013 l 42 896 z "},"ƪ":{"ha":463,"x_min":0,"x_max":0,"o":"m 146 931 b 232 846 194 931 232 894 b 146 763 232 801 193 763 b 60 847 99 763 60 801 b 146 931 60 892 99 931 z m 201 686 l 201 -151 b 401 -303 201 -250 271 -303 b 440 -299 419 -303 426 -301 l 440 -200 b 413 -201 417 -201 417 -201 b 317 -106 342 -201 317 -178 l 317 844 b 146 1017 317 947 253 1017 b -25 847 53 1017 -25 939 b 146 676 -25 754 53 676 b 201 686 165 676 183 679 z "},"ƫ":{"ha":386,"x_min":0,"x_max":0,"o":"m 236 -31 l 236 -106 b 142 -201 236 -178 213 -201 b 114 -200 138 -201 138 -201 l 114 -299 b 153 -303 128 -301 135 -303 b 353 -151 283 -303 353 -250 l 353 75 b 297 69 338 71 319 69 b 233 135 247 69 233 83 l 233 633 l 353 633 l 353 728 l 233 728 l 233 928 l 118 928 l 118 728 l 19 728 l 19 633 l 118 633 l 118 83 b 236 -31 118 17 160 -25 z "},"Ƭ":{"ha":849,"x_min":0,"x_max":0,"o":"m 0 836 b 171 622 0 715 40 622 b 236 629 194 622 210 624 l 236 739 b 196 738 210 738 206 738 b 121 818 164 738 121 750 b 189 899 121 860 136 899 l 303 899 l 363 899 l 363 0 l 492 0 l 492 899 l 824 899 l 824 1013 l 183 1013 b 0 836 33 1010 0 910 z "},"ƭ":{"ha":386,"x_min":0,"x_max":0,"o":"m 233 842 b 314 915 233 890 261 915 b 354 914 324 915 328 915 l 354 1010 b 289 1017 328 1015 313 1017 b 118 851 182 1017 118 956 l 118 728 l 19 728 l 19 633 l 118 633 l 118 83 b 258 -32 118 10 168 -32 b 353 -22 286 -32 314 -29 l 353 75 b 297 69 338 71 319 69 b 233 135 247 69 233 83 l 233 633 l 353 633 l 353 728 l 233 728 z "},"Ʈ":{"ha":849,"x_min":0,"x_max":0,"o":"m 363 -151 b 575 -303 363 -250 444 -303 b 614 -299 593 -303 600 -301 l 614 -186 b 586 -187 590 -187 590 -187 b 492 -106 529 -187 492 -167 l 492 899 l 824 899 l 824 1013 l 29 1013 l 29 899 l 363 899 z "},"Ư":{"ha":1078,"x_min":0,"x_max":0,"o":"m 1026 1189 l 938 1114 b 961 1054 953 1096 961 1078 b 896 1013 961 1018 933 1014 l 767 1013 l 767 301 b 506 82 767 165 668 82 b 247 301 357 82 247 149 l 247 1013 l 118 1013 l 118 301 b 506 -32 118 96 265 -32 b 896 301 743 -32 896 99 l 896 897 b 1078 1051 1000 904 1078 942 b 1026 1189 1078 1107 1060 1150 z "},"ư":{"ha":867,"x_min":0,"x_max":0,"o":"m 814 904 l 725 829 b 749 769 740 811 749 793 b 683 728 749 733 721 729 l 554 728 l 554 315 b 356 69 554 167 476 69 b 206 213 264 69 206 125 l 206 728 l 90 728 l 90 167 b 322 -32 90 46 181 -32 b 565 101 429 -32 497 6 l 565 0 l 669 0 l 669 611 b 865 767 779 615 865 651 b 814 904 865 822 847 865 z "},"Ʊ":{"ha":1081,"x_min":0,"x_max":0,"o":"m 421 907 l 421 1013 l 40 1013 l 40 913 l 285 913 b 24 464 133 833 24 663 b 507 -6 24 203 217 -6 b 964 469 776 -6 964 221 b 729 913 964 657 875 826 l 957 913 l 957 1013 l 590 1013 l 590 907 b 843 471 732 843 843 656 b 504 96 843 276 714 96 b 150 467 292 96 150 261 b 421 907 150 726 353 879 z "},"Ʋ":{"ha":1003,"x_min":0,"x_max":0,"o":"m 464 -32 b 917 481 731 -32 917 150 b 719 1013 917 659 847 842 l 569 1013 b 788 467 693 825 787 683 l 788 463 b 422 82 788 163 591 82 b 247 232 350 82 247 108 l 247 1013 l 118 1013 l 118 288 b 464 -32 118 0 289 -32 z "},"Ƴ":{"ha":1003,"x_min":0,"x_max":0,"o":"m 932 857 b 983 967 932 857 982 965 b 864 1013 953 986 924 1013 b 711 924 775 1013 731 951 l 471 519 l 174 1013 l 14 1013 l 404 397 l 404 0 l 533 0 l 533 397 l 782 800 b 868 886 797 824 824 886 b 932 857 888 886 914 875 z "},"ƴ":{"ha":772,"x_min":0,"x_max":0,"o":"m 607 572 b 700 643 626 624 651 643 b 761 635 717 643 736 640 l 761 739 b 683 757 738 751 714 757 b 496 607 604 757 536 714 l 338 161 l 151 728 l 28 728 l 274 0 l 229 -118 b 136 -189 211 -169 185 -189 b 75 -181 119 -189 100 -186 l 75 -285 b 153 -303 99 -297 122 -303 b 340 -153 232 -303 300 -260 z "},"Ƶ":{"ha":849,"x_min":0,"x_max":0,"o":"m 807 1013 l 78 1013 l 78 899 l 647 899 l 388 564 l 194 564 l 194 471 l 315 471 l 39 114 l 39 0 l 810 0 l 810 114 l 201 114 l 478 471 l 657 471 l 657 564 l 550 564 l 807 896 z "},"ƶ":{"ha":694,"x_min":0,"x_max":0,"o":"m 615 728 l 72 728 l 72 626 l 478 626 l 304 418 l 97 418 l 97 325 l 226 325 l 43 104 l 43 0 l 635 0 l 635 101 l 183 101 l 368 325 l 560 325 l 560 418 l 444 418 l 615 625 z "},"Ʒ":{"ha":849,"x_min":0,"x_max":0,"o":"m 451 647 b 346 597 426 619 408 597 l 346 493 b 675 274 481 493 675 464 b 415 76 675 150 561 76 b 167 286 263 76 175 143 l 44 286 b 411 -32 60 72 185 -32 b 800 275 640 -32 799 89 l 800 279 b 557 574 800 494 677 545 l 807 896 l 807 1013 l 78 1013 l 78 899 l 647 899 z "},"Ƹ":{"ha":849,"x_min":0,"x_max":0,"o":"m 400 647 l 204 899 l 774 899 l 774 1013 l 44 1013 l 44 896 l 294 574 b 51 279 174 545 51 494 b 51 275 51 277 51 276 b 440 -32 53 89 211 -32 b 807 286 667 -32 792 72 l 685 286 b 436 76 676 143 589 76 b 176 274 290 76 176 150 b 506 493 176 464 371 493 l 506 597 b 400 647 443 597 425 619 z "},"ƹ":{"ha":694,"x_min":0,"x_max":0,"o":"m 275 383 b 17 108 115 364 17 275 b 350 -199 17 -78 147 -199 b 675 119 556 -199 660 -94 l 553 119 b 346 -90 544 -24 479 -90 b 142 107 218 -90 142 -17 b 346 285 142 225 211 285 l 413 285 l 413 389 l 214 626 l 619 626 l 619 728 l 76 728 l 76 625 z "},"ƺ":{"ha":694,"x_min":0,"x_max":0,"o":"m 417 383 l 615 625 l 615 728 l 72 728 l 72 626 l 478 626 l 279 389 l 279 285 l 346 285 b 561 143 483 285 561 219 b 360 4 561 45 431 4 b 180 26 329 4 251 26 b 47 -83 110 26 47 4 b 317 -281 47 -200 131 -281 b 606 -222 456 -281 544 -244 l 574 -126 b 317 -179 531 -143 436 -179 b 157 -96 217 -179 157 -149 b 191 -73 157 -79 170 -73 b 360 -97 234 -73 307 -97 b 671 150 538 -97 671 0 b 417 383 671 281 589 364 z "},"ƻ":{"ha":772,"x_min":0,"x_max":0,"o":"m 69 643 l 192 643 b 390 878 197 735 221 878 b 585 693 501 878 585 799 b 451 499 585 615 539 549 l 397 468 l 174 560 l 174 453 l 289 406 b 47 0 111 299 58 204 l 703 0 l 703 121 l 185 121 b 363 324 197 201 239 257 l 418 353 l 650 258 l 650 365 l 529 415 b 710 696 649 488 710 583 b 394 985 710 867 581 985 b 69 643 260 985 78 940 z "},"ƾ":{"ha":772,"x_min":0,"x_max":0,"o":"m 689 238 b 433 603 689 472 433 447 l 433 633 l 553 633 l 553 728 l 433 728 l 433 928 l 318 928 l 318 728 l 219 728 l 219 633 l 318 633 l 318 592 b 574 229 318 358 574 436 b 386 71 574 117 496 71 b 199 296 240 71 199 189 l 89 296 b 393 -29 89 94 199 -29 b 689 238 557 -29 689 58 z "},"ƿ":{"ha":772,"x_min":0,"x_max":0,"o":"m 192 500 b 471 642 300 614 408 642 b 606 528 542 642 606 608 b 192 36 606 299 319 119 z m 192 -87 b 729 511 342 0 729 213 b 517 750 729 660 635 750 b 192 617 380 750 308 731 l 192 728 l 75 728 l 75 -303 l 192 -303 z "},"ǀ":{"ha":361,"x_min":0,"x_max":0,"o":"m 139 1013 l 139 -294 l 222 -294 l 222 1013 z "},"ǁ":{"ha":514,"x_min":0,"x_max":0,"o":"m 292 1013 l 292 -294 l 375 -294 l 375 1013 z m 139 1013 l 139 -294 l 222 -294 l 222 1013 z "},"ǂ":{"ha":811,"x_min":0,"x_max":0,"o":"m 361 1013 l 361 490 l 69 490 l 69 393 l 361 393 l 361 251 l 69 251 l 69 154 l 361 154 l 361 -294 l 444 -294 l 444 154 l 742 154 l 742 251 l 444 251 l 444 393 l 742 393 l 742 490 l 444 490 l 444 1013 z "},"ǃ":{"ha":386,"x_min":0,"x_max":0,"o":"m 289 1013 l 174 1013 l 174 543 l 204 233 l 258 233 l 289 543 z m 289 144 l 172 144 l 172 0 l 289 0 z "},"Ǆ":{"ha":1821,"x_min":0,"x_max":0,"o":"m 1481 1078 l 1614 1286 l 1525 1286 l 1415 1153 l 1303 1286 l 1215 1286 l 1349 1078 z m 1779 1013 l 1050 1013 l 1050 899 l 1619 899 l 1011 114 l 1011 0 l 1782 0 l 1782 114 l 1174 114 l 1779 896 z m 124 0 l 514 0 b 926 507 769 0 926 192 b 514 1013 926 821 771 1013 l 124 1013 z m 253 114 l 253 899 l 492 899 b 797 506 692 899 797 764 b 492 114 797 250 692 114 z "},"ǅ":{"ha":1678,"x_min":0,"x_max":0,"o":"m 1397 810 l 1531 1018 l 1442 1018 l 1332 885 l 1219 1018 l 1132 1018 l 1265 810 z m 1599 728 l 1056 728 l 1056 626 l 1461 626 l 1026 104 l 1026 0 l 1618 0 l 1618 101 l 1167 101 l 1599 625 z m 124 0 l 514 0 b 926 507 769 0 926 192 b 514 1013 926 821 771 1013 l 124 1013 z m 253 114 l 253 899 l 492 899 b 797 506 692 899 797 764 b 492 114 797 250 692 114 z "},"ǆ":{"ha":1467,"x_min":0,"x_max":0,"o":"m 1186 810 l 1319 1018 l 1231 1018 l 1121 885 l 1008 1018 l 921 1018 l 1054 810 z m 1388 728 l 844 728 l 844 626 l 1250 626 l 815 104 l 815 0 l 1407 0 l 1407 101 l 956 101 l 1388 625 z m 688 1013 l 572 1013 l 572 636 b 349 749 524 710 446 749 b 36 365 160 749 36 597 b 353 -32 36 119 157 -32 b 585 96 453 -32 522 6 l 585 0 l 688 0 z m 368 640 b 572 356 493 640 572 529 b 369 76 572 188 492 76 b 157 358 242 76 157 189 b 368 640 157 528 242 640 z "},"Ǉ":{"ha":1467,"x_min":0,"x_max":0,"o":"m 1079 76 b 928 260 982 76 928 142 l 928 325 l 796 325 l 796 236 b 1078 -32 796 72 904 -32 b 1364 253 1254 -32 1364 78 l 1364 1013 l 1235 1013 l 1235 300 b 1079 76 1235 172 1206 76 z m 240 1013 l 111 1013 l 111 0 l 740 0 l 740 114 l 240 114 z "},"ǈ":{"ha":1081,"x_min":0,"x_max":0,"o":"m 869 728 l 869 -106 b 779 -203 869 -178 847 -203 b 747 -200 770 -203 757 -202 l 747 -299 b 786 -303 761 -301 768 -303 b 985 -151 917 -303 985 -250 l 985 728 z m 985 1013 l 869 1013 l 869 867 l 985 867 z m 240 1013 l 111 1013 l 111 0 l 740 0 l 740 114 l 240 114 z "},"ǉ":{"ha":617,"x_min":0,"x_max":0,"o":"m 406 728 l 406 -106 b 315 -203 406 -178 383 -203 b 283 -200 306 -203 294 -202 l 283 -299 b 322 -303 297 -301 304 -303 b 521 -151 453 -303 521 -250 l 521 728 z m 521 1013 l 406 1013 l 406 867 l 521 867 z m 211 1013 l 94 1013 l 94 0 l 211 0 z "},"Ǌ":{"ha":1608,"x_min":0,"x_max":0,"o":"m 1290 76 b 1139 260 1193 76 1139 142 l 1139 325 l 1007 325 l 1007 236 b 1289 -32 1007 72 1115 -32 b 1575 253 1465 -32 1575 78 l 1575 1013 l 1446 1013 l 1446 300 b 1290 76 1446 172 1417 76 z m 897 1013 l 775 1013 l 775 185 l 246 1013 l 106 1013 l 106 0 l 228 0 l 228 821 l 751 0 l 897 0 z "},"ǋ":{"ha":1311,"x_min":0,"x_max":0,"o":"m 1100 728 l 1100 -106 b 1010 -203 1100 -178 1077 -203 b 978 -200 1000 -203 988 -202 l 978 -299 b 1017 -303 992 -301 999 -303 b 1215 -151 1147 -303 1215 -250 l 1215 728 z m 1215 1013 l 1100 1013 l 1100 867 l 1215 867 z m 897 1013 l 775 1013 l 775 185 l 246 1013 l 106 1013 l 106 0 l 228 0 l 228 821 l 751 0 l 897 0 z "},"ǌ":{"ha":1081,"x_min":0,"x_max":0,"o":"m 869 728 l 869 -106 b 779 -203 869 -178 847 -203 b 747 -200 770 -203 757 -202 l 747 -299 b 786 -303 761 -301 768 -303 b 985 -151 917 -303 985 -250 l 985 728 z m 985 1013 l 869 1013 l 869 867 l 985 867 z m 97 728 l 97 0 l 214 0 l 214 401 b 411 647 214 550 292 647 b 561 504 503 647 561 592 l 561 0 l 676 0 l 676 550 b 446 749 676 671 586 749 b 204 606 338 749 268 707 l 204 728 z "},"Ǎ":{"ha":926,"x_min":0,"x_max":0,"o":"m 533 1085 l 667 1293 l 578 1293 l 468 1160 l 356 1293 l 268 1293 l 401 1085 z m 658 304 l 763 0 l 907 0 l 551 1013 l 385 1013 l 24 0 l 161 0 l 268 304 z m 622 413 l 300 413 l 467 874 z "},"ǎ":{"ha":772,"x_min":0,"x_max":0,"o":"m 447 804 l 581 1013 l 492 1013 l 382 879 l 269 1013 l 182 1013 l 315 804 z m 90 513 l 207 513 b 378 642 217 601 269 642 b 540 533 482 642 540 603 l 540 503 b 419 422 540 454 511 433 b 58 183 207 394 58 378 b 297 -32 58 51 150 -32 b 544 75 389 -32 463 0 b 664 -32 553 1 589 -32 b 743 -19 688 -32 706 -29 l 743 68 b 718 65 731 65 725 65 b 656 122 678 65 656 86 l 656 550 b 382 749 656 679 561 749 b 90 513 251 749 97 710 z m 322 69 b 179 186 232 69 179 113 b 540 360 179 346 422 306 l 540 229 b 322 69 540 160 460 69 z "},"Ǐ":{"ha":386,"x_min":0,"x_max":0,"o":"m 269 1085 l 403 1293 l 314 1293 l 204 1160 l 92 1293 l 4 1293 l 138 1085 z m 269 1013 l 139 1013 l 139 0 l 269 0 z "},"ǐ":{"ha":349,"x_min":0,"x_max":0,"o":"m 242 804 l 375 1013 l 286 1013 l 176 879 l 64 1013 l -24 1013 l 110 804 z m 232 728 l 117 728 l 117 0 l 232 0 z "},"Ǒ":{"ha":1081,"x_min":0,"x_max":0,"o":"m 606 1078 l 739 1286 l 650 1286 l 540 1153 l 428 1286 l 340 1286 l 474 1078 z m 1031 490 b 540 1029 1031 817 838 1029 b 53 499 250 1029 53 815 b 542 -32 53 182 250 -32 b 1031 490 844 -32 1031 199 z m 540 915 b 901 493 760 915 901 749 b 542 82 901 249 756 82 b 182 499 326 82 182 249 b 540 915 182 749 326 915 z "},"ǒ":{"ha":772,"x_min":0,"x_max":0,"o":"m 444 804 l 578 1013 l 489 1013 l 379 879 l 267 1013 l 179 1013 l 313 804 z m 378 749 b 50 358 174 749 50 603 b 379 -32 50 114 172 -32 b 708 353 583 -32 708 114 b 378 749 708 604 588 749 z m 379 642 b 588 354 510 642 588 535 b 379 75 588 183 507 75 b 171 358 250 75 171 182 b 379 642 171 533 250 642 z "},"Ǔ":{"ha":1003,"x_min":0,"x_max":0,"o":"m 572 1078 l 706 1286 l 617 1286 l 507 1153 l 394 1286 l 307 1286 l 440 1078 z m 767 1013 l 767 301 b 506 82 767 165 668 82 b 247 301 357 82 247 149 l 247 1013 l 118 1013 l 118 301 b 506 -32 118 96 265 -32 b 896 301 743 -32 896 99 l 896 1013 z "},"ǔ":{"ha":772,"x_min":0,"x_max":0,"o":"m 446 804 l 579 1013 l 490 1013 l 381 879 l 268 1013 l 181 1013 l 314 804 z m 669 0 l 669 728 l 554 728 l 554 315 b 356 69 554 167 476 69 b 206 213 264 69 206 125 l 206 728 l 90 728 l 90 167 b 322 -32 90 46 181 -32 b 565 101 429 -32 497 6 l 565 0 z "},"Ǖ":{"ha":1003,"x_min":0,"x_max":0,"o":"m 706 1171 l 561 1171 l 561 1026 l 706 1026 z m 457 1171 l 313 1171 l 313 1026 l 457 1026 z m 767 1013 l 767 301 b 506 82 767 165 668 82 b 247 301 357 82 247 149 l 247 1013 l 118 1013 l 118 301 b 506 -32 118 96 265 -32 b 896 301 743 -32 896 99 l 896 1013 z m 697 1321 l 317 1321 l 317 1224 l 697 1224 z "},"ǖ":{"ha":772,"x_min":0,"x_max":0,"o":"m 581 957 l 436 957 l 436 813 l 581 813 z m 332 957 l 188 957 l 188 813 l 332 813 z m 669 0 l 669 728 l 554 728 l 554 315 b 356 69 554 167 476 69 b 206 213 264 69 206 125 l 206 728 l 90 728 l 90 167 b 322 -32 90 46 181 -32 b 565 101 429 -32 497 6 l 565 0 z m 571 1140 l 190 1140 l 190 1043 l 571 1043 z "},"Ǘ":{"ha":1003,"x_min":0,"x_max":0,"o":"m 708 1171 l 564 1171 l 564 1026 l 708 1026 z m 460 1171 l 315 1171 l 315 1026 l 460 1026 z m 767 1013 l 767 301 b 506 82 767 165 668 82 b 247 301 357 82 247 149 l 247 1013 l 118 1013 l 118 301 b 506 -32 118 96 265 -32 b 896 301 743 -32 896 99 l 896 1013 z m 557 1389 l 424 1183 l 507 1183 l 714 1389 z "},"ǘ":{"ha":772,"x_min":0,"x_max":0,"o":"m 581 971 l 436 971 l 436 826 l 581 826 z m 332 971 l 188 971 l 188 826 l 332 826 z m 669 0 l 669 728 l 554 728 l 554 315 b 356 69 554 167 476 69 b 206 213 264 69 206 125 l 206 728 l 90 728 l 90 167 b 322 -32 90 46 181 -32 b 565 101 429 -32 497 6 l 565 0 z m 472 1254 l 339 1049 l 422 1049 l 629 1254 z "},"Ǚ":{"ha":1003,"x_min":0,"x_max":0,"o":"m 708 1150 l 564 1150 l 564 1006 l 708 1006 z m 460 1150 l 315 1150 l 315 1006 l 460 1006 z m 767 1013 l 767 301 b 506 82 767 165 668 82 b 247 301 357 82 247 149 l 247 1013 l 118 1013 l 118 301 b 506 -32 118 96 265 -32 b 896 301 743 -32 896 99 l 896 1013 z m 572 1181 l 706 1389 l 617 1389 l 507 1256 l 394 1389 l 307 1389 l 440 1181 z "},"ǚ":{"ha":772,"x_min":0,"x_max":0,"o":"m 581 957 l 436 957 l 436 813 l 581 813 z m 332 957 l 188 957 l 188 813 l 332 813 z m 669 0 l 669 728 l 554 728 l 554 315 b 356 69 554 167 476 69 b 206 213 264 69 206 125 l 206 728 l 90 728 l 90 167 b 322 -32 90 46 181 -32 b 565 101 429 -32 497 6 l 565 0 z m 447 1049 l 581 1257 l 492 1257 l 382 1124 l 269 1257 l 182 1257 l 315 1049 z "},"Ǜ":{"ha":1003,"x_min":0,"x_max":0,"o":"m 708 1171 l 564 1171 l 564 1026 l 708 1026 z m 460 1171 l 315 1171 l 315 1026 l 460 1026 z m 767 1013 l 767 301 b 506 82 767 165 668 82 b 247 301 357 82 247 149 l 247 1013 l 118 1013 l 118 301 b 506 -32 118 96 265 -32 b 896 301 743 -32 896 99 l 896 1013 z m 458 1389 l 301 1389 l 508 1183 l 592 1183 z "},"ǜ":{"ha":772,"x_min":0,"x_max":0,"o":"m 581 957 l 436 957 l 436 813 l 581 813 z m 332 957 l 188 957 l 188 813 l 332 813 z m 669 0 l 669 728 l 554 728 l 554 315 b 356 69 554 167 476 69 b 206 213 264 69 206 125 l 206 728 l 90 728 l 90 167 b 322 -32 90 46 181 -32 b 565 101 429 -32 497 6 l 565 0 z m 289 1254 l 132 1254 l 339 1049 l 422 1049 z "},"ǝ":{"ha":772,"x_min":0,"x_max":0,"o":"m 56 392 b 85 160 56 281 64 214 b 379 -32 132 40 243 -32 b 713 363 582 -32 713 124 b 382 749 713 601 586 749 b 71 496 215 749 100 654 l 188 496 b 378 642 219 592 285 642 b 553 547 451 642 514 608 b 592 392 581 506 590 464 z m 589 297 b 381 75 579 163 497 75 b 179 289 267 75 179 169 b 181 297 179 292 179 294 z "},"Ǟ":{"ha":926,"x_min":0,"x_max":0,"o":"m 669 1190 l 525 1190 l 525 1046 l 669 1046 z m 421 1190 l 276 1190 l 276 1046 l 421 1046 z m 658 304 l 763 0 l 907 0 l 551 1013 l 385 1013 l 24 0 l 161 0 l 268 304 z m 622 413 l 300 413 l 467 874 z m 656 1349 l 275 1349 l 275 1251 l 656 1251 z "},"ǟ":{"ha":772,"x_min":0,"x_max":0,"o":"m 583 968 l 439 968 l 439 824 l 583 824 z m 335 968 l 190 968 l 190 824 l 335 824 z m 90 513 l 207 513 b 378 642 217 601 269 642 b 540 533 482 642 540 603 l 540 503 b 419 422 540 454 511 433 b 58 183 207 394 58 378 b 297 -32 58 51 150 -32 b 544 75 389 -32 463 0 b 664 -32 553 1 589 -32 b 743 -19 688 -32 706 -29 l 743 68 b 718 65 731 65 725 65 b 656 122 678 65 656 86 l 656 550 b 382 749 656 679 561 749 b 90 513 251 749 97 710 z m 322 69 b 179 186 232 69 179 113 b 540 360 179 346 422 306 l 540 229 b 322 69 540 160 460 69 z m 569 1146 l 189 1146 l 189 1049 l 569 1049 z "},"Ǡ":{"ha":926,"x_min":0,"x_max":0,"o":"m 540 1188 l 396 1188 l 396 1043 l 540 1043 z m 658 304 l 763 0 l 907 0 l 551 1013 l 385 1013 l 24 0 l 161 0 l 268 304 z m 622 413 l 300 413 l 467 874 z m 658 1336 l 278 1336 l 278 1239 l 658 1239 z "},"ǡ":{"ha":772,"x_min":0,"x_max":0,"o":"m 454 954 l 310 954 l 310 810 l 454 810 z m 90 513 l 207 513 b 378 642 217 601 269 642 b 540 533 482 642 540 603 l 540 503 b 419 422 540 454 511 433 b 58 183 207 394 58 378 b 297 -32 58 51 150 -32 b 544 75 389 -32 463 0 b 664 -32 553 1 589 -32 b 743 -19 688 -32 706 -29 l 743 68 b 718 65 731 65 725 65 b 656 122 678 65 656 86 l 656 550 b 382 749 656 679 561 749 b 90 513 251 749 97 710 z m 322 69 b 179 186 232 69 179 113 b 540 360 179 346 422 306 l 540 229 b 322 69 540 160 460 69 z m 572 1113 l 192 1113 l 192 1015 l 572 1015 z "},"Ǣ":{"ha":1389,"x_min":0,"x_max":0,"o":"m 1053 1210 l 672 1210 l 672 1113 l 1053 1113 z m 650 297 l 650 0 l 1319 0 l 1319 114 l 779 114 l 779 461 l 1268 461 l 1268 575 l 779 575 l 779 899 l 1294 899 l 1294 1013 l 431 1013 l 15 0 l 158 0 l 276 297 z m 650 411 l 319 411 l 511 899 l 650 899 z "},"ǣ":{"ha":1244,"x_min":0,"x_max":0,"o":"m 800 974 l 419 974 l 419 876 l 800 876 z m 649 325 l 1185 325 b 1156 557 1185 436 1176 503 b 863 749 1108 675 997 749 b 622 635 763 749 672 706 b 379 749 579 710 497 749 b 90 513 253 749 97 710 l 207 513 b 376 642 217 601 269 642 b 540 533 483 642 540 604 l 540 503 b 419 421 540 449 514 429 b 58 183 207 403 58 365 b 292 -32 58 53 150 -32 b 592 121 400 -32 488 13 b 861 -32 600 107 660 -32 b 1171 221 1025 -32 1142 63 l 1054 221 b 863 75 1021 125 956 75 b 649 325 776 75 653 122 z m 318 69 b 179 186 232 69 179 114 b 540 358 179 346 403 299 l 540 218 b 318 69 540 188 467 69 z m 651 419 b 860 642 661 554 743 642 b 1060 419 978 642 1060 551 z "},"Ǥ":{"ha":1081,"x_min":0,"x_max":0,"o":"m 190 503 b 546 915 190 751 332 915 b 839 706 700 915 811 836 l 971 706 b 547 1029 935 911 779 1029 b 61 496 158 1029 61 699 b 525 -32 61 185 251 -32 b 871 129 663 -32 772 19 l 903 -6 l 985 -6 l 985 253 l 1058 253 l 1058 333 l 985 333 l 985 535 l 563 535 l 563 421 l 871 421 l 871 393 b 865 333 871 372 869 353 l 563 333 l 563 253 l 840 253 b 553 82 790 149 685 82 b 190 503 263 82 190 340 z "},"ǥ":{"ha":772,"x_min":0,"x_max":0,"o":"m 363 642 b 561 354 488 642 561 536 b 364 75 561 181 486 75 b 161 358 238 75 161 182 b 363 642 161 533 239 642 z m 182 -83 l 64 -83 b 354 -303 76 -221 183 -303 b 640 -150 494 -303 597 -250 l 714 -150 l 714 -78 l 664 -78 b 679 119 675 -26 679 38 l 679 728 l 572 728 l 572 622 b 350 749 514 708 443 749 b 40 351 165 749 40 588 b 340 -32 40 114 175 -32 b 561 99 432 -32 496 7 l 561 61 b 547 -78 561 3 557 -43 l 372 -78 l 372 -150 l 510 -150 b 358 -206 476 -185 422 -206 b 182 -83 322 -206 201 -201 z "},"Ǧ":{"ha":1081,"x_min":0,"x_max":0,"o":"m 614 1078 l 747 1286 l 658 1286 l 549 1153 l 436 1286 l 349 1286 l 482 1078 z m 190 503 b 546 915 190 751 332 915 b 839 706 700 915 811 836 l 971 706 b 547 1029 935 911 779 1029 b 61 496 158 1029 61 699 b 525 -32 61 185 251 -32 b 871 129 663 -32 772 19 l 903 -6 l 985 -6 l 985 535 l 563 535 l 563 421 l 871 421 l 871 393 b 553 82 871 213 738 82 b 190 503 263 82 190 340 z "},"ǧ":{"ha":772,"x_min":0,"x_max":0,"o":"m 417 804 l 550 1013 l 461 1013 l 351 879 l 239 1013 l 151 1013 l 285 804 z m 340 -32 b 561 99 432 -32 496 7 l 561 61 b 358 -206 561 -106 522 -206 b 182 -83 322 -206 201 -201 l 64 -83 b 354 -303 76 -221 183 -303 b 679 119 631 -303 679 -133 l 679 728 l 572 728 l 572 622 b 350 749 514 708 443 749 b 40 351 165 749 40 588 b 340 -32 40 114 175 -32 z m 363 642 b 561 354 488 642 561 536 b 364 75 561 181 486 75 b 161 358 238 75 161 182 b 363 642 161 533 239 642 z "},"Ǩ":{"ha":926,"x_min":0,"x_max":0,"o":"m 575 1078 l 708 1286 l 619 1286 l 510 1153 l 397 1286 l 310 1286 l 443 1078 z m 239 354 l 404 519 l 761 0 l 914 0 l 497 600 l 910 1013 l 743 1013 l 239 500 l 239 1013 l 110 1013 l 110 0 l 239 0 z "},"ǩ":{"ha":694,"x_min":0,"x_max":0,"o":"m 433 1018 l 567 1226 l 478 1226 l 368 1093 l 256 1226 l 168 1226 l 301 1018 z m 196 1013 l 81 1013 l 81 0 l 196 0 l 196 283 l 308 394 l 554 0 l 697 0 l 400 476 l 653 728 l 504 728 l 196 419 z "},"Ǫ":{"ha":1081,"x_min":0,"x_max":0,"o":"m 542 -307 b 647 -293 568 -307 614 -300 l 647 -231 b 560 -244 622 -240 593 -244 b 460 -169 494 -244 460 -218 b 575 -31 460 -114 486 -83 b 1031 490 858 -15 1031 209 b 540 1029 1031 817 838 1029 b 53 499 250 1029 53 815 b 477 -28 53 206 221 1 b 358 -176 402 -60 358 -114 b 542 -307 358 -257 440 -307 z m 540 915 b 901 493 760 915 901 749 b 542 82 901 249 756 82 b 182 499 326 82 182 249 b 540 915 182 749 326 915 z "},"ǫ":{"ha":772,"x_min":0,"x_max":0,"o":"m 379 -307 b 485 -293 406 -307 451 -300 l 485 -231 b 397 -244 460 -240 431 -244 b 297 -169 332 -244 297 -218 b 413 -31 297 -114 324 -82 b 708 353 597 -15 708 127 b 378 749 708 604 588 749 b 50 358 174 749 50 603 b 317 -27 50 139 148 -1 b 196 -176 241 -59 196 -113 b 379 -307 196 -257 278 -307 z m 379 642 b 588 354 510 642 588 535 b 379 75 588 183 507 75 b 171 358 250 75 171 182 b 379 642 171 533 250 642 z "},"Ǭ":{"ha":1081,"x_min":0,"x_max":0,"o":"m 731 1182 l 350 1182 l 350 1085 l 731 1085 z m 542 -307 b 647 -293 568 -307 614 -300 l 647 -231 b 560 -244 622 -240 593 -244 b 460 -169 494 -244 460 -218 b 575 -31 460 -114 486 -83 b 1031 490 858 -15 1031 209 b 540 1029 1031 817 838 1029 b 53 499 250 1029 53 815 b 477 -28 53 206 221 1 b 358 -176 402 -60 358 -114 b 542 -307 358 -257 440 -307 z m 540 915 b 901 493 760 915 901 749 b 542 82 901 249 756 82 b 182 499 326 82 182 249 b 540 915 182 749 326 915 z "},"ǭ":{"ha":772,"x_min":0,"x_max":0,"o":"m 568 901 l 188 901 l 188 804 l 568 804 z m 379 -307 b 485 -293 406 -307 451 -300 l 485 -231 b 397 -244 460 -240 431 -244 b 297 -169 332 -244 297 -218 b 413 -31 297 -114 324 -82 b 708 353 597 -15 708 127 b 378 749 708 604 588 749 b 50 358 174 749 50 603 b 317 -27 50 139 148 -1 b 196 -176 241 -59 196 -113 b 379 -307 196 -257 278 -307 z m 379 642 b 588 354 510 642 588 535 b 379 75 588 183 507 75 b 171 358 250 75 171 182 b 379 642 171 533 250 642 z "},"Ǯ":{"ha":849,"x_min":0,"x_max":0,"o":"m 508 1078 l 642 1286 l 553 1286 l 443 1153 l 331 1286 l 243 1286 l 376 1078 z m 451 647 b 346 597 426 619 408 597 l 346 493 b 675 274 481 493 675 464 b 415 76 675 150 561 76 b 167 286 263 76 175 143 l 44 286 b 411 -32 60 72 185 -32 b 800 275 640 -32 799 89 l 800 279 b 557 574 800 494 677 545 l 807 896 l 807 1013 l 78 1013 l 78 899 l 647 899 z "},"ǯ":{"ha":731,"x_min":0,"x_max":0,"o":"m 424 804 l 557 1013 l 468 1013 l 358 879 l 246 1013 l 158 1013 l 292 804 z m 428 383 l 626 625 l 626 728 l 83 728 l 83 626 l 489 626 l 290 389 l 290 285 l 357 285 b 561 107 492 285 561 225 b 357 -90 561 -17 485 -90 b 150 119 224 -90 158 -24 l 28 119 b 353 -199 43 -94 147 -199 b 686 108 556 -199 686 -78 b 428 383 686 275 588 364 z "},"ǰ":{"ha":308,"x_min":0,"x_max":0,"o":"m 97 728 l 97 -106 b 3 -201 97 -178 74 -201 b -25 -200 -1 -201 -1 -201 l -25 -299 b 14 -303 -11 -301 -4 -303 b 213 -151 144 -303 213 -250 l 213 728 z m 219 783 l 353 992 l 264 992 l 154 858 l 42 992 l -46 992 l 88 783 z "},"Ǳ":{"ha":1851,"x_min":0,"x_max":0,"o":"m 1810 1013 l 1081 1013 l 1081 899 l 1650 899 l 1042 114 l 1042 0 l 1813 0 l 1813 114 l 1204 114 l 1810 896 z m 124 0 l 514 0 b 926 507 769 0 926 192 b 514 1013 926 821 771 1013 l 124 1013 z m 253 114 l 253 899 l 492 899 b 797 506 692 899 797 764 b 492 114 797 250 692 114 z "},"ǲ":{"ha":1697,"x_min":0,"x_max":0,"o":"m 1618 728 l 1075 728 l 1075 626 l 1481 626 l 1046 104 l 1046 0 l 1638 0 l 1638 101 l 1186 101 l 1618 625 z m 124 0 l 514 0 b 926 507 769 0 926 192 b 514 1013 926 821 771 1013 l 124 1013 z m 253 114 l 253 899 l 492 899 b 797 506 692 899 797 764 b 492 114 797 250 692 114 z "},"ǳ":{"ha":1467,"x_min":0,"x_max":0,"o":"m 1388 728 l 844 728 l 844 626 l 1250 626 l 815 104 l 815 0 l 1407 0 l 1407 101 l 956 101 l 1388 625 z m 688 1013 l 572 1013 l 572 636 b 349 749 524 710 446 749 b 36 365 160 749 36 597 b 353 -32 36 119 157 -32 b 585 96 453 -32 522 6 l 585 0 l 688 0 z m 368 640 b 572 356 493 640 572 529 b 369 76 572 188 492 76 b 157 358 242 76 157 189 b 368 640 157 528 242 640 z "},"Ǵ":{"ha":1081,"x_min":0,"x_max":0,"o":"m 639 1290 l 506 1085 l 589 1085 l 796 1290 z m 190 503 b 546 915 190 751 332 915 b 839 706 700 915 811 836 l 971 706 b 547 1029 935 911 779 1029 b 61 496 158 1029 61 699 b 525 -32 61 185 251 -32 b 871 129 663 -32 772 19 l 903 -6 l 985 -6 l 985 535 l 563 535 l 563 421 l 871 421 l 871 393 b 553 82 871 213 738 82 b 190 503 263 82 190 340 z "},"ǵ":{"ha":772,"x_min":0,"x_max":0,"o":"m 442 1010 l 308 804 l 392 804 l 599 1010 z m 340 -32 b 561 99 432 -32 496 7 l 561 61 b 358 -206 561 -106 522 -206 b 182 -83 322 -206 201 -201 l 64 -83 b 354 -303 76 -221 183 -303 b 679 119 631 -303 679 -133 l 679 728 l 572 728 l 572 622 b 350 749 514 708 443 749 b 40 351 165 749 40 588 b 340 -32 40 114 175 -32 z m 363 642 b 561 354 488 642 561 536 b 364 75 561 181 486 75 b 161 358 238 75 161 182 b 363 642 161 533 239 642 z "},"Ƿ":{"ha":875,"x_min":0,"x_max":0,"o":"m 258 771 b 538 914 367 885 475 914 b 672 810 594 914 672 876 b 258 318 672 581 386 401 z m 258 183 b 806 793 408 271 806 494 b 583 1032 806 942 701 1032 b 258 899 446 1032 375 1013 l 258 1010 l 126 1010 l 126 0 l 258 0 z "},"Ǹ":{"ha":1003,"x_min":0,"x_max":0,"o":"m 410 1290 l 253 1290 l 460 1085 l 543 1085 z m 897 1013 l 775 1013 l 775 185 l 246 1013 l 106 1013 l 106 0 l 228 0 l 228 821 l 751 0 l 897 0 z "},"ǹ":{"ha":772,"x_min":0,"x_max":0,"o":"m 296 1010 l 139 1010 l 346 804 l 429 804 z m 97 728 l 97 0 l 214 0 l 214 401 b 411 647 214 550 292 647 b 561 504 503 647 561 592 l 561 0 l 676 0 l 676 550 b 446 749 676 671 586 749 b 204 606 338 749 268 707 l 204 728 z "},"Ǻ":{"ha":926,"x_min":0,"x_max":0,"o":"m 465 1088 b 319 943 385 1088 319 1022 b 465 797 319 863 385 797 b 612 942 545 797 612 862 b 465 1088 612 1023 547 1088 z m 465 1003 b 526 942 500 1003 526 976 b 465 882 526 910 499 882 b 404 943 432 882 404 910 b 465 1003 404 975 432 1003 z m 658 228 l 763 0 l 907 0 l 551 759 l 385 759 l 24 0 l 161 0 l 268 228 z m 622 309 l 300 309 l 467 655 z m 557 1315 l 424 1110 l 507 1110 l 714 1315 z "},"ǻ":{"ha":772,"x_min":0,"x_max":0,"o":"m 474 1308 l 340 1103 l 424 1103 l 631 1308 z m 382 1072 b 235 927 302 1072 235 1005 b 382 780 235 847 302 780 b 529 925 462 780 529 845 b 382 1072 529 1007 464 1072 z m 382 986 b 443 925 417 986 443 960 b 382 865 443 893 415 865 b 321 926 349 865 321 893 b 382 986 321 958 349 986 z m 90 513 l 207 513 b 378 642 217 601 269 642 b 540 533 482 642 540 603 l 540 503 b 419 422 540 454 511 433 b 58 183 207 394 58 378 b 297 -32 58 51 150 -32 b 544 75 389 -32 463 0 b 664 -32 553 1 589 -32 b 743 -19 688 -32 706 -29 l 743 68 b 718 65 731 65 725 65 b 656 122 678 65 656 86 l 656 550 b 382 749 656 679 561 749 b 90 513 251 749 97 710 z m 322 69 b 179 186 232 69 179 113 b 540 360 179 346 422 306 l 540 229 b 322 69 540 160 460 69 z "},"Ǽ":{"ha":1389,"x_min":0,"x_max":0,"o":"m 954 1290 l 821 1085 l 904 1085 l 1111 1290 z m 650 297 l 650 0 l 1319 0 l 1319 114 l 779 114 l 779 461 l 1268 461 l 1268 575 l 779 575 l 779 899 l 1294 899 l 1294 1013 l 431 1013 l 15 0 l 158 0 l 276 297 z m 650 411 l 319 411 l 511 899 l 650 899 z "},"ǽ":{"ha":1244,"x_min":0,"x_max":0,"o":"m 701 1010 l 568 804 l 651 804 l 858 1010 z m 649 325 l 1185 325 b 1156 557 1185 436 1176 503 b 863 749 1108 675 997 749 b 622 635 763 749 672 706 b 379 749 579 710 497 749 b 90 513 253 749 97 710 l 207 513 b 376 642 217 601 269 642 b 540 533 483 642 540 604 l 540 503 b 419 421 540 449 514 429 b 58 183 207 403 58 365 b 292 -32 58 53 150 -32 b 592 121 400 -32 488 13 b 861 -32 600 107 660 -32 b 1171 221 1025 -32 1142 63 l 1054 221 b 863 75 1021 125 956 75 b 649 325 776 75 653 122 z m 318 69 b 179 186 232 69 179 114 b 540 358 179 346 403 299 l 540 218 b 318 69 540 188 467 69 z m 651 419 b 860 642 661 554 743 642 b 1060 419 978 642 1060 551 z "},"Ǿ":{"ha":1081,"x_min":0,"x_max":0,"o":"m 633 1310 l 500 1104 l 583 1104 l 790 1310 z m 42 26 l 96 -24 l 203 93 b 538 -32 294 8 403 -32 b 1026 497 829 -32 1026 182 b 910 864 1026 639 985 769 l 1033 999 l 978 1049 l 857 917 b 538 1029 771 992 664 1029 b 49 500 246 1029 49 815 b 154 150 49 365 85 247 z m 242 244 b 178 500 200 317 178 404 b 538 915 178 749 322 915 b 775 826 628 915 708 885 z m 824 769 b 897 497 872 694 897 601 b 538 82 897 249 753 82 b 286 185 439 82 354 117 z "},"ǿ":{"ha":849,"x_min":0,"x_max":0,"o":"m 471 1010 l 338 804 l 421 804 l 628 1010 z m 735 710 l 690 749 l 610 658 b 379 749 547 721 475 749 b 50 358 174 749 50 603 b 117 100 50 250 71 168 l 25 -3 l 69 -42 l 154 54 b 381 -32 210 -3 288 -32 b 708 358 586 -32 708 114 b 647 611 708 464 689 542 z m 563 515 b 588 358 579 472 588 419 b 379 75 588 183 508 75 b 232 142 321 75 272 97 z m 200 196 b 171 358 181 242 171 293 b 379 642 171 533 250 642 b 532 569 440 642 496 615 z "},"Ȁ":{"ha":926,"x_min":0,"x_max":0,"o":"m 511 1293 l 354 1293 l 561 1085 l 644 1085 z m 269 1293 l 113 1293 l 319 1085 l 403 1085 z m 658 304 l 763 0 l 907 0 l 551 1013 l 385 1013 l 24 0 l 161 0 l 268 304 z m 622 413 l 300 413 l 467 874 z "},"ȁ":{"ha":772,"x_min":0,"x_max":0,"o":"m 418 1013 l 261 1013 l 468 804 l 551 804 z m 176 1013 l 19 1013 l 226 804 l 310 804 z m 90 513 l 207 513 b 378 642 217 601 269 642 b 540 533 482 642 540 603 l 540 503 b 419 422 540 454 511 433 b 58 183 207 394 58 378 b 297 -32 58 51 150 -32 b 544 75 389 -32 463 0 b 664 -32 553 1 589 -32 b 743 -19 688 -32 706 -29 l 743 68 b 718 65 731 65 725 65 b 656 122 678 65 656 86 l 656 550 b 382 749 656 679 561 749 b 90 513 251 749 97 710 z m 322 69 b 179 186 232 69 179 113 b 540 360 179 346 422 306 l 540 229 b 322 69 540 160 460 69 z "},"Ȃ":{"ha":926,"x_min":0,"x_max":0,"o":"m 674 1085 b 467 1272 669 1239 551 1272 b 256 1085 338 1272 265 1208 l 338 1085 b 464 1176 343 1143 389 1176 b 592 1085 543 1176 585 1146 z m 658 304 l 763 0 l 907 0 l 551 1013 l 385 1013 l 24 0 l 161 0 l 268 304 z m 622 413 l 300 413 l 467 874 z "},"ȃ":{"ha":772,"x_min":0,"x_max":0,"o":"m 583 804 b 376 992 579 958 461 992 b 165 804 247 992 175 928 l 247 804 b 374 896 253 863 299 896 b 501 804 453 896 494 865 z m 90 513 l 207 513 b 378 642 217 601 269 642 b 540 533 482 642 540 603 l 540 503 b 419 422 540 454 511 433 b 58 183 207 394 58 378 b 297 -32 58 51 150 -32 b 544 75 389 -32 463 0 b 664 -32 553 1 589 -32 b 743 -19 688 -32 706 -29 l 743 68 b 718 65 731 65 725 65 b 656 122 678 65 656 86 l 656 550 b 382 749 656 679 561 749 b 90 513 251 749 97 710 z m 322 69 b 179 186 232 69 179 113 b 540 360 179 346 422 306 l 540 229 b 322 69 540 160 460 69 z "},"Ȅ":{"ha":926,"x_min":0,"x_max":0,"o":"m 526 1293 l 369 1293 l 576 1085 l 660 1085 z m 285 1293 l 128 1293 l 335 1085 l 418 1085 z m 254 461 l 806 461 l 806 575 l 254 575 l 254 899 l 826 899 l 826 1013 l 125 1013 l 125 0 l 851 0 l 851 114 l 254 114 z "},"ȅ":{"ha":772,"x_min":0,"x_max":0,"o":"m 422 1013 l 265 1013 l 472 804 l 556 804 z m 181 1013 l 24 1013 l 231 804 l 314 804 z m 713 325 b 683 557 713 436 704 503 b 389 749 636 676 525 749 b 56 354 186 749 56 593 b 386 -32 56 115 182 -32 b 697 221 553 -32 668 63 l 581 221 b 390 75 549 125 483 75 b 215 169 317 75 254 108 b 176 325 188 211 178 253 z m 179 419 b 388 642 189 554 271 642 b 589 428 501 642 589 547 b 588 419 589 425 589 422 z "},"Ȇ":{"ha":926,"x_min":0,"x_max":0,"o":"m 681 1085 b 474 1272 676 1239 558 1272 b 263 1085 344 1272 272 1208 l 344 1085 b 471 1176 350 1143 396 1176 b 599 1085 550 1176 592 1146 z m 254 461 l 806 461 l 806 575 l 254 575 l 254 899 l 826 899 l 826 1013 l 125 1013 l 125 0 l 851 0 l 851 114 l 254 114 z "},"ȇ":{"ha":772,"x_min":0,"x_max":0,"o":"m 597 804 b 390 992 593 958 475 992 b 179 804 261 992 189 928 l 261 804 b 388 896 267 863 313 896 b 515 804 467 896 508 865 z m 713 325 b 683 557 713 436 704 503 b 389 749 636 676 525 749 b 56 354 186 749 56 593 b 386 -32 56 115 182 -32 b 697 221 553 -32 668 63 l 581 221 b 390 75 549 125 483 75 b 215 169 317 75 254 108 b 176 325 188 211 178 253 z m 179 419 b 388 642 189 554 271 642 b 589 428 501 642 589 547 b 588 419 589 425 589 422 z "},"Ȉ":{"ha":386,"x_min":0,"x_max":0,"o":"m 214 1293 l 57 1293 l 264 1085 l 347 1085 z m -28 1293 l -185 1293 l 22 1085 l 106 1085 z m 269 1013 l 139 1013 l 139 0 l 269 0 z "},"ȉ":{"ha":349,"x_min":0,"x_max":0,"o":"m 215 1013 l 58 1013 l 265 804 l 349 804 z m -26 1013 l -183 1013 l 24 804 l 107 804 z m 232 728 l 117 728 l 117 0 l 232 0 z "},"Ȋ":{"ha":386,"x_min":0,"x_max":0,"o":"m 414 1085 b 207 1272 410 1239 292 1272 b -4 1085 78 1272 6 1208 l 78 1085 b 204 1176 83 1143 129 1176 b 332 1085 283 1176 325 1146 z m 269 1013 l 139 1013 l 139 0 l 269 0 z "},"ȋ":{"ha":349,"x_min":0,"x_max":0,"o":"m 383 804 b 176 992 379 958 261 992 b -35 804 47 992 -25 928 l 47 804 b 174 896 53 863 99 896 b 301 804 253 896 294 865 z m 232 728 l 117 728 l 117 0 l 232 0 z "},"Ȍ":{"ha":1081,"x_min":0,"x_max":0,"o":"m 568 1293 l 411 1293 l 618 1085 l 701 1085 z m 326 1293 l 169 1293 l 376 1085 l 460 1085 z m 1031 490 b 540 1029 1031 817 838 1029 b 53 499 250 1029 53 815 b 542 -32 53 182 250 -32 b 1031 490 844 -32 1031 199 z m 540 915 b 901 493 760 915 901 749 b 542 82 901 249 756 82 b 182 499 326 82 182 249 b 540 915 182 749 326 915 z "},"ȍ":{"ha":772,"x_min":0,"x_max":0,"o":"m 407 1013 l 250 1013 l 457 804 l 540 804 z m 165 1013 l 8 1013 l 215 804 l 299 804 z m 378 749 b 50 358 174 749 50 603 b 379 -32 50 114 172 -32 b 708 353 583 -32 708 114 b 378 749 708 604 588 749 z m 379 642 b 588 354 510 642 588 535 b 379 75 588 183 507 75 b 171 358 250 75 171 182 b 379 642 171 533 250 642 z "},"Ȏ":{"ha":1081,"x_min":0,"x_max":0,"o":"m 750 1085 b 543 1272 746 1239 628 1272 b 332 1085 414 1272 342 1208 l 414 1085 b 540 1176 419 1143 465 1176 b 668 1085 619 1176 661 1146 z m 1031 490 b 540 1029 1031 817 838 1029 b 53 499 250 1029 53 815 b 542 -32 53 182 250 -32 b 1031 490 844 -32 1031 199 z m 540 915 b 901 493 760 915 901 749 b 542 82 901 249 756 82 b 182 499 326 82 182 249 b 540 915 182 749 326 915 z "},"ȏ":{"ha":772,"x_min":0,"x_max":0,"o":"m 590 804 b 383 992 586 958 468 992 b 172 804 254 992 182 928 l 254 804 b 381 896 260 863 306 896 b 508 804 460 896 501 865 z m 378 749 b 50 358 174 749 50 603 b 379 -32 50 114 172 -32 b 708 353 583 -32 708 114 b 378 749 708 604 588 749 z m 379 642 b 588 354 510 642 588 535 b 379 75 588 183 507 75 b 171 358 250 75 171 182 b 379 642 171 533 250 642 z "},"Ȑ":{"ha":1003,"x_min":0,"x_max":0,"o":"m 529 1293 l 372 1293 l 579 1085 l 663 1085 z m 288 1293 l 131 1293 l 338 1085 l 421 1085 z m 744 500 b 904 742 858 556 904 626 b 596 1013 904 917 794 1013 l 129 1013 l 129 0 l 258 0 l 258 436 l 592 436 b 758 256 707 436 758 381 l 758 165 b 786 0 758 103 768 42 l 943 0 l 943 32 b 882 191 890 69 882 127 b 883 263 882 215 883 239 b 744 500 883 354 870 446 z m 769 724 b 571 550 769 604 708 550 l 258 550 l 258 899 l 571 899 b 769 724 679 899 769 868 z "},"ȑ":{"ha":463,"x_min":0,"x_max":0,"o":"m 300 1013 l 143 1013 l 350 804 l 433 804 z m 58 1013 l -99 1013 l 108 804 l 192 804 z m 446 626 l 446 744 b 401 749 426 747 417 749 b 203 596 326 749 269 704 l 203 728 l 96 728 l 96 0 l 213 0 l 213 378 b 446 626 213 582 306 624 z "},"Ȓ":{"ha":1003,"x_min":0,"x_max":0,"o":"m 710 1094 b 503 1282 706 1249 588 1282 b 292 1094 374 1282 301 1218 l 374 1094 b 500 1186 379 1153 425 1186 b 628 1094 579 1186 621 1156 z m 744 500 b 904 742 858 556 904 626 b 596 1013 904 917 794 1013 l 129 1013 l 129 0 l 258 0 l 258 436 l 592 436 b 758 256 707 436 758 381 l 758 165 b 786 0 758 103 768 42 l 943 0 l 943 32 b 882 191 890 69 882 127 b 883 263 882 215 883 239 b 744 500 883 354 870 446 z m 769 724 b 571 550 769 604 708 550 l 258 550 l 258 899 l 571 899 b 769 724 679 899 769 868 z "},"ȓ":{"ha":463,"x_min":0,"x_max":0,"o":"m 481 804 b 274 992 476 958 358 992 b 63 804 144 992 72 928 l 144 804 b 271 896 150 863 196 896 b 399 804 350 896 392 865 z m 446 626 l 446 744 b 401 749 426 747 417 749 b 203 596 326 749 269 704 l 203 728 l 96 728 l 96 0 l 213 0 l 213 378 b 446 626 213 582 306 624 z "},"Ȕ":{"ha":1003,"x_min":0,"x_max":0,"o":"m 521 1293 l 364 1293 l 571 1085 l 654 1085 z m 279 1293 l 122 1293 l 329 1085 l 413 1085 z m 767 1013 l 767 301 b 506 82 767 165 668 82 b 247 301 357 82 247 149 l 247 1013 l 118 1013 l 118 301 b 506 -32 118 96 265 -32 b 896 301 743 -32 896 99 l 896 1013 z "},"ȕ":{"ha":772,"x_min":0,"x_max":0,"o":"m 381 1013 l 224 1013 l 431 804 l 514 804 z m 139 1013 l -18 1013 l 189 804 l 272 804 z m 669 0 l 669 728 l 554 728 l 554 315 b 356 69 554 167 476 69 b 206 213 264 69 206 125 l 206 728 l 90 728 l 90 167 b 322 -32 90 46 181 -32 b 565 101 429 -32 497 6 l 565 0 z "},"Ȗ":{"ha":1003,"x_min":0,"x_max":0,"o":"m 717 1085 b 510 1272 713 1239 594 1272 b 299 1085 381 1272 308 1208 l 381 1085 b 507 1176 386 1143 432 1176 b 635 1085 586 1176 628 1146 z m 767 1013 l 767 301 b 506 82 767 165 668 82 b 247 301 357 82 247 149 l 247 1013 l 118 1013 l 118 301 b 506 -32 118 96 265 -32 b 896 301 743 -32 896 99 l 896 1013 z "},"ȗ":{"ha":772,"x_min":0,"x_max":0,"o":"m 589 804 b 382 992 585 958 467 992 b 171 804 253 992 181 928 l 253 804 b 379 896 258 863 304 896 b 507 804 458 896 500 865 z m 669 0 l 669 728 l 554 728 l 554 315 b 356 69 554 167 476 69 b 206 213 264 69 206 125 l 206 728 l 90 728 l 90 167 b 322 -32 90 46 181 -32 b 565 101 429 -32 497 6 l 565 0 z "},"Ș":{"ha":926,"x_min":0,"x_max":0,"o":"m 396 -106 l 396 -244 l 472 -244 l 472 -256 b 396 -364 472 -325 446 -364 l 396 -417 l 399 -417 b 535 -249 483 -417 535 -351 l 535 -106 z m 475 82 b 189 315 246 82 189 213 l 189 322 l 67 322 b 467 -32 71 35 292 -32 b 863 278 783 -32 863 154 b 647 532 863 403 785 494 l 393 600 b 226 750 271 633 226 672 b 453 921 226 853 317 921 b 706 715 614 921 704 847 l 828 715 b 457 1029 826 914 690 1029 b 97 732 235 1029 97 915 b 296 496 97 608 163 531 l 547 429 b 733 265 675 396 733 344 b 475 82 733 193 694 82 z "},"ș":{"ha":694,"x_min":0,"x_max":0,"o":"m 271 -106 l 271 -244 l 347 -244 l 347 -256 b 271 -364 347 -325 321 -364 l 271 -417 l 274 -417 b 410 -249 358 -417 410 -351 l 410 -106 z m 169 217 l 47 217 b 338 -32 53 49 147 -32 b 638 199 521 -32 638 58 b 432 401 638 307 576 367 l 321 428 b 186 532 226 450 186 481 b 340 642 186 599 246 642 b 486 525 433 642 483 601 l 608 525 b 344 749 607 668 513 749 b 65 526 175 749 65 661 b 296 317 65 413 124 358 l 404 290 b 517 189 485 271 517 242 b 347 75 517 121 449 75 b 169 217 206 75 179 146 z "},"Ț":{"ha":849,"x_min":0,"x_max":0,"o":"m 354 -106 l 354 -244 l 431 -244 l 431 -256 b 354 -364 431 -325 404 -364 l 354 -417 l 357 -417 b 493 -249 442 -417 493 -351 l 493 -106 z m 492 899 l 824 899 l 824 1013 l 29 1013 l 29 899 l 363 899 l 363 0 l 492 0 z "},"ț":{"ha":386,"x_min":0,"x_max":0,"o":"m 132 -106 l 132 -244 l 208 -244 l 208 -256 b 132 -364 208 -325 182 -364 l 132 -417 l 135 -417 b 271 -249 219 -417 271 -351 l 271 -106 z m 353 728 l 233 728 l 233 928 l 118 928 l 118 728 l 19 728 l 19 633 l 118 633 l 118 83 b 258 -32 118 10 168 -32 b 353 -22 286 -32 314 -29 l 353 75 b 297 69 338 71 319 69 b 233 135 247 69 233 83 l 233 633 l 353 633 z "},"Ȝ":{"ha":724,"x_min":0,"x_max":0,"o":"m 354 878 b 528 710 463 878 528 814 b 200 457 528 582 349 518 l 228 353 b 443 439 310 378 365 397 b 557 274 504 411 557 393 b 53 -18 557 167 208 21 l 83 -139 b 682 275 399 -39 682 42 b 546 514 682 436 590 492 b 653 714 590 539 653 615 b 353 985 653 883 540 985 b 44 667 154 985 49 876 l 167 667 b 354 878 169 774 199 878 z "},"ȝ":{"ha":546,"x_min":0,"x_max":0,"o":"m 267 644 b 382 532 335 644 382 611 b 149 349 382 436 261 394 l 172 253 b 339 318 233 271 281 286 b 404 206 393 283 404 263 b 40 -14 404 72 40 -14 l 64 -117 b 525 206 300 -42 525 31 b 428 383 525 328 461 367 b 504 536 461 401 504 454 b 265 753 504 663 406 753 b 19 500 117 753 19 646 l 139 500 b 267 644 139 592 197 644 z "},"Ȟ":{"ha":1003,"x_min":0,"x_max":0,"o":"m 571 1078 l 704 1286 l 615 1286 l 506 1153 l 393 1286 l 306 1286 l 439 1078 z m 765 461 l 765 0 l 894 0 l 894 1013 l 765 1013 l 765 575 l 244 575 l 244 1013 l 115 1013 l 115 0 l 244 0 l 244 461 z "},"ȟ":{"ha":772,"x_min":0,"x_max":0,"o":"m 478 1018 l 611 1226 l 522 1226 l 413 1093 l 300 1226 l 213 1226 l 346 1018 z m 560 504 l 560 0 l 675 0 l 675 550 b 446 749 675 672 588 749 b 213 628 343 749 281 717 l 213 1013 l 97 1013 l 97 0 l 213 0 l 213 401 b 410 647 213 550 290 647 b 560 504 469 647 560 618 z "},"Ȥ":{"ha":849,"x_min":0,"x_max":0,"o":"m 807 1013 l 78 1013 l 78 899 l 647 899 l 39 114 l 39 0 l 693 0 l 693 -103 b 599 -199 693 -175 669 -199 b 571 -197 594 -199 594 -199 l 571 -296 b 610 -300 585 -299 592 -300 b 810 -149 740 -300 810 -247 l 810 114 l 201 114 l 807 896 z "},"ȥ":{"ha":694,"x_min":0,"x_max":0,"o":"m 518 0 l 518 -103 b 424 -199 518 -175 494 -199 b 396 -197 419 -199 419 -199 l 396 -296 b 435 -300 410 -299 417 -300 b 635 -149 565 -300 635 -247 l 635 101 l 183 101 l 615 625 l 615 728 l 72 728 l 72 626 l 478 626 l 43 104 l 43 0 z "},"Ȧ":{"ha":926,"x_min":0,"x_max":0,"o":"m 540 1250 l 396 1250 l 396 1106 l 540 1106 z m 658 304 l 763 0 l 907 0 l 551 1013 l 385 1013 l 24 0 l 161 0 l 268 304 z m 622 413 l 300 413 l 467 874 z "},"ȧ":{"ha":772,"x_min":0,"x_max":0,"o":"m 454 1013 l 310 1013 l 310 868 l 454 868 z m 90 513 l 207 513 b 378 642 217 601 269 642 b 540 533 482 642 540 603 l 540 503 b 419 422 540 454 511 433 b 58 183 207 394 58 378 b 297 -32 58 51 150 -32 b 544 75 389 -32 463 0 b 664 -32 553 1 589 -32 b 743 -19 688 -32 706 -29 l 743 68 b 718 65 731 65 725 65 b 656 122 678 65 656 86 l 656 550 b 382 749 656 679 561 749 b 90 513 251 749 97 710 z m 322 69 b 179 186 232 69 179 113 b 540 360 179 346 422 306 l 540 229 b 322 69 540 160 460 69 z "},"Ȩ":{"ha":926,"x_min":0,"x_max":0,"o":"m 317 -185 l 288 -240 b 461 -287 374 -278 407 -287 b 632 -158 567 -287 632 -237 b 522 -65 632 -99 592 -65 b 483 -68 511 -65 501 -65 l 511 0 l 851 0 l 851 114 l 254 114 l 254 461 l 806 461 l 806 575 l 254 575 l 254 899 l 826 899 l 826 1013 l 125 1013 l 125 0 l 458 0 l 404 -118 l 421 -128 b 464 -117 438 -119 447 -117 b 528 -168 504 -117 528 -136 b 453 -231 528 -204 496 -231 b 317 -185 401 -231 371 -208 z "},"ȩ":{"ha":772,"x_min":0,"x_max":0,"o":"m 214 -217 l 185 -272 b 358 -319 271 -310 304 -319 b 529 -190 464 -319 529 -269 b 419 -97 529 -131 489 -97 b 381 -100 408 -97 399 -97 l 409 -31 b 697 221 563 -23 669 70 l 581 221 b 390 75 549 125 483 75 b 215 169 317 75 254 108 b 176 325 188 211 178 253 l 713 325 b 683 557 713 436 704 503 b 389 749 636 676 525 749 b 56 354 186 749 56 593 b 356 -31 56 127 170 -17 l 301 -150 l 318 -160 b 361 -149 335 -151 344 -149 b 425 -200 401 -149 425 -168 b 350 -262 425 -236 393 -262 b 214 -217 299 -262 268 -240 z m 179 419 b 388 642 189 554 271 642 b 589 428 501 642 589 547 b 588 419 589 425 589 422 z "},"Ȫ":{"ha":1081,"x_min":0,"x_max":0,"o":"m 732 1389 l 351 1389 l 351 1292 l 732 1292 z m 742 1228 l 597 1228 l 597 1083 l 742 1083 z m 493 1228 l 349 1228 l 349 1083 l 493 1083 z m 1031 490 b 540 1029 1031 817 838 1029 b 53 499 250 1029 53 815 b 542 -32 53 182 250 -32 b 1031 490 844 -32 1031 199 z m 540 915 b 901 493 760 915 901 749 b 542 82 901 249 756 82 b 182 499 326 82 182 249 b 540 915 182 749 326 915 z "},"ȫ":{"ha":772,"x_min":0,"x_max":0,"o":"m 579 971 l 435 971 l 435 826 l 579 826 z m 331 971 l 186 971 l 186 826 l 331 826 z m 378 749 b 50 358 174 749 50 603 b 379 -32 50 114 172 -32 b 708 353 583 -32 708 114 b 378 749 708 604 588 749 z m 379 642 b 588 354 510 642 588 535 b 379 75 588 183 507 75 b 171 358 250 75 171 182 b 379 642 171 533 250 642 z m 569 1146 l 189 1146 l 189 1049 l 569 1049 z "},"Ȭ":{"ha":1081,"x_min":0,"x_max":0,"o":"m 740 1386 l 360 1386 l 360 1289 l 740 1289 z m 442 1225 b 322 1082 381 1225 338 1174 l 403 1082 b 449 1133 411 1114 428 1133 b 635 1081 489 1133 583 1081 b 758 1225 703 1081 744 1129 l 678 1225 b 626 1174 667 1190 651 1174 b 442 1225 569 1174 510 1225 z m 1031 490 b 540 1029 1031 817 838 1029 b 53 499 250 1029 53 815 b 542 -32 53 182 250 -32 b 1031 490 844 -32 1031 199 z m 540 915 b 901 493 760 915 901 749 b 542 82 901 249 756 82 b 182 499 326 82 182 249 b 540 915 182 749 326 915 z "},"ȭ":{"ha":772,"x_min":0,"x_max":0,"o":"m 578 1149 l 197 1149 l 197 1051 l 578 1051 z m 279 983 b 160 840 218 983 175 932 l 240 840 b 286 892 249 872 265 892 b 472 839 326 892 421 839 b 596 983 540 839 582 888 l 515 983 b 464 932 504 949 489 932 b 279 983 407 932 347 983 z m 378 749 b 50 358 174 749 50 603 b 379 -32 50 114 172 -32 b 708 353 583 -32 708 114 b 378 749 708 604 588 749 z m 379 642 b 588 354 510 642 588 535 b 379 75 588 183 507 75 b 171 358 250 75 171 182 b 379 642 171 533 250 642 z "},"Ȯ":{"ha":1081,"x_min":0,"x_max":0,"o":"m 613 1250 l 468 1250 l 468 1106 l 613 1106 z m 1031 490 b 540 1029 1031 817 838 1029 b 53 499 250 1029 53 815 b 542 -32 53 182 250 -32 b 1031 490 844 -32 1031 199 z m 540 915 b 901 493 760 915 901 749 b 542 82 901 249 756 82 b 182 499 326 82 182 249 b 540 915 182 749 326 915 z "},"ȯ":{"ha":772,"x_min":0,"x_max":0,"o":"m 450 974 l 306 974 l 306 829 l 450 829 z m 378 749 b 50 358 174 749 50 603 b 379 -32 50 114 172 -32 b 708 353 583 -32 708 114 b 378 749 708 604 588 749 z m 379 642 b 588 354 510 642 588 535 b 379 75 588 183 507 75 b 171 358 250 75 171 182 b 379 642 171 533 250 642 z "},"Ȱ":{"ha":1081,"x_min":0,"x_max":0,"o":"m 731 1382 l 350 1382 l 350 1285 l 731 1285 z m 613 1250 l 468 1250 l 468 1106 l 613 1106 z m 1031 490 b 540 1029 1031 817 838 1029 b 53 499 250 1029 53 815 b 542 -32 53 182 250 -32 b 1031 490 844 -32 1031 199 z m 540 915 b 901 493 760 915 901 749 b 542 82 901 249 756 82 b 182 499 326 82 182 249 b 540 915 182 749 326 915 z "},"ȱ":{"ha":772,"x_min":0,"x_max":0,"o":"m 450 954 l 306 954 l 306 810 l 450 810 z m 378 749 b 50 358 174 749 50 603 b 379 -32 50 114 172 -32 b 708 353 583 -32 708 114 b 378 749 708 604 588 749 z m 379 642 b 588 354 510 642 588 535 b 379 75 588 183 507 75 b 171 358 250 75 171 182 b 379 642 171 533 250 642 z m 568 1114 l 188 1114 l 188 1017 l 568 1017 z "},"Ȳ":{"ha":926,"x_min":0,"x_max":0,"o":"m 658 1182 l 278 1182 l 278 1085 l 658 1085 z m 538 397 l 918 1013 l 764 1013 l 475 519 l 178 1013 l 18 1013 l 408 397 l 408 0 l 538 0 z "},"ȳ":{"ha":694,"x_min":0,"x_max":0,"o":"m 536 901 l 156 901 l 156 804 l 536 804 z m 539 728 l 338 161 l 151 728 l 28 728 l 274 -3 l 229 -118 b 136 -189 210 -169 185 -189 b 75 -181 119 -189 100 -186 l 75 -285 b 153 -303 99 -297 122 -303 b 340 -153 232 -303 300 -260 l 664 728 z "},"ȷ":{"ha":308,"x_min":0,"x_max":0,"o":"m 97 728 l 97 -106 b 3 -201 97 -178 74 -201 b -25 -200 -1 -201 -1 -201 l -25 -299 b 14 -303 -11 -301 -4 -303 b 213 -151 144 -303 213 -250 l 213 728 z "},"ɐ":{"ha":772,"x_min":0,"x_max":0,"o":"m 711 204 l 594 204 b 424 75 585 115 532 75 b 261 183 319 75 261 114 l 261 214 b 382 294 261 263 290 283 b 743 533 594 322 743 339 b 504 749 743 665 651 749 b 257 642 413 749 339 717 b 138 749 249 715 213 749 b 58 736 114 749 96 746 l 58 649 b 83 651 71 651 76 651 b 146 594 124 651 146 631 l 146 167 b 419 -32 146 38 240 -32 b 711 204 550 -32 704 7 z m 479 647 b 622 531 569 647 622 604 b 261 357 622 371 379 411 l 261 488 b 479 647 261 557 342 647 z "},"ɑ":{"ha":781,"x_min":0,"x_max":0,"o":"m 551 365 b 368 83 551 222 494 83 b 157 363 240 83 157 219 b 344 654 157 504 221 654 b 551 365 479 654 551 517 z m 324 -19 b 560 79 436 -17 494 17 b 682 -32 569 -3 610 -32 b 761 -19 706 -32 724 -29 l 761 68 b 736 65 749 65 743 65 b 674 122 696 65 674 86 l 674 728 l 558 728 l 558 636 b 342 747 497 710 425 747 b 36 358 133 747 36 572 b 324 -19 36 126 197 -19 z "},"ɒ":{"ha":793,"x_min":0,"x_max":0,"o":"m 229 363 b 413 644 229 506 286 644 b 624 365 540 644 624 508 b 436 74 624 224 560 74 b 229 363 301 74 229 211 z m 457 747 b 221 649 344 744 286 711 b 99 760 211 731 171 760 b 19 747 75 760 57 757 l 19 660 b 44 663 32 663 38 663 b 107 606 85 663 107 642 l 107 0 l 222 0 l 222 92 b 439 -19 283 18 356 -19 b 744 369 647 -19 744 156 b 457 747 744 601 583 747 z "},"ɓ":{"ha":772,"x_min":0,"x_max":0,"o":"m 393 640 b 606 354 522 640 606 528 b 393 76 606 189 519 76 b 190 358 271 76 190 188 b 393 640 190 529 271 640 z m 75 0 l 179 0 l 179 93 b 410 -32 235 8 308 -32 b 726 367 601 -32 726 125 b 415 749 726 603 607 749 b 190 629 315 749 244 711 l 190 842 b 271 915 190 890 218 915 b 311 914 281 915 285 915 l 311 1010 b 246 1017 285 1015 269 1017 b 75 851 139 1017 75 956 z "},"ɔ":{"ha":694,"x_min":0,"x_max":0,"o":"m 51 233 b 339 -32 65 60 172 -32 b 663 365 535 -32 663 124 b 340 749 663 600 538 749 b 43 467 167 749 57 644 l 160 467 b 338 642 179 583 239 642 b 542 365 465 642 542 538 b 340 75 542 183 467 75 b 168 233 243 75 182 132 z "},"ɕ":{"ha":694,"x_min":0,"x_max":0,"o":"m 367 75 b 269 101 329 75 297 83 b 461 208 381 193 424 208 b 539 142 529 208 535 182 b 367 75 539 101 469 75 z m 644 136 b 451 317 644 290 529 317 b 201 176 363 317 335 288 b 164 351 176 221 164 281 b 365 642 164 533 239 642 b 538 483 463 642 524 585 l 654 483 b 367 749 640 657 533 749 b 43 351 171 749 43 593 b 110 100 43 250 67 165 l 15 25 l 82 -58 b 181 25 113 -35 146 -6 b 367 -32 232 -12 294 -32 b 644 136 592 -32 644 65 z "},"ɖ":{"ha":844,"x_min":0,"x_max":0,"o":"m 368 640 b 572 356 493 640 572 529 b 369 76 572 188 492 76 b 157 358 242 76 157 189 b 368 640 157 528 242 640 z m 585 96 l 585 -151 b 778 -303 585 -250 647 -303 b 817 -299 796 -303 803 -301 l 817 -200 b 789 -201 793 -201 793 -201 b 688 -106 718 -201 688 -178 l 688 1013 l 572 1013 l 572 636 b 349 749 524 710 446 749 b 36 365 160 749 36 597 b 353 -32 36 119 157 -32 b 585 96 453 -32 522 6 z "},"ɗ":{"ha":836,"x_min":0,"x_max":0,"o":"m 368 640 b 572 356 493 640 572 529 b 369 76 572 188 492 76 b 157 358 242 76 157 189 b 368 640 157 528 242 640 z m 688 842 b 768 915 688 890 715 915 b 808 914 778 915 782 915 l 808 1010 b 743 1017 782 1015 767 1017 b 572 851 636 1017 572 956 l 572 636 b 349 749 524 710 446 749 b 36 365 160 749 36 597 b 353 -32 36 119 157 -32 b 585 96 453 -32 522 6 l 585 0 l 688 0 z "},"ɘ":{"ha":772,"x_min":0,"x_max":0,"o":"m 56 325 l 592 325 b 378 75 588 110 450 75 b 188 221 285 75 219 125 l 71 221 b 382 -32 100 63 215 -32 b 713 354 586 -32 713 115 b 379 749 713 593 581 749 b 56 325 125 749 58 542 z m 589 419 l 179 419 b 381 642 183 553 272 642 b 589 419 497 642 579 554 z "},"ə":{"ha":772,"x_min":0,"x_max":0,"o":"m 56 392 b 85 160 56 281 64 214 b 379 -32 132 40 243 -32 b 713 363 582 -32 713 124 b 382 749 713 601 586 749 b 71 496 215 749 100 654 l 188 496 b 378 642 219 592 285 642 b 553 547 451 642 514 608 b 592 392 581 506 590 464 z m 589 297 b 381 75 579 163 497 75 b 179 289 267 75 179 169 b 181 297 179 292 179 294 z "},"ɚ":{"ha":1117,"x_min":0,"x_max":0,"o":"m 589 297 b 381 75 579 163 497 75 b 179 297 288 75 179 143 z m 56 392 b 379 -32 56 275 56 -32 b 713 363 582 -32 713 124 b 664 585 713 450 696 525 l 760 683 b 954 325 800 514 867 325 b 1075 388 1008 325 1042 354 l 1075 546 b 963 442 1043 494 1017 442 b 828 792 917 442 872 676 l 732 792 l 608 662 b 382 749 552 718 475 749 b 71 496 215 749 100 654 l 188 496 b 378 642 219 592 285 642 b 592 392 445 642 587 610 z "},"ɛ":{"ha":694,"x_min":0,"x_max":0,"o":"m 515 217 b 338 75 506 146 479 75 b 174 189 236 75 174 121 b 315 307 174 242 232 307 l 418 307 l 418 413 l 332 413 b 197 532 235 413 197 481 b 351 642 197 599 257 642 b 497 525 444 642 494 601 l 619 525 b 356 749 618 668 524 749 b 76 526 186 749 76 661 b 167 371 76 453 103 407 b 47 199 85 335 47 282 b 347 -32 47 58 164 -32 b 638 217 538 -32 632 49 z "},"ɜ":{"ha":693,"x_min":0,"x_max":0,"o":"m 172 217 l 50 217 b 340 -32 56 49 150 -32 b 640 199 524 -32 640 58 b 521 371 640 282 603 335 b 611 526 585 407 611 453 b 332 749 611 661 501 749 b 68 525 164 749 69 668 l 190 525 b 336 642 193 601 243 642 b 490 532 431 642 490 599 b 356 413 490 481 453 413 l 269 413 l 269 307 l 372 307 b 514 189 456 307 514 242 b 350 75 514 121 451 75 b 172 217 208 75 182 146 z "},"ɝ":{"ha":1031,"x_min":0,"x_max":0,"o":"m 169 217 l 47 217 b 338 -32 53 49 147 -32 b 638 199 521 -32 638 58 b 518 371 638 282 600 335 b 608 526 582 407 608 453 b 598 594 608 550 605 573 b 685 683 636 632 685 681 b 879 325 731 511 778 325 b 1000 388 933 325 967 354 l 1000 546 b 890 442 968 494 945 442 b 753 792 840 442 797 676 l 657 792 l 540 682 b 329 749 491 724 418 749 b 65 525 161 749 67 668 l 188 525 b 333 642 190 601 240 642 b 488 532 428 642 488 599 b 353 413 488 481 450 413 l 267 413 l 267 307 l 369 307 b 511 189 453 307 511 242 b 347 75 511 121 449 75 b 169 217 206 75 179 146 z "},"ɞ":{"ha":708,"x_min":0,"x_max":0,"o":"m 47 375 b 47 369 47 373 47 371 b 369 -32 47 74 150 -32 b 665 199 553 -32 665 58 b 546 371 665 282 628 335 b 636 526 610 407 636 453 b 353 749 636 661 522 749 b 47 375 117 749 49 613 z m 357 642 b 515 532 451 642 515 599 b 381 413 515 481 478 413 l 324 413 l 324 307 l 397 307 b 539 189 481 307 539 242 b 379 75 539 121 481 75 b 171 358 235 75 171 156 b 357 642 171 579 231 642 z "},"ɟ":{"ha":393,"x_min":0,"x_max":0,"o":"m 150 728 l 150 433 l 42 433 l 42 333 l 150 333 l 150 -106 b 56 -201 150 -178 126 -201 b 28 -200 51 -201 51 -201 l 28 -299 b 67 -303 42 -301 49 -303 b 265 -151 197 -303 265 -250 l 265 333 l 372 333 l 372 433 l 265 433 l 265 728 z "},"ɠ":{"ha":828,"x_min":0,"x_max":0,"o":"m 363 642 b 561 354 488 642 561 536 b 364 75 561 181 486 75 b 161 358 238 75 161 182 b 363 642 161 533 239 642 z m 358 -206 b 182 -83 322 -206 201 -201 l 64 -83 b 354 -303 76 -221 183 -303 b 679 119 631 -303 679 -133 l 679 728 b 760 801 679 783 707 801 b 800 800 769 801 774 801 l 800 896 b 735 903 774 901 758 903 b 572 738 628 903 572 842 l 572 622 b 350 749 514 708 443 749 b 40 351 165 749 40 588 b 340 -32 40 114 175 -32 b 561 99 432 -32 496 7 l 561 61 b 358 -206 561 -107 522 -206 z "},"ɡ":{"ha":772,"x_min":0,"x_max":0,"o":"m 363 642 b 561 354 488 642 561 536 b 364 75 561 181 486 75 b 161 358 238 75 161 182 b 363 642 161 533 239 642 z m 340 -32 b 561 99 432 -32 496 7 l 561 61 b 358 -206 561 -106 522 -206 b 182 -83 322 -206 201 -201 l 64 -83 b 354 -303 76 -221 183 -303 b 679 119 631 -303 679 -133 l 679 575 b 710 626 679 610 689 626 b 732 622 715 626 722 625 l 751 722 b 667 738 725 732 697 738 b 569 625 607 738 575 686 b 350 749 513 710 442 749 b 40 351 165 749 40 588 b 340 -32 40 114 175 -32 z "},"ɢ":{"ha":772,"x_min":0,"x_max":0,"o":"m 164 354 b 401 642 164 538 243 642 b 597 510 515 642 576 606 l 717 510 b 403 749 689 661 575 749 b 43 354 115 749 43 504 b 386 -32 43 124 183 -32 b 642 88 488 -32 569 6 l 665 -12 l 726 -12 l 726 388 l 414 388 l 414 303 l 604 303 l 604 282 b 407 72 604 149 479 72 b 164 354 213 72 164 193 z "},"ɣ":{"ha":694,"x_min":0,"x_max":0,"o":"m 349 -204 b 329 -157 347 -204 329 -200 b 347 -62 329 -136 333 -106 b 368 -156 358 -97 368 -142 b 349 -204 368 -193 358 -204 z m 213 -146 b 353 -319 213 -217 240 -319 b 482 -139 411 -319 482 -282 b 410 108 482 -93 446 13 l 671 728 l 546 728 l 347 264 l 149 728 l 24 728 l 285 110 b 213 -146 247 11 213 -97 z "},"ɤ":{"ha":772,"x_min":0,"x_max":0,"o":"m 228 753 b 17 463 140 753 25 625 l 122 463 b 230 644 127 536 187 644 b 314 579 262 644 300 597 b 179 233 236 460 179 307 b 394 -33 179 24 303 -33 b 593 233 478 -33 593 22 b 450 576 593 301 531 456 b 542 644 475 606 520 644 b 650 463 599 644 650 504 l 756 463 b 536 753 756 571 660 753 b 381 665 506 753 446 735 b 228 753 336 714 289 753 z m 382 482 b 486 236 439 389 486 279 b 389 74 486 165 468 74 b 286 232 349 74 286 100 b 382 482 286 307 332 403 z "},"ɥ":{"ha":772,"x_min":0,"x_max":0,"o":"m 213 224 l 213 728 l 97 728 l 97 178 b 326 -21 97 56 185 -21 b 560 100 429 -21 492 11 l 560 -285 l 675 -285 l 675 728 l 560 728 l 560 326 b 363 81 560 178 482 81 b 213 224 303 81 213 110 z "},"ɦ":{"ha":772,"x_min":0,"x_max":0,"o":"m 560 504 l 560 0 l 675 0 l 675 550 b 446 749 675 672 588 749 b 213 628 343 749 281 717 l 213 842 b 293 917 213 890 240 917 b 333 914 303 917 321 915 l 333 1010 b 268 1017 307 1015 292 1017 b 97 851 161 1017 97 956 l 97 0 l 213 0 l 213 401 b 410 647 213 550 290 647 b 560 504 469 647 560 618 z "},"ɧ":{"ha":772,"x_min":0,"x_max":0,"o":"m 560 504 l 560 -106 b 465 -201 560 -178 536 -201 b 438 -200 461 -201 461 -201 l 438 -299 b 476 -303 451 -301 458 -303 b 675 -151 607 -303 675 -250 l 675 550 b 446 749 675 672 588 749 b 213 628 343 749 281 717 l 213 842 b 293 915 213 890 240 915 b 333 914 303 915 307 915 l 333 1010 b 268 1017 307 1015 292 1017 b 97 851 161 1017 97 956 l 97 0 l 213 0 l 213 401 b 410 647 213 550 290 647 b 560 504 469 647 560 618 z "},"ɨ":{"ha":372,"x_min":0,"x_max":0,"o":"m 240 1013 l 124 1013 l 124 867 l 240 867 z m 125 433 l 21 433 l 21 333 l 125 333 l 125 0 l 240 0 l 240 333 l 351 333 l 351 433 l 240 433 l 240 728 l 125 728 z "},"ɩ":{"ha":354,"x_min":0,"x_max":0,"o":"m 207 728 l 92 728 l 92 83 b 232 -32 92 10 142 -32 b 326 -22 260 -32 288 -29 l 326 75 b 271 69 311 71 293 69 b 207 135 221 69 207 83 z "},"ɪ":{"ha":386,"x_min":0,"x_max":0,"o":"m 28 728 l 28 628 l 142 628 l 142 100 l 28 100 l 28 0 l 358 0 l 358 100 l 257 100 l 257 628 l 358 628 l 358 728 z "},"ɫ":{"ha":657,"x_min":0,"x_max":0,"o":"m 175 515 b 251 485 208 515 251 485 l 251 0 l 368 0 l 368 410 l 371 408 b 483 372 407 386 449 372 b 629 571 571 372 629 425 l 556 571 b 485 467 556 507 545 467 b 368 518 449 467 423 485 l 368 1013 l 251 1013 l 251 587 b 178 608 228 600 202 608 b 28 407 88 608 35 538 l 101 407 b 175 515 104 444 115 515 z "},"ɬ":{"ha":593,"x_min":0,"x_max":0,"o":"m 238 709 b 28 544 72 704 28 609 b 238 388 28 400 157 388 l 238 0 l 354 0 l 354 388 l 565 388 l 565 494 l 354 494 l 354 1013 l 238 1013 z m 238 494 b 135 550 179 494 135 506 b 238 608 135 576 157 608 z "},"ɭ":{"ha":361,"x_min":0,"x_max":0,"o":"m 94 -151 b 294 -303 94 -250 164 -303 b 333 -299 313 -303 319 -301 l 333 -200 b 306 -201 310 -201 310 -201 b 211 -106 235 -201 211 -178 l 211 1013 l 94 1013 z "},"ɮ":{"ha":858,"x_min":0,"x_max":0,"o":"m 556 383 l 754 625 l 754 728 l 211 728 l 211 1013 l 94 1013 l 94 0 l 211 0 l 211 626 l 617 626 l 418 389 l 418 285 b 485 288 445 287 462 288 b 689 107 619 288 689 225 b 485 -90 689 -17 613 -90 b 301 8 364 -90 333 -44 l 200 -56 b 481 -199 233 -121 307 -199 b 814 108 683 -199 814 -78 b 556 383 814 275 715 364 z "},"ɯ":{"ha":1157,"x_min":0,"x_max":0,"o":"m 1058 0 l 1058 728 l 942 728 l 942 271 b 771 81 942 165 865 81 b 636 226 685 81 636 133 l 636 728 l 519 728 l 519 271 b 349 81 519 165 443 81 b 214 226 264 81 214 135 l 214 728 l 97 728 l 97 182 b 308 -21 97 51 172 -21 b 532 90 406 -21 464 8 b 728 -21 575 13 633 -21 b 951 103 825 -21 889 15 l 951 0 z "},"ɰ":{"ha":1157,"x_min":0,"x_max":0,"o":"m 1058 -278 l 1058 728 l 942 728 l 942 271 b 771 81 942 165 865 81 b 636 226 685 81 636 133 l 636 728 l 519 728 l 519 271 b 349 81 519 165 443 81 b 214 226 264 81 214 135 l 214 728 l 97 728 l 97 182 b 308 -21 97 51 172 -21 b 532 90 406 -21 464 8 b 728 -21 575 13 633 -21 b 951 103 825 -21 889 15 l 951 -278 z "},"ɱ":{"ha":1157,"x_min":0,"x_max":0,"o":"m 97 728 l 97 0 l 214 0 l 214 457 b 385 647 214 563 290 647 b 519 501 471 647 519 594 l 519 0 l 636 0 l 636 457 b 807 647 636 563 713 647 b 942 501 892 647 942 593 l 942 -106 b 847 -201 942 -178 918 -201 b 819 -200 843 -201 843 -201 l 819 -299 b 858 -303 833 -301 840 -303 b 1058 -151 989 -303 1058 -250 l 1058 546 b 847 749 1058 676 983 749 b 624 638 750 749 692 719 b 428 749 581 715 522 749 b 204 625 331 749 267 713 l 204 728 z "},"ɲ":{"ha":825,"x_min":0,"x_max":0,"o":"m 150 728 l 150 -106 b 56 -201 150 -178 126 -201 b 28 -200 51 -201 51 -201 l 28 -299 b 67 -303 42 -301 49 -303 b 267 -151 197 -303 267 -250 l 267 401 b 464 647 267 550 344 647 b 614 504 556 647 614 592 l 614 0 l 729 0 l 729 550 b 499 749 729 671 639 749 b 257 606 390 749 321 707 l 257 728 z "},"ɳ":{"ha":828,"x_min":0,"x_max":0,"o":"m 97 728 l 97 0 l 214 0 l 214 401 b 411 647 214 550 292 647 b 561 504 503 647 561 592 l 561 -151 b 761 -303 561 -250 631 -303 b 800 -299 779 -303 786 -301 l 800 -200 b 772 -201 776 -201 776 -201 b 678 -106 701 -201 678 -178 l 678 550 b 446 749 678 671 586 749 b 204 606 338 749 268 707 l 204 728 z "},"ɴ":{"ha":788,"x_min":0,"x_max":0,"o":"m 690 728 l 574 728 l 574 154 l 247 728 l 97 728 l 97 0 l 213 0 l 213 574 l 539 0 l 690 0 z "},"ɵ":{"ha":772,"x_min":0,"x_max":0,"o":"m 378 749 b 50 358 174 749 50 603 b 379 -32 50 114 172 -32 b 708 353 583 -32 708 114 b 378 749 708 604 588 749 z m 586 403 l 172 403 b 379 642 185 551 261 642 b 586 403 497 642 572 554 z m 585 306 b 379 75 571 163 494 75 b 174 306 264 75 188 161 z "},"ɶ":{"ha":1081,"x_min":0,"x_max":0,"o":"m 379 642 b 564 506 468 642 532 593 l 564 211 b 379 75 531 125 467 75 b 171 358 250 75 171 182 b 379 642 171 533 250 642 z m 1022 624 l 1022 728 l 564 728 l 564 697 b 378 749 514 731 451 749 b 50 358 174 749 50 603 b 379 -32 50 114 172 -32 b 564 21 451 -32 514 -14 l 564 0 l 1028 0 l 1028 106 l 681 106 l 681 321 l 975 321 l 975 426 l 681 426 l 681 624 z "},"ɷ":{"ha":1003,"x_min":0,"x_max":0,"o":"m 849 326 b 696 88 849 208 814 88 b 560 213 590 88 560 161 l 560 522 l 443 522 l 443 213 b 306 88 443 169 421 88 b 154 326 188 88 154 210 b 501 643 154 538 258 643 b 849 326 675 643 849 603 z m 38 335 b 301 -12 38 153 118 -12 b 501 113 404 -12 464 39 b 701 -12 540 39 600 -12 b 965 335 811 -12 965 60 b 501 753 965 508 893 753 b 38 335 107 753 38 502 z "},"ɸ":{"ha":1014,"x_min":0,"x_max":0,"o":"m 64 364 b 447 -14 64 138 224 -14 l 447 -278 l 569 -278 l 569 -14 b 953 361 854 -14 953 163 b 569 739 953 588 793 739 l 569 989 l 447 989 l 447 739 b 64 364 172 739 64 563 z m 181 363 b 447 626 181 490 250 626 l 447 99 b 181 363 263 99 181 219 z m 836 363 b 569 99 836 219 768 99 l 569 626 b 836 363 758 626 836 506 z "},"ɹ":{"ha":463,"x_min":0,"x_max":0,"o":"m 17 101 l 17 -17 b 61 -21 36 -19 46 -21 b 260 132 136 -21 193 24 l 260 0 l 367 0 l 367 728 l 250 728 l 250 350 b 17 101 250 146 157 104 z "},"ɺ":{"ha":463,"x_min":0,"x_max":0,"o":"m 17 101 l 17 -17 b 61 -21 36 -19 46 -21 b 260 132 136 -21 193 24 l 260 0 l 367 0 l 367 1013 l 250 1013 l 250 350 b 17 101 250 146 157 104 z "},"ɻ":{"ha":517,"x_min":0,"x_max":0,"o":"m 17 101 l 17 -17 b 61 -21 36 -19 46 -21 b 260 132 136 -21 193 24 l 260 -151 b 450 -303 260 -250 319 -303 b 489 -299 468 -303 475 -301 l 489 -200 b 461 -201 481 -201 470 -201 b 367 -106 390 -201 367 -178 l 367 728 l 250 728 l 250 350 b 17 101 250 146 157 104 z "},"ɼ":{"ha":463,"x_min":0,"x_max":0,"o":"m 446 626 l 446 744 b 401 749 426 747 417 749 b 203 596 326 749 269 704 l 203 728 l 96 728 l 96 -278 l 213 -278 l 213 378 b 446 626 213 582 306 624 z "},"ɽ":{"ha":463,"x_min":0,"x_max":0,"o":"m 446 626 l 446 744 b 401 749 426 747 417 749 b 203 596 326 749 269 704 l 203 728 l 96 728 l 96 -151 b 296 -303 96 -250 165 -303 b 335 -299 314 -303 321 -301 l 335 -200 b 307 -201 311 -201 311 -201 b 213 -106 236 -201 213 -178 l 213 378 b 446 626 213 582 306 624 z "},"ɾ":{"ha":536,"x_min":0,"x_max":0,"o":"m 233 0 l 233 551 b 317 647 233 619 254 644 b 400 551 379 644 400 619 l 517 551 l 517 597 b 317 749 517 696 447 749 b 117 597 186 749 117 696 l 117 0 z "},"ɿ":{"ha":515,"x_min":0,"x_max":0,"o":"m 303 -278 l 419 -278 l 419 597 b 219 749 419 696 350 749 b 19 597 89 749 19 696 l 19 551 l 136 551 b 219 647 136 619 157 644 b 303 551 282 644 303 619 z "},"ʀ":{"ha":758,"x_min":0,"x_max":0,"o":"m 635 521 b 419 728 635 599 592 728 l 75 728 l 75 0 l 192 0 l 192 303 l 288 303 l 569 0 l 713 0 l 428 307 b 635 521 543 317 635 381 z m 508 506 b 382 408 508 422 432 408 l 192 408 l 192 624 l 382 624 b 508 506 439 624 508 600 z "},"ʁ":{"ha":758,"x_min":0,"x_max":0,"o":"m 635 207 b 428 421 635 347 543 411 l 713 728 l 569 728 l 288 425 l 192 425 l 192 728 l 75 728 l 75 0 l 419 0 b 635 207 592 0 635 129 z m 508 222 l 508 214 b 382 104 508 149 460 104 l 192 104 l 192 319 l 382 319 b 508 222 432 319 508 306 z "},"ʂ":{"ha":694,"x_min":0,"x_max":0,"o":"m 47 -149 b 247 -300 47 -247 117 -300 b 286 -296 265 -300 272 -299 l 286 -197 b 258 -199 263 -199 263 -199 b 164 -103 188 -199 164 -175 l 164 3 b 338 -32 208 -21 267 -32 b 638 199 521 -32 638 58 b 432 401 638 307 576 367 l 321 428 b 186 532 226 450 186 481 b 340 642 186 599 246 642 b 486 525 433 642 483 601 l 608 525 b 344 749 607 668 513 749 b 65 526 175 749 65 661 b 296 317 65 413 124 358 l 404 290 b 517 189 485 271 517 242 b 347 75 517 121 449 75 b 169 217 206 75 179 146 l 47 217 z "},"ʃ":{"ha":415,"x_min":0,"x_max":0,"o":"m 267 842 b 347 915 267 890 294 915 b 388 914 357 915 361 915 l 388 1010 b 322 1017 361 1015 346 1017 b 151 851 215 1017 151 956 l 151 -106 b 56 -201 151 -178 126 -201 b 28 -200 51 -201 51 -201 l 28 -299 b 67 -303 42 -301 49 -303 b 267 -151 197 -303 267 -250 z "},"ʄ":{"ha":414,"x_min":0,"x_max":0,"o":"m 386 433 l 265 433 l 265 842 b 346 915 265 890 293 915 b 386 914 356 915 360 915 l 386 1010 b 321 1017 360 1015 344 1017 b 150 851 214 1017 150 956 l 150 433 l 53 433 l 53 339 l 150 339 l 150 -106 b 56 -201 150 -178 126 -201 b 28 -200 51 -201 51 -201 l 28 -299 b 67 -303 42 -301 49 -303 b 265 -151 197 -303 265 -250 l 265 339 l 386 339 z "},"ʅ":{"ha":429,"x_min":0,"x_max":0,"o":"m 163 574 l 163 -151 b 363 -303 163 -250 232 -303 b 401 -299 381 -303 388 -301 l 401 -200 b 374 -201 378 -201 378 -201 b 278 -106 303 -201 278 -178 l 278 583 b 107 749 278 688 214 749 b 42 742 83 749 68 747 l 42 646 b 82 647 68 647 72 647 b 163 574 135 647 163 622 z "},"ʆ":{"ha":643,"x_min":0,"x_max":0,"o":"m 128 -143 b 217 -90 128 -122 144 -90 b 347 -112 249 -90 290 -97 b 232 -201 347 -167 328 -201 b 128 -143 150 -201 128 -169 z m 21 -137 b 246 -303 21 -204 68 -303 b 463 -147 389 -303 463 -256 b 589 -192 499 -160 540 -174 l 625 -92 b 463 -35 561 -68 508 -49 l 463 842 b 543 915 463 890 490 915 b 583 914 553 915 557 915 l 583 1010 b 518 1017 557 1015 542 1017 b 347 851 411 1017 347 956 l 347 0 b 208 18 321 7 264 18 b 21 -137 132 18 21 -12 z "},"ʇ":{"ha":386,"x_min":0,"x_max":0,"o":"m 33 201 l 153 201 l 153 1 l 268 1 l 268 201 l 367 201 l 367 296 l 268 296 l 268 846 b 128 961 268 919 218 961 b 33 951 100 961 72 958 l 33 854 b 89 860 49 858 67 860 b 153 794 139 860 153 846 l 153 296 l 33 296 z "},"ʈ":{"ha":386,"x_min":0,"x_max":0,"o":"m 353 728 l 233 728 l 233 928 l 118 928 l 118 728 l 19 728 l 19 633 l 118 633 l 118 -187 b 258 -303 118 -261 168 -303 b 353 -293 286 -303 314 -300 l 353 -196 b 297 -201 338 -200 319 -201 b 233 -136 247 -201 233 -187 l 233 633 l 353 633 z "},"ʉ":{"ha":828,"x_min":0,"x_max":0,"o":"m 700 0 l 700 333 l 808 333 l 808 433 l 700 433 l 700 728 l 585 728 l 585 433 l 236 433 l 236 728 l 121 728 l 121 433 l 19 433 l 19 333 l 121 333 l 121 167 b 353 -32 121 46 211 -32 b 596 101 460 -32 528 6 l 596 0 z m 236 333 l 585 333 l 585 315 b 386 69 585 167 507 69 b 236 213 294 69 236 125 z "},"ʊ":{"ha":869,"x_min":0,"x_max":0,"o":"m 653 654 l 806 654 l 806 756 l 511 756 l 511 649 b 685 353 664 542 685 410 b 428 69 685 296 643 69 b 171 353 222 69 171 296 b 344 649 171 410 192 542 l 344 756 l 50 756 l 50 654 l 203 654 b 47 346 111 583 47 456 b 428 -32 47 271 110 -32 b 808 346 732 -32 808 271 b 653 654 808 456 744 583 z "},"ʋ":{"ha":749,"x_min":0,"x_max":0,"o":"m 308 -32 b 689 346 613 -32 689 271 b 533 654 689 456 625 583 l 392 649 b 565 353 544 542 565 410 b 308 69 565 296 528 69 b 207 135 261 69 207 83 l 207 728 l 92 728 l 92 83 b 232 -32 92 10 142 -32 z "},"ʌ":{"ha":694,"x_min":0,"x_max":0,"o":"m 293 728 l 14 0 l 144 0 l 350 590 l 544 0 l 675 0 l 419 728 z "},"ʍ":{"ha":1003,"x_min":0,"x_max":0,"o":"m 222 728 l 8 0 l 139 0 l 283 567 l 426 0 l 568 0 l 707 567 l 856 0 l 983 0 l 772 728 l 642 728 l 501 157 l 354 728 z "},"ʎ":{"ha":694,"x_min":0,"x_max":0,"o":"m 153 0 l 354 567 l 540 0 l 664 0 l 418 731 l 463 846 b 556 917 482 897 507 917 b 617 908 572 917 592 914 l 617 1013 b 539 1031 593 1025 569 1031 b 351 881 460 1031 392 988 l 28 0 z "},"ʏ":{"ha":772,"x_min":0,"x_max":0,"o":"m 443 281 l 719 728 l 588 728 l 386 386 l 179 728 l 44 728 l 328 281 l 328 0 l 443 0 z "},"ʐ":{"ha":785,"x_min":0,"x_max":0,"o":"m 518 0 l 518 -149 b 718 -300 518 -247 588 -300 b 757 -296 736 -300 743 -299 l 757 -197 b 729 -199 733 -199 733 -199 b 635 -103 658 -199 635 -175 l 635 101 l 183 101 l 615 625 l 615 728 l 72 728 l 72 626 l 478 626 l 43 104 l 43 0 z "},"ʑ":{"ha":706,"x_min":0,"x_max":0,"o":"m 665 132 b 506 290 665 258 568 290 b 342 142 407 290 342 224 l 342 101 l 183 101 l 615 625 l 615 728 l 72 728 l 72 626 l 478 626 l 43 104 l 43 0 l 342 0 l 342 -133 l 442 -133 l 442 0 b 665 132 569 0 665 24 z m 504 189 b 564 144 549 189 564 172 b 456 101 564 113 564 101 l 442 101 l 442 142 b 504 189 442 160 454 189 z "},"ʒ":{"ha":731,"x_min":0,"x_max":0,"o":"m 428 383 l 626 625 l 626 728 l 83 728 l 83 626 l 489 626 l 290 389 l 290 285 l 357 285 b 561 107 492 285 561 225 b 357 -90 561 -17 485 -90 b 150 119 224 -90 158 -24 l 28 119 b 353 -199 43 -94 147 -199 b 686 108 556 -199 686 -78 b 428 383 686 275 588 364 z "},"ʓ":{"ha":767,"x_min":0,"x_max":0,"o":"m 417 383 l 615 625 l 615 728 l 72 728 l 72 626 l 478 626 l 279 389 l 279 285 l 346 285 b 550 107 481 285 550 225 b 549 83 550 99 550 91 b 322 129 472 108 416 129 b 135 -26 246 129 135 99 b 337 -191 135 -90 178 -191 b 632 -57 471 -191 578 -146 b 703 -81 662 -66 688 -75 l 739 19 b 669 44 722 26 697 34 b 675 108 673 64 675 86 b 417 383 675 275 576 364 z m 331 21 b 522 -15 426 21 482 0 b 346 -90 506 -43 438 -90 b 242 -32 264 -90 242 -58 b 331 21 242 -11 258 21 z "},"ʔ":{"ha":772,"x_min":0,"x_max":0,"o":"m 375 878 b 549 710 483 878 549 814 b 307 556 549 582 469 558 l 307 0 l 424 0 l 424 458 b 503 474 446 461 472 465 b 674 714 611 501 674 615 b 374 985 674 883 561 985 b 65 667 175 985 69 876 l 188 667 b 375 878 190 774 219 878 z "},"ʕ":{"ha":772,"x_min":0,"x_max":0,"o":"m 551 667 l 674 667 b 365 985 669 876 564 985 b 65 714 178 985 65 883 b 236 474 65 615 128 501 b 315 458 267 465 293 461 l 315 0 l 432 0 l 432 556 b 190 710 269 558 190 582 b 364 878 190 814 256 878 b 551 667 504 878 549 794 z "},"ʖ":{"ha":772,"x_min":0,"x_max":0,"o":"m 364 107 b 190 275 256 107 190 171 b 432 429 190 403 269 426 l 432 985 l 315 985 l 315 526 b 236 511 293 524 267 519 b 65 271 128 483 65 369 b 365 0 65 101 178 0 b 674 318 564 0 669 108 l 551 318 b 364 107 549 211 519 107 z "},"ʗ":{"ha":1003,"x_min":0,"x_max":0,"o":"m 67 494 l 67 229 b 524 -296 67 22 160 -296 b 940 106 771 -296 910 -162 l 807 106 b 525 -182 776 -86 694 -182 b 196 231 324 -182 196 -22 l 196 496 b 514 915 196 756 318 915 b 788 699 678 915 758 840 l 919 699 b 529 1029 879 921 751 1029 b 67 494 160 1029 67 706 z "},"ʘ":{"ha":1081,"x_min":0,"x_max":0,"o":"m 1031 490 b 540 1029 1031 817 838 1029 b 53 499 250 1029 53 815 b 542 -32 53 182 250 -32 b 1031 490 844 -32 1031 199 z m 540 915 b 901 493 760 915 901 749 b 542 82 901 249 756 82 b 182 499 326 82 182 249 b 540 915 182 749 326 915 z m 613 575 l 468 575 l 468 431 l 613 431 z "},"ʙ":{"ha":703,"x_min":0,"x_max":0,"o":"m 524 224 l 524 215 b 397 106 524 150 475 106 l 214 106 l 214 321 l 397 321 b 524 224 447 321 524 307 z m 496 522 b 350 426 496 483 474 426 l 214 426 l 214 624 l 350 624 b 496 522 474 624 496 563 z m 401 728 l 97 728 l 97 0 l 435 0 b 650 208 568 0 650 90 b 517 385 650 296 610 349 b 613 544 582 417 613 469 b 401 728 613 622 571 728 z "},"ʚ":{"ha":722,"x_min":0,"x_max":0,"o":"m 665 363 b 360 749 665 641 598 749 b 76 526 190 749 76 661 b 167 371 76 453 103 407 b 47 199 85 335 47 282 b 343 -32 47 58 160 -32 b 665 363 562 -32 665 68 z m 356 642 b 542 358 482 642 542 579 b 333 75 542 156 478 75 b 174 189 232 75 174 121 b 315 307 174 242 232 307 l 389 307 l 389 413 l 332 413 b 197 532 235 413 197 481 b 356 642 197 599 261 642 z "},"ʛ":{"ha":865,"x_min":0,"x_max":0,"o":"m 164 354 b 401 642 164 538 243 642 b 597 510 515 642 576 606 l 717 510 l 717 581 b 797 654 717 629 744 654 b 838 653 807 654 811 654 l 838 749 b 772 756 811 754 796 756 b 622 679 701 756 649 728 b 403 749 568 725 493 749 b 43 354 115 749 43 504 b 386 -32 43 124 183 -32 b 642 88 488 -32 569 6 l 665 -12 l 726 -12 l 726 388 l 414 388 l 414 303 l 604 303 l 604 282 b 407 72 604 149 479 72 b 164 354 213 72 164 193 z "},"ʜ":{"ha":775,"x_min":0,"x_max":0,"o":"m 97 728 l 97 0 l 214 0 l 214 324 l 561 324 l 561 0 l 678 0 l 678 728 l 561 728 l 561 429 l 214 429 l 214 728 z "},"ʝ":{"ha":651,"x_min":0,"x_max":0,"o":"m 461 1013 l 346 1013 l 346 867 l 461 867 z m 19 -137 b 244 -303 19 -204 67 -303 b 461 -147 388 -303 461 -256 b 588 -192 497 -160 539 -174 l 624 -92 b 461 -35 560 -68 507 -49 l 461 728 l 346 728 l 346 0 b 207 18 319 7 263 18 b 19 -137 131 18 19 -12 z m 126 -143 b 215 -90 126 -122 143 -90 b 346 -112 247 -90 289 -97 b 231 -201 346 -167 326 -201 b 126 -143 149 -201 126 -169 z "},"ʞ":{"ha":764,"x_min":0,"x_max":0,"o":"m 554 -279 l 669 -279 l 669 733 l 554 733 l 554 450 l 442 339 l 196 733 l 53 733 l 350 257 l 97 6 l 246 6 l 554 314 z "},"ʟ":{"ha":597,"x_min":0,"x_max":0,"o":"m 97 0 l 528 0 l 528 106 l 214 106 l 214 728 l 97 728 z "},"ʠ":{"ha":836,"x_min":0,"x_max":0,"o":"m 369 640 b 572 354 493 640 572 529 b 369 76 572 188 492 76 b 157 358 242 76 157 189 b 369 640 157 526 242 640 z m 581 636 b 353 749 526 708 446 749 b 36 350 161 749 36 592 b 347 -32 36 114 156 -32 b 572 83 449 -32 518 4 l 572 -303 l 688 -303 l 688 728 b 768 801 688 783 715 801 b 808 800 778 801 782 801 l 808 896 b 743 903 782 901 767 903 b 581 738 636 903 581 842 z "},"ʡ":{"ha":772,"x_min":0,"x_max":0,"o":"m 375 878 b 549 710 483 878 549 814 b 307 556 549 582 469 558 l 307 433 l 161 433 l 161 333 l 307 333 l 307 0 l 424 0 l 424 333 l 575 333 l 575 433 l 424 433 l 424 458 b 503 474 446 461 472 465 b 674 714 611 501 674 615 b 374 985 674 883 561 985 b 65 667 175 985 69 876 l 188 667 b 375 878 190 774 219 878 z "},"ʢ":{"ha":772,"x_min":0,"x_max":0,"o":"m 551 667 l 674 667 b 365 985 669 876 564 985 b 65 714 178 985 65 883 b 236 474 65 615 128 501 b 315 458 267 465 293 461 l 315 433 l 164 433 l 164 333 l 315 333 l 315 0 l 432 0 l 432 333 l 578 333 l 578 433 l 432 433 l 432 556 b 190 710 269 558 190 582 b 364 878 190 814 256 878 b 551 667 504 878 549 794 z "},"ʣ":{"ha":1306,"x_min":0,"x_max":0,"o":"m 368 640 b 572 356 493 640 572 529 b 369 76 572 188 492 76 b 157 358 242 76 157 189 b 368 640 157 528 242 640 z m 1226 728 l 688 728 l 688 1013 l 572 1013 l 572 636 b 349 749 524 710 446 749 b 36 365 160 749 36 597 b 353 -32 36 119 157 -32 b 585 96 453 -32 522 6 l 585 0 l 1246 0 l 1246 101 l 794 101 l 1226 625 z m 688 626 l 1089 626 l 688 144 z "},"ʤ":{"ha":1328,"x_min":0,"x_max":0,"o":"m 1028 383 l 1226 625 l 1226 728 l 688 728 l 688 1013 l 572 1013 l 572 636 b 349 749 524 710 446 749 b 36 365 160 749 36 597 b 353 -32 36 119 157 -32 b 585 96 453 -32 522 6 l 585 0 l 688 0 l 688 626 l 1089 626 l 890 389 l 890 285 b 957 288 917 287 935 288 b 1161 107 1092 288 1161 225 b 957 -90 1161 -17 1085 -90 b 774 8 836 -90 806 -44 l 672 -56 b 953 -199 706 -121 779 -199 b 1286 108 1156 -199 1286 -78 b 1028 383 1286 275 1188 364 z m 368 640 b 572 356 493 640 572 529 b 369 76 572 188 492 76 b 157 358 242 76 157 189 b 368 640 157 528 242 640 z "},"ʥ":{"ha":1311,"x_min":0,"x_max":0,"o":"m 368 640 b 572 356 493 640 572 529 b 369 76 572 188 492 76 b 157 358 242 76 157 189 b 368 640 157 528 242 640 z m 1118 189 b 1178 144 1163 189 1178 172 b 1069 101 1178 113 1178 101 l 1056 101 l 1056 142 b 1118 189 1056 160 1068 189 z m 1279 132 b 1119 290 1279 258 1182 290 b 956 142 1021 290 956 224 l 956 101 l 797 101 l 1229 625 l 1229 728 l 688 728 l 688 1013 l 572 1013 l 572 636 b 349 749 524 710 446 749 b 36 365 160 749 36 597 b 353 -32 36 119 157 -32 b 585 96 453 -32 522 6 l 585 0 l 956 0 l 956 -133 l 1056 -133 l 1056 0 b 1279 132 1183 0 1279 24 z m 688 626 l 1092 626 l 688 140 z "},"ʦ":{"ha":957,"x_min":0,"x_max":0,"o":"m 297 75 b 233 140 242 75 233 89 l 233 633 l 353 633 l 353 728 l 233 728 l 233 928 l 118 928 l 118 728 l 19 728 l 19 633 l 118 633 l 118 83 b 258 -32 118 10 169 -32 l 629 -32 b 929 199 811 -32 929 58 b 724 401 929 307 868 367 l 613 428 b 478 532 518 450 478 481 b 632 642 478 599 538 642 b 778 525 725 642 775 601 l 900 525 b 636 749 899 668 804 749 b 357 526 467 749 357 661 b 588 317 357 413 415 358 l 696 290 b 808 189 776 271 808 242 b 639 75 808 121 728 75 z "},"ʧ":{"ha":715,"x_min":0,"x_max":0,"o":"m 567 842 b 647 915 567 890 594 915 b 688 914 657 915 661 915 l 688 1010 b 622 1017 661 1015 646 1017 b 451 851 515 1017 451 956 l 451 728 l 229 728 l 229 928 l 114 928 l 114 728 l 15 728 l 15 633 l 114 633 l 114 83 b 254 -32 114 10 164 -32 b 451 -13 275 -32 381 -21 l 451 -106 b 356 -201 451 -178 426 -201 b 328 -200 351 -201 351 -201 l 328 -299 b 367 -303 342 -301 349 -303 b 567 -151 497 -303 567 -250 z m 451 84 b 293 69 393 78 308 69 b 229 135 243 69 229 83 l 229 633 l 451 633 z "},"ʨ":{"ha":1061,"x_min":0,"x_max":0,"o":"m 353 728 l 233 728 l 233 928 l 118 928 l 118 728 l 19 728 l 19 633 l 118 633 l 118 83 b 258 -32 118 10 168 -32 b 519 32 285 -32 468 21 b 710 -26 570 -6 635 -26 l 710 -160 l 810 -160 l 810 -26 b 1033 106 938 -26 1033 -3 b 874 264 1033 232 936 264 b 710 115 775 264 710 197 l 710 75 b 504 351 581 75 504 179 b 706 642 504 533 579 642 b 878 483 803 642 864 585 l 994 483 b 707 749 981 657 874 749 b 383 351 511 749 383 593 b 447 108 383 253 406 170 b 297 69 386 91 311 69 b 233 135 247 69 233 83 l 233 633 l 353 633 z m 872 163 b 932 118 917 163 932 146 b 824 75 932 86 932 75 l 810 75 l 810 115 b 872 163 810 133 822 163 z "},"ʩ":{"ha":1092,"x_min":0,"x_max":0,"o":"m 1021 550 b 790 749 1021 671 931 749 b 549 606 682 749 613 707 l 549 728 l 238 728 l 238 842 b 318 915 238 890 265 915 b 358 914 328 915 332 915 l 358 1010 b 293 1017 332 1015 317 1017 b 122 851 186 1017 122 956 l 122 728 l 25 728 l 25 633 l 122 633 l 122 0 l 238 0 l 238 633 l 442 633 l 442 0 l 558 0 l 558 401 b 756 647 558 550 636 647 b 906 504 847 647 906 592 l 906 -79 b 811 -175 906 -151 882 -175 b 783 -174 807 -175 807 -175 l 783 -272 b 822 -276 797 -275 803 -276 b 1022 -125 953 -276 1022 -222 z "},"ʪ":{"ha":917,"x_min":0,"x_max":0,"o":"m 211 70 b 581 -32 299 19 422 -32 b 881 199 764 -32 881 58 b 675 401 881 307 819 367 l 564 428 b 429 532 469 450 429 481 b 583 642 429 599 489 642 b 729 525 676 642 726 601 l 851 525 b 588 749 850 668 756 749 b 308 526 418 749 308 661 b 539 317 308 413 367 359 l 647 290 b 760 189 728 271 760 242 b 590 75 760 121 692 75 b 211 201 461 75 290 131 l 211 1013 l 94 1013 l 94 0 l 211 0 z "},"ʫ":{"ha":829,"x_min":0,"x_max":0,"o":"m 754 728 l 211 728 l 211 1013 l 94 1013 l 94 0 l 774 0 l 774 101 l 322 101 l 754 625 z m 211 626 l 617 626 l 211 139 z "},"ʬ":{"ha":736,"x_min":0,"x_max":0,"o":"m 558 540 l 697 1013 l 613 1013 l 519 645 l 426 1013 l 334 1013 l 243 645 l 147 1013 l 64 1013 l 201 540 l 286 540 l 377 911 l 473 540 z m 558 0 l 697 473 l 613 473 l 519 104 l 426 473 l 334 473 l 243 104 l 147 473 l 64 473 l 201 0 l 286 0 l 377 371 l 473 0 z "},"ʭ":{"ha":675,"x_min":0,"x_max":0,"o":"m 42 856 l 42 665 l 139 665 l 139 758 l 536 758 l 536 665 l 633 665 l 633 856 z m 42 356 l 42 165 l 139 165 l 139 258 l 536 258 l 536 165 l 633 165 l 633 356 z "},"ʮ":{"ha":792,"x_min":0,"x_max":0,"o":"m 150 819 l 150 164 b 379 -35 150 42 238 -35 b 613 86 482 -35 544 -3 l 613 -275 l 728 -275 l 728 714 l 613 714 l 613 313 b 415 67 613 164 535 67 b 265 210 356 67 265 96 l 265 865 b 67 1017 265 964 197 1017 b 28 1013 49 1017 42 1015 l 28 914 b 56 915 51 915 51 915 b 150 819 126 915 150 892 z "},"ʯ":{"ha":876,"x_min":0,"x_max":0,"o":"m 728 -128 l 728 714 l 613 714 l 613 313 b 415 67 613 164 535 67 b 265 210 356 67 265 96 l 265 865 b 67 1017 265 964 197 1017 b 28 1013 49 1017 42 1015 l 28 914 b 56 915 51 915 51 915 b 150 819 126 915 150 892 l 150 164 b 379 -35 150 42 238 -35 b 613 86 482 -35 544 -3 l 613 -137 b 783 -303 613 -242 676 -303 b 849 -296 807 -303 822 -301 l 849 -200 b 808 -201 822 -201 818 -201 b 728 -128 756 -201 728 -176 z "},"ʰ":{"ha":463,"x_min":0,"x_max":0,"o":"m 346 723 l 346 395 l 421 395 l 421 753 b 272 882 421 832 364 882 b 120 803 205 882 165 861 l 120 1053 l 46 1053 l 46 395 l 120 395 l 120 656 b 249 816 120 753 171 816 b 346 723 288 816 346 797 z "},"ʱ":{"ha":463,"x_min":0,"x_max":0,"o":"m 346 722 l 346 395 l 421 395 l 421 752 b 272 881 421 832 364 881 b 120 803 205 881 165 860 l 120 942 b 173 990 120 973 139 990 b 199 989 179 990 191 989 l 199 1051 b 157 1055 182 1055 172 1055 b 46 948 87 1055 46 1016 l 46 395 l 120 395 l 120 655 b 249 815 120 752 171 815 b 346 722 288 815 346 796 z "},"ʲ":{"ha":232,"x_min":0,"x_max":0,"o":"m 97 866 l 97 324 b 38 261 97 277 82 261 b 17 263 32 261 24 262 l 17 199 b 42 196 26 197 31 196 b 171 295 127 196 171 231 l 171 866 z m 171 1051 l 97 1051 l 97 956 l 171 956 z "},"ʳ":{"ha":328,"x_min":0,"x_max":0,"o":"m 280 802 l 280 879 b 252 881 268 881 261 881 b 122 782 203 881 166 853 l 122 868 l 53 868 l 53 395 l 129 395 l 129 640 b 280 802 129 773 189 800 z "},"ʴ":{"ha":328,"x_min":0,"x_max":0,"o":"m 42 459 l 42 382 b 71 380 54 381 61 380 b 200 479 119 380 156 409 l 200 393 l 269 393 l 269 866 l 193 866 l 193 621 b 42 459 193 488 133 461 z "},"ʵ":{"ha":383,"x_min":0,"x_max":0,"o":"m 36 460 l 36 383 b 65 381 50 381 56 381 b 194 479 114 381 151 410 l 194 296 b 318 197 194 232 233 197 b 344 200 331 197 335 197 l 344 264 b 325 263 339 263 332 263 b 264 325 279 263 264 278 l 264 867 l 189 867 l 189 621 b 36 460 189 489 128 461 z "},"ʶ":{"ha":499,"x_min":0,"x_max":0,"o":"m 420 530 b 285 669 420 621 360 663 l 470 868 l 377 868 l 194 672 l 132 672 l 132 868 l 56 868 l 56 395 l 280 395 b 420 530 392 395 420 479 z m 338 540 l 338 534 b 256 463 338 492 306 463 l 132 463 l 132 603 l 256 603 b 338 540 288 603 338 594 z "},"ʷ":{"ha":694,"x_min":0,"x_max":0,"o":"m 525 395 l 664 868 l 579 868 l 485 500 l 392 868 l 300 868 l 210 500 l 113 868 l 30 868 l 168 395 l 252 395 l 344 766 l 439 395 z "},"ʸ":{"ha":458,"x_min":0,"x_max":0,"o":"m 356 867 l 225 499 l 104 867 l 24 867 l 184 392 l 155 317 b 94 271 142 284 126 271 b 55 276 83 271 71 273 l 55 209 b 105 197 70 201 85 197 b 227 295 157 197 201 225 l 437 867 z "},"ʹ":{"ha":386,"x_min":0,"x_max":0,"o":"m 196 994 l 118 829 l 68 632 l 118 608 l 236 775 l 314 939 z "},"ʺ":{"ha":631,"x_min":0,"x_max":0,"o":"m 485 994 l 407 829 l 357 632 l 407 608 l 525 775 l 603 939 z m 196 994 l 118 829 l 68 632 l 118 608 l 236 775 l 314 939 z "},"ʻ":{"ha":386,"x_min":0,"x_max":0,"o":"m 267 699 l 267 843 l 183 843 l 183 868 b 267 994 183 964 201 992 l 267 1047 b 121 865 169 1047 121 985 l 121 699 z "},"ʼ":{"ha":386,"x_min":0,"x_max":0,"o":"m 121 983 l 121 839 l 204 839 l 204 814 b 121 688 204 718 186 690 l 121 635 b 267 817 218 635 267 697 l 267 983 z "},"ʽ":{"ha":386,"x_min":0,"x_max":0,"o":"m 267 983 l 121 983 l 121 817 b 267 635 121 697 169 635 l 267 688 b 183 814 201 690 183 718 l 183 839 l 267 839 z "},"ʾ":{"ha":463,"x_min":0,"x_max":0,"o":"m 207 804 b 329 925 274 804 329 860 b 207 1047 329 992 274 1047 l 207 986 b 268 925 240 986 268 958 b 207 865 268 893 240 865 z "},"ʿ":{"ha":463,"x_min":0,"x_max":0,"o":"m 232 1047 b 110 926 165 1047 110 992 b 232 804 110 860 165 804 l 232 865 b 171 926 199 865 171 893 b 232 986 171 958 199 986 z "},"ˀ":{"ha":463,"x_min":0,"x_max":0,"o":"m 235 992 b 348 882 305 992 348 950 b 190 782 348 799 296 784 l 190 557 l 266 557 l 266 719 b 318 729 281 721 298 724 b 429 885 388 747 429 821 b 234 1061 429 995 356 1061 b 33 854 105 1061 36 991 l 113 854 b 235 992 115 924 134 992 z "},"ˁ":{"ha":463,"x_min":0,"x_max":0,"o":"m 350 854 l 429 854 b 229 1061 426 991 358 1061 b 34 885 107 1061 34 995 b 145 729 34 821 74 747 b 196 719 165 724 182 721 l 196 557 l 272 557 l 272 782 b 115 882 166 784 115 799 b 228 992 115 950 157 992 b 350 854 319 992 348 938 z "},"˂":{"ha":463,"x_min":0,"x_max":0,"o":"m 40 879 l 422 758 l 422 804 l 114 900 l 422 994 l 422 1041 l 40 919 z "},"˃":{"ha":463,"x_min":0,"x_max":0,"o":"m 422 919 l 40 1041 l 40 994 l 347 898 l 40 804 l 40 758 l 422 879 z "},"˄":{"ha":463,"x_min":0,"x_max":0,"o":"m 208 1042 l 71 798 l 123 798 l 232 994 l 339 798 l 392 798 l 254 1042 z "},"˅":{"ha":463,"x_min":0,"x_max":0,"o":"m 254 798 l 392 1042 l 339 1042 l 230 845 l 123 1042 l 71 1042 l 208 798 z "},"ˆ":{"ha":463,"x_min":0,"x_max":0,"o":"m 161 1029 l 28 821 l 117 821 l 226 954 l 339 821 l 426 821 l 293 1029 z "},"ˇ":{"ha":463,"x_min":0,"x_max":0,"o":"m 292 821 l 425 1029 l 336 1029 l 226 896 l 114 1029 l 26 1029 l 160 821 z "},"ˈ":{"ha":463,"x_min":0,"x_max":0,"o":"m 281 817 l 281 1090 l 181 1090 l 181 817 z "},"ˉ":{"ha":463,"x_min":0,"x_max":0,"o":"m 419 974 l 39 974 l 39 876 l 419 876 z "},"ˊ":{"ha":463,"x_min":0,"x_max":0,"o":"m 261 1028 l 128 822 l 211 822 l 418 1028 z "},"ˋ":{"ha":463,"x_min":0,"x_max":0,"o":"m 188 1028 l 31 1028 l 238 822 l 321 822 z "},"ˌ":{"ha":378,"x_min":0,"x_max":0,"o":"m 239 -360 l 239 -86 l 139 -86 l 139 -360 z "},"ˍ":{"ha":463,"x_min":0,"x_max":0,"o":"m 421 -97 l 40 -97 l 40 -194 l 421 -194 z "},"ˎ":{"ha":463,"x_min":0,"x_max":0,"o":"m 272 -74 l 115 -74 l 322 -279 l 406 -279 z "},"ˏ":{"ha":463,"x_min":0,"x_max":0,"o":"m 182 -74 l 49 -279 l 132 -279 l 339 -74 z "},"ː":{"ha":463,"x_min":0,"x_max":0,"o":"m 318 0 l 231 158 l 143 0 z m 143 758 l 231 600 l 318 758 z "},"ˑ":{"ha":463,"x_min":0,"x_max":0,"o":"m 143 758 l 231 600 l 318 758 z "},"˒":{"ha":463,"x_min":0,"x_max":0,"o":"m 169 -1 b 292 119 236 -1 292 54 b 169 242 292 186 236 242 l 169 181 b 231 119 203 181 231 153 b 169 60 231 88 203 60 z "},"˓":{"ha":463,"x_min":0,"x_max":0,"o":"m 293 246 b 171 125 226 246 171 190 b 293 3 171 58 226 3 l 293 64 b 232 125 260 64 232 92 b 293 185 232 157 260 185 z "},"˔":{"ha":463,"x_min":0,"x_max":0,"o":"m 183 304 l 15 304 l 15 207 l 447 207 l 447 304 l 281 304 l 281 558 l 183 558 z "},"˕":{"ha":463,"x_min":0,"x_max":0,"o":"m 279 461 l 447 461 l 447 558 l 15 558 l 15 461 l 182 461 l 182 207 l 279 207 z "},"˖":{"ha":463,"x_min":0,"x_max":0,"o":"m 447 321 l 447 418 l 281 418 l 281 586 l 183 586 l 183 418 l 15 418 l 15 321 l 182 321 l 182 153 l 279 153 l 279 321 z "},"˗":{"ha":463,"x_min":0,"x_max":0,"o":"m 447 418 l 15 418 l 15 321 l 447 321 z "},"˘":{"ha":463,"x_min":0,"x_max":0,"o":"m 21 1017 b 228 829 25 863 143 829 b 439 1017 357 829 429 893 l 357 1017 b 231 925 351 958 306 925 b 103 1017 151 925 110 956 z "},"˙":{"ha":463,"x_min":0,"x_max":0,"o":"m 304 994 l 160 994 l 160 850 l 304 850 z "},"˚":{"ha":463,"x_min":0,"x_max":0,"o":"m 232 1072 b 85 927 152 1072 85 1005 b 232 780 85 847 152 780 b 379 925 312 780 379 845 b 232 1072 379 1007 314 1072 z m 232 986 b 293 925 267 986 293 960 b 232 865 293 893 265 865 b 171 926 199 865 171 893 b 232 986 171 958 199 986 z "},"˛":{"ha":463,"x_min":0,"x_max":0,"o":"m 263 -285 b 368 -271 289 -285 335 -278 l 368 -208 b 281 -222 343 -218 314 -222 b 181 -147 215 -222 181 -196 b 311 0 181 -89 210 -57 l 214 0 b 79 -154 129 -31 79 -87 b 263 -285 79 -235 161 -285 z "},"˜":{"ha":463,"x_min":0,"x_max":0,"o":"m 126 996 b 7 853 65 996 22 944 l 88 853 b 133 904 96 885 113 904 b 319 851 174 904 268 851 b 443 996 388 851 429 900 l 363 996 b 311 944 351 961 336 944 b 126 996 254 944 194 996 z "},"˝":{"ha":463,"x_min":0,"x_max":0,"o":"m 85 1028 l -49 819 l 35 819 l 242 1028 z m 326 1028 l 193 819 l 276 819 l 483 1028 z "},"˞":{"ha":463,"x_min":0,"x_max":0,"o":"m 0 550 b 131 683 0 550 131 679 b 325 325 157 532 233 325 b 446 388 379 325 413 354 l 446 546 b 344 442 414 494 400 442 b 199 792 294 442 242 672 l 103 792 l 0 688 z "},"˟":{"ha":708,"x_min":0,"x_max":0,"o":"m 557 1102 l 404 1001 l 252 1102 l 201 1068 l 353 966 l 200 864 l 252 830 l 404 932 l 557 830 l 610 864 l 456 966 l 609 1068 z "},"ˠ":{"ha":463,"x_min":0,"x_max":0,"o":"m 233 261 b 220 292 232 261 220 264 b 232 353 220 305 223 325 b 245 293 239 330 245 302 b 233 261 245 268 239 261 z m 144 299 b 236 186 144 253 162 186 b 320 303 273 186 320 210 b 273 464 320 333 296 402 l 442 867 l 361 867 l 232 565 l 103 867 l 22 867 l 191 465 b 144 299 167 401 144 330 z "},"ˡ":{"ha":258,"x_min":0,"x_max":0,"o":"m 157 1052 l 82 1052 l 82 394 l 157 394 z "},"ˢ":{"ha":463,"x_min":0,"x_max":0,"o":"m 118 538 l 39 538 b 227 376 42 429 104 376 b 422 526 346 376 422 435 b 289 658 422 596 383 635 l 216 675 b 129 743 155 689 129 709 b 229 814 129 786 168 814 b 324 738 290 814 322 788 l 403 738 b 232 884 402 831 341 884 b 50 739 122 884 50 827 b 200 603 50 665 88 630 l 271 586 b 344 520 323 573 344 554 b 234 446 344 475 300 446 b 118 538 142 446 124 492 z "},"ˣ":{"ha":463,"x_min":0,"x_max":0,"o":"m 273 639 l 432 867 l 347 867 l 233 696 l 120 867 l 34 867 l 192 635 l 25 394 l 110 394 l 231 575 l 349 394 l 436 394 z "},"ˤ":{"ha":464,"x_min":0,"x_max":0,"o":"m 350 828 l 430 828 b 229 1035 427 964 358 1035 b 34 859 107 1035 34 969 b 145 702 34 794 75 720 b 197 692 165 697 182 694 l 197 395 l 273 395 l 273 756 b 115 856 167 757 115 773 b 228 965 115 924 158 965 b 350 828 320 965 348 911 z "},"˥":{"ha":731,"x_min":0,"x_max":0,"o":"m 631 1111 l 56 1111 l 56 1011 l 531 1011 l 531 0 l 631 0 z "},"˦":{"ha":731,"x_min":0,"x_max":0,"o":"m 631 1111 l 531 1111 l 531 882 l 56 882 l 56 782 l 531 782 l 531 0 l 631 0 z "},"˧":{"ha":731,"x_min":0,"x_max":0,"o":"m 631 1111 l 531 1111 l 531 608 l 56 608 l 56 508 l 531 508 l 531 0 l 631 0 z "},"˨":{"ha":731,"x_min":0,"x_max":0,"o":"m 631 1111 l 531 1111 l 531 329 l 56 329 l 56 229 l 531 229 l 531 0 l 631 0 z "},"˩":{"ha":731,"x_min":0,"x_max":0,"o":"m 631 0 l 631 1111 l 531 1111 l 531 100 l 56 100 l 56 0 z "},"˪":{"ha":721,"x_min":0,"x_max":0,"o":"m 100 -1 l 665 -1 l 665 99 l 200 99 l 200 842 l 100 842 z "},"˫":{"ha":721,"x_min":0,"x_max":0,"o":"m 200 379 l 665 379 l 665 481 l 200 481 l 200 853 l 100 853 l 100 0 l 200 0 z "},"ˬ":{"ha":463,"x_min":0,"x_max":0,"o":"m 297 -278 l 431 -69 l 342 -69 l 232 -203 l 119 -69 l 32 -69 l 165 -278 z "},"˭":{"ha":463,"x_min":0,"x_max":0,"o":"m 419 1111 l 39 1111 l 39 1014 l 419 1014 z m 419 921 l 39 921 l 39 824 l 419 824 z "},"ˮ":{"ha":463,"x_min":0,"x_max":0,"o":"m 290 1013 l 290 868 l 357 868 b 290 743 357 819 351 753 l 290 690 b 419 872 374 697 419 761 l 419 1013 z m 68 1013 l 68 868 l 135 868 b 68 743 135 819 129 753 l 68 690 b 197 872 151 697 197 761 l 197 1013 z "},"˯":{"ha":463,"x_min":0,"x_max":0,"o":"m 254 -278 l 392 -35 l 339 -35 l 230 -231 l 123 -35 l 71 -35 l 208 -278 z "},"˰":{"ha":463,"x_min":0,"x_max":0,"o":"m 201 -35 l 64 -278 l 116 -278 l 225 -82 l 332 -278 l 385 -278 l 247 -35 z "},"˱":{"ha":463,"x_min":0,"x_max":0,"o":"m 37 -185 l 419 -306 l 419 -260 l 111 -164 l 419 -70 l 419 -23 l 37 -145 z "},"˲":{"ha":463,"x_min":0,"x_max":0,"o":"m 420 -143 l 38 -22 l 38 -68 l 346 -164 l 38 -259 l 38 -305 l 420 -184 z "},"˳":{"ha":454,"x_min":0,"x_max":0,"o":"m 228 -66 b 81 -211 148 -66 81 -133 b 228 -358 81 -291 148 -358 b 374 -213 308 -358 374 -293 b 228 -66 374 -131 309 -66 z m 228 -151 b 289 -212 263 -151 289 -178 b 228 -272 289 -244 261 -272 b 167 -211 194 -272 167 -244 b 228 -151 167 -179 194 -151 z "},"˴":{"ha":363,"x_min":0,"x_max":0,"o":"m 188 714 l 31 714 l 238 508 l 321 508 z "},"˵":{"ha":607,"x_min":0,"x_max":0,"o":"m 432 714 l 275 714 l 482 508 l 565 508 z m 188 714 l 31 714 l 238 508 l 321 508 z "},"˶":{"ha":607,"x_min":0,"x_max":0,"o":"m 158 714 l 25 508 l 108 508 l 315 714 z m 401 711 l 268 506 l 351 506 l 558 711 z "}}}
